<ttFont>
    <TTGlyph name=".notdef" xMin="19" yMin="0" xMax="1171" yMax="1462">
      <contour>
        <pt x="861" y="0" on="1"/>
        <pt x="19" y="0" on="1"/>
        <pt x="329" y="1462" on="1"/>
        <pt x="1171" y="1462" on="1"/>
      </contour>
      <contour>
        <pt x="412" y="1358" on="1"/>
        <pt x="146" y="104" on="1"/>
        <pt x="778" y="104" on="1"/>
        <pt x="1044" y="1358" on="1"/>
      </contour>
    </TTGlyph>
    <TTGlyph name="A" xMin="-156" yMin="0" xMax="938" yMax="1468">
      <contour>
        <pt x="938" y="0" on="1"/>
        <pt x="665" y="0" on="1"/>
        <pt x="659" y="369" on="1"/>
        <pt x="278" y="369" on="1"/>
        <pt x="116" y="0" on="1"/>
        <pt x="-156" y="0" on="1"/>
        <pt x="518" y="1468" on="1"/>
        <pt x="887" y="1468" on="1"/>
      </contour>
      <contour>
        <pt x="654" y="950" on="1"/>
        <pt x="654" y="955" on="0"/>
        <pt x="654" y="1012" on="0"/>
        <pt x="658" y="1248" on="0"/>
        <pt x="661" y="1272" on="1"/>
        <pt x="621" y="1162" on="0"/>
        <pt x="549" y="985" on="0"/>
        <pt x="384" y="610" on="1"/>
        <pt x="660" y="610" on="1"/>
      </contour>
    </TTGlyph>
    <TTGlyph name="AE" xMin="-155" yMin="0" xMax="1494" yMax="1462">
      <contour>
        <pt x="1444" y="1227" on="1"/>
        <pt x="1061" y="1227" on="1"/>
        <pt x="987" y="879" on="1"/>
        <pt x="1342" y="879" on="1"/>
        <pt x="1292" y="643" on="1"/>
        <pt x="937" y="643" on="1"/>
        <pt x="851" y="238" on="1"/>
        <pt x="1234" y="238" on="1"/>
        <pt x="1184" y="0" on="1"/>
        <pt x="529" y="0" on="1"/>
        <pt x="607" y="369" on="1"/>
        <pt x="308" y="369" on="1"/>
        <pt x="117" y="0" on="1"/>
        <pt x="-155" y="0" on="1"/>
        <pt x="628" y="1462" on="1"/>
        <pt x="1494" y="1462" on="1"/>
      </contour>
      <contour>
        <pt x="750" y="1227" on="1"/>
        <pt x="726" y="1178" on="1"/>
        <pt x="435" y="610" on="1"/>
        <pt x="658" y="610" on="1"/>
        <pt x="789" y="1227" on="1"/>
      </contour>
    </TTGlyph>
    <TTGlyph name="Aacute" xMin="-203" yMin="0" xMax="1098" yMax="1907">
      <contour>
        <pt x="1098" y="1907" on="1"/>
        <pt x="1093" y="1886" on="1"/>
        <pt x="1063" y="1846" on="0"/>
        <pt x="945" y="1747" on="1"/>
        <pt x="836" y="1658" on="0"/>
        <pt x="725" y="1579" on="1"/>
        <pt x="538" y="1579" on="1"/>
        <pt x="544" y="1606" on="1"/>
        <pt x="596" y="1660" on="0"/>
        <pt x="743" y="1850" on="0"/>
        <pt x="780" y="1907" on="1"/>
      </contour>
      <contour>
        <pt x="891" y="0" on="1"/>
        <pt x="618" y="0" on="1"/>
        <pt x="613" y="369" on="1"/>
        <pt x="232" y="369" on="1"/>
        <pt x="69" y="0" on="1"/>
        <pt x="-203" y="0" on="1"/>
        <pt x="471" y="1468" on="1"/>
        <pt x="840" y="1468" on="1"/>
      </contour>
      <contour>
        <pt x="607" y="950" on="1"/>
        <pt x="608" y="1105" on="1"/>
        <pt x="611" y="1236" on="0"/>
        <pt x="615" y="1272" on="1"/>
        <pt x="584" y="1189" on="0"/>
        <pt x="515" y="1015" on="0"/>
        <pt x="337" y="610" on="1"/>
        <pt x="613" y="610" on="1"/>
      </contour>
    </TTGlyph>
    <TTGlyph name="Acircumflex" xMin="-203" yMin="0" xMax="1042" yMax="1907">
      <contour>
        <pt x="612" y="1907" on="1"/>
        <pt x="889" y="1907" on="1"/>
        <pt x="914" y="1827" on="0"/>
        <pt x="1042" y="1606" on="1"/>
        <pt x="1036" y="1579" on="1"/>
        <pt x="868" y="1579" on="1"/>
        <pt x="787" y="1651" on="0"/>
        <pt x="717" y="1757" on="1"/>
        <pt x="611" y="1660" on="0"/>
        <pt x="493" y="1579" on="1"/>
        <pt x="325" y="1579" on="1"/>
        <pt x="331" y="1606" on="1"/>
        <pt x="558" y="1833" on="0"/>
      </contour>
      <contour>
        <pt x="891" y="0" on="1"/>
        <pt x="618" y="0" on="1"/>
        <pt x="613" y="369" on="1"/>
        <pt x="232" y="369" on="1"/>
        <pt x="69" y="0" on="1"/>
        <pt x="-203" y="0" on="1"/>
        <pt x="471" y="1468" on="1"/>
        <pt x="840" y="1468" on="1"/>
      </contour>
      <contour>
        <pt x="607" y="950" on="1"/>
        <pt x="608" y="1105" on="1"/>
        <pt x="611" y="1236" on="0"/>
        <pt x="615" y="1272" on="1"/>
        <pt x="584" y="1189" on="0"/>
        <pt x="515" y="1015" on="0"/>
        <pt x="337" y="610" on="1"/>
        <pt x="613" y="610" on="1"/>
      </contour>
    </TTGlyph>
    <TTGlyph name="Adieresis" xMin="-199" yMin="0" xMax="1055" yMax="1870">
      <contour>
        <pt x="485" y="1870" on="0"/>
        <pt x="609" y="1870" on="0"/>
        <pt x="637" y="1834" on="1"/>
        <pt x="656" y="1810" on="0"/>
        <pt x="656" y="1785" on="1"/>
        <pt x="656" y="1696" on="0"/>
        <pt x="597" y="1648" on="1"/>
        <pt x="554" y="1614" on="0"/>
        <pt x="430" y="1614" on="0"/>
        <pt x="402" y="1648" on="1"/>
        <pt x="383" y="1670" on="0"/>
        <pt x="383" y="1696" on="1"/>
        <pt x="383" y="1787" on="0"/>
        <pt x="443" y="1836" on="1"/>
      </contour>
      <contour>
        <pt x="798" y="1801" on="0"/>
        <pt x="883" y="1870" on="0"/>
        <pt x="1007" y="1870" on="0"/>
        <pt x="1036" y="1836" on="1"/>
        <pt x="1055" y="1812" on="0"/>
        <pt x="1055" y="1786" on="1"/>
        <pt x="1055" y="1695" on="0"/>
        <pt x="996" y="1648" on="1"/>
        <pt x="953" y="1614" on="0"/>
        <pt x="829" y="1614" on="0"/>
        <pt x="801" y="1648" on="1"/>
        <pt x="781" y="1673" on="0"/>
        <pt x="781" y="1708" on="1"/>
        <pt x="781" y="1724" on="0"/>
        <pt x="785" y="1741" on="1"/>
      </contour>
      <contour>
        <pt x="895" y="0" on="1"/>
        <pt x="622" y="0" on="1"/>
        <pt x="617" y="369" on="1"/>
        <pt x="236" y="369" on="1"/>
        <pt x="73" y="0" on="1"/>
        <pt x="-199" y="0" on="1"/>
        <pt x="475" y="1468" on="1"/>
        <pt x="844" y="1468" on="1"/>
      </contour>
      <contour>
        <pt x="617" y="610" on="1"/>
        <pt x="611" y="950" on="1"/>
        <pt x="611" y="1200" on="0"/>
        <pt x="619" y="1272" on="1"/>
        <pt x="588" y="1189" on="0"/>
        <pt x="519" y="1015" on="0"/>
        <pt x="341" y="610" on="1"/>
      </contour>
    </TTGlyph>
    <TTGlyph name="Agrave" xMin="-203" yMin="0" xMax="891" yMax="1907">
      <contour>
        <pt x="396" y="1907" on="1"/>
        <pt x="714" y="1907" on="1"/>
        <pt x="727" y="1851" on="0"/>
        <pt x="793" y="1659" on="0"/>
        <pt x="822" y="1606" on="1"/>
        <pt x="816" y="1579" on="1"/>
        <pt x="629" y="1579" on="1"/>
        <pt x="566" y="1639" on="0"/>
        <pt x="408" y="1840" on="0"/>
        <pt x="391" y="1886" on="1"/>
      </contour>
      <contour>
        <pt x="891" y="0" on="1"/>
        <pt x="618" y="0" on="1"/>
        <pt x="613" y="369" on="1"/>
        <pt x="232" y="369" on="1"/>
        <pt x="69" y="0" on="1"/>
        <pt x="-203" y="0" on="1"/>
        <pt x="471" y="1468" on="1"/>
        <pt x="840" y="1468" on="1"/>
      </contour>
      <contour>
        <pt x="607" y="950" on="1"/>
        <pt x="608" y="1105" on="1"/>
        <pt x="611" y="1236" on="0"/>
        <pt x="615" y="1272" on="1"/>
        <pt x="584" y="1189" on="0"/>
        <pt x="515" y="1015" on="0"/>
        <pt x="337" y="610" on="1"/>
        <pt x="613" y="610" on="1"/>
      </contour>
    </TTGlyph>
    <TTGlyph name="Aring" xMin="-192" yMin="0" xMax="944" yMax="1802">
      <contour>
        <pt x="460" y="1417" on="1"/>
        <pt x="436" y="1455" on="0"/>
        <pt x="436" y="1536" on="0"/>
        <pt x="444" y="1569" on="1"/>
        <pt x="467" y="1678" on="0"/>
        <pt x="628" y="1802" on="0"/>
        <pt x="846" y="1802" on="0"/>
        <pt x="903" y="1738" on="1"/>
        <pt x="944" y="1691" on="0"/>
        <pt x="944" y="1625" on="1"/>
        <pt x="944" y="1599" on="0"/>
        <pt x="938" y="1571" on="1"/>
        <pt x="918" y="1478" on="0"/>
        <pt x="854" y="1417" on="1"/>
        <pt x="902" y="0" on="1"/>
        <pt x="629" y="0" on="1"/>
        <pt x="624" y="369" on="1"/>
        <pt x="243" y="369" on="1"/>
        <pt x="80" y="0" on="1"/>
        <pt x="-192" y="0" on="1"/>
      </contour>
      <contour>
        <pt x="632" y="1642" on="1"/>
        <pt x="585" y="1603" on="0"/>
        <pt x="585" y="1533" on="1"/>
        <pt x="585" y="1512" on="0"/>
        <pt x="598" y="1494" on="1"/>
        <pt x="618" y="1468" on="0"/>
        <pt x="711" y="1468" on="0"/>
        <pt x="778" y="1523" on="0"/>
        <pt x="788" y="1569" on="1"/>
        <pt x="791" y="1583" on="0"/>
        <pt x="791" y="1622" on="0"/>
        <pt x="753" y="1669" on="0"/>
        <pt x="666" y="1669" on="0"/>
      </contour>
      <contour>
        <pt x="618" y="950" on="1"/>
        <pt x="619" y="1105" on="1"/>
        <pt x="622" y="1236" on="0"/>
        <pt x="626" y="1272" on="1"/>
        <pt x="595" y="1189" on="0"/>
        <pt x="526" y="1015" on="0"/>
        <pt x="348" y="610" on="1"/>
        <pt x="624" y="610" on="1"/>
      </contour>
    </TTGlyph>
    <TTGlyph name="Atilde" xMin="-200" yMin="0" xMax="1104" yMax="1880">
      <contour>
        <pt x="821" y="1579" on="1"/>
        <pt x="760" y="1579" on="0"/>
        <pt x="710" y="1616" on="1"/>
        <pt x="690" y="1632" on="0"/>
        <pt x="671" y="1648" on="1"/>
        <pt x="626" y="1686" on="0"/>
        <pt x="556" y="1686" on="0"/>
        <pt x="509" y="1637" on="0"/>
        <pt x="486" y="1577" on="1"/>
        <pt x="345" y="1577" on="1"/>
        <pt x="389" y="1728" on="0"/>
        <pt x="533" y="1878" on="0"/>
        <pt x="628" y="1878" on="1"/>
        <pt x="667" y="1878" on="0"/>
        <pt x="737" y="1845" on="0"/>
        <pt x="759" y="1825" on="1"/>
        <pt x="817" y="1772" on="0"/>
        <pt x="864" y="1772" on="1"/>
        <pt x="896" y="1772" on="0"/>
        <pt x="938" y="1821" on="0"/>
        <pt x="963" y="1880" on="1"/>
        <pt x="1104" y="1880" on="1"/>
        <pt x="1061" y="1731" on="0"/>
        <pt x="914" y="1579" on="0"/>
      </contour>
      <contour>
        <pt x="894" y="0" on="1"/>
        <pt x="621" y="0" on="1"/>
        <pt x="616" y="369" on="1"/>
        <pt x="235" y="369" on="1"/>
        <pt x="72" y="0" on="1"/>
        <pt x="-200" y="0" on="1"/>
        <pt x="474" y="1468" on="1"/>
        <pt x="843" y="1468" on="1"/>
      </contour>
      <contour>
        <pt x="616" y="610" on="1"/>
        <pt x="610" y="950" on="1"/>
        <pt x="610" y="1200" on="0"/>
        <pt x="618" y="1272" on="1"/>
        <pt x="558" y="1116" on="0"/>
        <pt x="518" y="1015" on="0"/>
        <pt x="340" y="610" on="1"/>
      </contour>
    </TTGlyph>
    <TTGlyph name="B" xMin="-26" yMin="0" xMax="1028" yMax="1462">
      <contour>
        <pt x="657" y="1462" on="1"/>
        <pt x="885" y="1462" on="0"/>
        <pt x="970" y="1374" on="1"/>
        <pt x="1028" y="1314" on="0"/>
        <pt x="1028" y="1206" on="1"/>
        <pt x="1028" y="1155" on="0"/>
        <pt x="1015" y="1092" on="1"/>
        <pt x="988" y="963" on="0"/>
        <pt x="841" y="794" on="0"/>
        <pt x="743" y="776" on="1"/>
        <pt x="740" y="766" on="1"/>
        <pt x="856" y="736" on="0"/>
        <pt x="894" y="652" on="1"/>
        <pt x="916" y="605" on="0"/>
        <pt x="916" y="488" on="0"/>
        <pt x="902" y="424" on="1"/>
        <pt x="858" y="224" on="0"/>
        <pt x="598" y="0" on="0"/>
        <pt x="414" y="0" on="1"/>
        <pt x="-26" y="0" on="1"/>
        <pt x="284" y="1462" on="1"/>
      </contour>
      <contour>
        <pt x="540" y="874" on="1"/>
        <pt x="624" y="874" on="0"/>
        <pt x="716" y="964" on="0"/>
        <pt x="735" y="1057" on="1"/>
        <pt x="742" y="1091" on="0"/>
        <pt x="742" y="1162" on="0"/>
        <pt x="723" y="1187" on="1"/>
        <pt x="692" y="1227" on="0"/>
        <pt x="605" y="1227" on="1"/>
        <pt x="490" y="1227" on="1"/>
        <pt x="415" y="874" on="1"/>
      </contour>
      <contour>
        <pt x="417" y="238" on="1"/>
        <pt x="586" y="238" on="0"/>
        <pt x="630" y="451" on="1"/>
        <pt x="638" y="489" on="0"/>
        <pt x="638" y="520" on="1"/>
        <pt x="638" y="647" on="0"/>
        <pt x="500" y="647" on="1"/>
        <pt x="367" y="647" on="1"/>
        <pt x="280" y="238" on="1"/>
      </contour>
    </TTGlyph>
    <TTGlyph name="C" xMin="49" yMin="-20" xMax="1050" yMax="1483">
      <contour>
        <pt x="436" y="-20" on="1"/>
        <pt x="189" y="-20" on="0"/>
        <pt x="98" y="176" on="1"/>
        <pt x="49" y="283" on="0"/>
        <pt x="49" y="567" on="0"/>
        <pt x="83" y="729" on="1"/>
        <pt x="160" y="1086" on="0"/>
        <pt x="337" y="1284" on="1"/>
        <pt x="517" y="1483" on="0"/>
        <pt x="760" y="1483" on="1"/>
        <pt x="842" y="1483" on="0"/>
        <pt x="979" y="1438" on="0"/>
        <pt x="1050" y="1384" on="1"/>
        <pt x="913" y="1163" on="1"/>
        <pt x="864" y="1202" on="0"/>
        <pt x="777" y="1245" on="0"/>
        <pt x="723" y="1245" on="1"/>
        <pt x="605" y="1245" on="0"/>
        <pt x="414" y="973" on="0"/>
        <pt x="361" y="727" on="1"/>
        <pt x="330" y="580" on="0"/>
        <pt x="330" y="475" on="1"/>
        <pt x="330" y="219" on="0"/>
        <pt x="518" y="219" on="1"/>
        <pt x="632" y="219" on="0"/>
        <pt x="777" y="293" on="1"/>
        <pt x="725" y="51" on="1"/>
        <pt x="603" y="-20" on="0"/>
      </contour>
    </TTGlyph>
    <TTGlyph name="Ccedilla" xMin="99" yMin="-492" xMax="1100" yMax="1483">
      <contour>
        <pt x="773" y="1245" on="1"/>
        <pt x="657" y="1245" on="0"/>
        <pt x="464" y="973" on="0"/>
        <pt x="411" y="727" on="1"/>
        <pt x="380" y="580" on="0"/>
        <pt x="380" y="475" on="1"/>
        <pt x="380" y="219" on="0"/>
        <pt x="568" y="219" on="1"/>
        <pt x="684" y="219" on="0"/>
        <pt x="827" y="293" on="1"/>
        <pt x="776" y="51" on="1"/>
        <pt x="665" y="-14" on="0"/>
        <pt x="510" y="-20" on="1"/>
        <pt x="471" y="-76" on="1"/>
        <pt x="538" y="-94" on="0"/>
        <pt x="570" y="-141" on="1"/>
        <pt x="591" y="-172" on="0"/>
        <pt x="591" y="-236" on="0"/>
        <pt x="586" y="-260" on="1"/>
        <pt x="563" y="-370" on="0"/>
        <pt x="392" y="-492" on="0"/>
        <pt x="246" y="-492" on="1"/>
        <pt x="174" y="-492" on="0"/>
        <pt x="120" y="-471" on="1"/>
        <pt x="152" y="-317" on="1"/>
        <pt x="212" y="-334" on="0"/>
        <pt x="270" y="-334" on="1"/>
        <pt x="357" y="-334" on="0"/>
        <pt x="372" y="-268" on="1"/>
        <pt x="374" y="-259" on="0"/>
        <pt x="374" y="-251" on="1"/>
        <pt x="374" y="-181" on="0"/>
        <pt x="238" y="-158" on="1"/>
        <pt x="350" y="-2" on="1"/>
        <pt x="211" y="40" on="0"/>
        <pt x="148" y="176" on="1"/>
        <pt x="99" y="283" on="0"/>
        <pt x="99" y="566" on="0"/>
        <pt x="134" y="729" on="1"/>
        <pt x="209" y="1086" on="0"/>
        <pt x="566" y="1483" on="0"/>
        <pt x="810" y="1483" on="1"/>
        <pt x="892" y="1483" on="0"/>
        <pt x="1029" y="1438" on="0"/>
        <pt x="1100" y="1384" on="1"/>
        <pt x="963" y="1163" on="1"/>
        <pt x="915" y="1201" on="0"/>
        <pt x="827" y="1245" on="0"/>
      </contour>
    </TTGlyph>
    <TTGlyph name="D" xMin="-26" yMin="0" xMax="1092" yMax="1462">
      <contour>
        <pt x="675" y="1462" on="1"/>
        <pt x="930" y="1462" on="0"/>
        <pt x="1032" y="1273" on="1"/>
        <pt x="1092" y="1164" on="0"/>
        <pt x="1092" y="1001" on="1"/>
        <pt x="1092" y="887" on="0"/>
        <pt x="1062" y="745" on="1"/>
        <pt x="986" y="384" on="0"/>
        <pt x="608" y="0" on="0"/>
        <pt x="332" y="0" on="1"/>
        <pt x="-26" y="0" on="1"/>
        <pt x="284" y="1462" on="1"/>
      </contour>
      <contour>
        <pt x="384" y="238" on="1"/>
        <pt x="532" y="238" on="0"/>
        <pt x="727" y="486" on="0"/>
        <pt x="781" y="737" on="1"/>
        <pt x="810" y="874" on="0"/>
        <pt x="810" y="972" on="1"/>
        <pt x="810" y="1227" on="0"/>
        <pt x="615" y="1227" on="1"/>
        <pt x="506" y="1227" on="1"/>
        <pt x="296" y="238" on="1"/>
      </contour>
    </TTGlyph>
    <TTGlyph name="E" xMin="-26" yMin="0" xMax="943" yMax="1462">
      <contour>
        <pt x="893" y="1227" on="1"/>
        <pt x="506" y="1227" on="1"/>
        <pt x="432" y="879" on="1"/>
        <pt x="791" y="879" on="1"/>
        <pt x="741" y="643" on="1"/>
        <pt x="382" y="643" on="1"/>
        <pt x="296" y="238" on="1"/>
        <pt x="683" y="238" on="1"/>
        <pt x="633" y="0" on="1"/>
        <pt x="-26" y="0" on="1"/>
        <pt x="284" y="1462" on="1"/>
        <pt x="943" y="1462" on="1"/>
      </contour>
    </TTGlyph>
    <TTGlyph name="Eacute" xMin="-74" yMin="0" xMax="1029" yMax="1907">
      <contour>
        <pt x="1029" y="1907" on="1"/>
        <pt x="1024" y="1886" on="1"/>
        <pt x="994" y="1846" on="0"/>
        <pt x="876" y="1747" on="1"/>
        <pt x="767" y="1658" on="0"/>
        <pt x="656" y="1579" on="1"/>
        <pt x="469" y="1579" on="1"/>
        <pt x="475" y="1606" on="1"/>
        <pt x="527" y="1660" on="0"/>
        <pt x="674" y="1850" on="0"/>
        <pt x="711" y="1907" on="1"/>
      </contour>
      <contour>
        <pt x="846" y="1227" on="1"/>
        <pt x="459" y="1227" on="1"/>
        <pt x="385" y="879" on="1"/>
        <pt x="744" y="879" on="1"/>
        <pt x="694" y="643" on="1"/>
        <pt x="335" y="643" on="1"/>
        <pt x="249" y="238" on="1"/>
        <pt x="636" y="238" on="1"/>
        <pt x="585" y="0" on="1"/>
        <pt x="-74" y="0" on="1"/>
        <pt x="237" y="1462" on="1"/>
        <pt x="896" y="1462" on="1"/>
      </contour>
    </TTGlyph>
    <TTGlyph name="Ecircumflex" xMin="-74" yMin="0" xMax="953" yMax="1907">
      <contour>
        <pt x="523" y="1907" on="1"/>
        <pt x="800" y="1907" on="1"/>
        <pt x="825" y="1827" on="0"/>
        <pt x="953" y="1606" on="1"/>
        <pt x="947" y="1579" on="1"/>
        <pt x="779" y="1579" on="1"/>
        <pt x="698" y="1651" on="0"/>
        <pt x="628" y="1757" on="1"/>
        <pt x="522" y="1660" on="0"/>
        <pt x="404" y="1579" on="1"/>
        <pt x="236" y="1579" on="1"/>
        <pt x="242" y="1606" on="1"/>
        <pt x="469" y="1833" on="0"/>
      </contour>
      <contour>
        <pt x="846" y="1227" on="1"/>
        <pt x="459" y="1227" on="1"/>
        <pt x="385" y="879" on="1"/>
        <pt x="744" y="879" on="1"/>
        <pt x="694" y="643" on="1"/>
        <pt x="335" y="643" on="1"/>
        <pt x="249" y="238" on="1"/>
        <pt x="636" y="238" on="1"/>
        <pt x="585" y="0" on="1"/>
        <pt x="-74" y="0" on="1"/>
        <pt x="237" y="1462" on="1"/>
        <pt x="896" y="1462" on="1"/>
      </contour>
    </TTGlyph>
    <TTGlyph name="Edieresis" xMin="-70" yMin="0" xMax="969" yMax="1870">
      <contour>
        <pt x="399" y="1870" on="0"/>
        <pt x="523" y="1870" on="0"/>
        <pt x="551" y="1834" on="1"/>
        <pt x="570" y="1810" on="0"/>
        <pt x="570" y="1785" on="1"/>
        <pt x="570" y="1696" on="0"/>
        <pt x="511" y="1648" on="1"/>
        <pt x="468" y="1614" on="0"/>
        <pt x="344" y="1614" on="0"/>
        <pt x="316" y="1648" on="1"/>
        <pt x="297" y="1670" on="0"/>
        <pt x="297" y="1696" on="1"/>
        <pt x="297" y="1787" on="0"/>
        <pt x="357" y="1836" on="1"/>
      </contour>
      <contour>
        <pt x="712" y="1801" on="0"/>
        <pt x="797" y="1870" on="0"/>
        <pt x="921" y="1870" on="0"/>
        <pt x="950" y="1836" on="1"/>
        <pt x="969" y="1812" on="0"/>
        <pt x="969" y="1786" on="1"/>
        <pt x="969" y="1695" on="0"/>
        <pt x="910" y="1648" on="1"/>
        <pt x="867" y="1614" on="0"/>
        <pt x="743" y="1614" on="0"/>
        <pt x="715" y="1648" on="1"/>
        <pt x="695" y="1673" on="0"/>
        <pt x="695" y="1708" on="1"/>
        <pt x="695" y="1724" on="0"/>
        <pt x="699" y="1741" on="1"/>
      </contour>
      <contour>
        <pt x="850" y="1227" on="1"/>
        <pt x="463" y="1227" on="1"/>
        <pt x="389" y="879" on="1"/>
        <pt x="748" y="879" on="1"/>
        <pt x="698" y="643" on="1"/>
        <pt x="339" y="643" on="1"/>
        <pt x="253" y="238" on="1"/>
        <pt x="640" y="238" on="1"/>
        <pt x="589" y="0" on="1"/>
        <pt x="-70" y="0" on="1"/>
        <pt x="241" y="1462" on="1"/>
        <pt x="900" y="1462" on="1"/>
      </contour>
    </TTGlyph>
    <TTGlyph name="Egrave" xMin="-74" yMin="0" xMax="896" yMax="1907">
      <contour>
        <pt x="292" y="1907" on="1"/>
        <pt x="610" y="1907" on="1"/>
        <pt x="623" y="1851" on="0"/>
        <pt x="689" y="1659" on="0"/>
        <pt x="718" y="1606" on="1"/>
        <pt x="712" y="1579" on="1"/>
        <pt x="525" y="1579" on="1"/>
        <pt x="462" y="1639" on="0"/>
        <pt x="304" y="1840" on="0"/>
        <pt x="287" y="1886" on="1"/>
      </contour>
      <contour>
        <pt x="846" y="1227" on="1"/>
        <pt x="459" y="1227" on="1"/>
        <pt x="385" y="879" on="1"/>
        <pt x="744" y="879" on="1"/>
        <pt x="694" y="643" on="1"/>
        <pt x="335" y="643" on="1"/>
        <pt x="249" y="238" on="1"/>
        <pt x="636" y="238" on="1"/>
        <pt x="585" y="0" on="1"/>
        <pt x="-74" y="0" on="1"/>
        <pt x="237" y="1462" on="1"/>
        <pt x="896" y="1462" on="1"/>
      </contour>
    </TTGlyph>
    <TTGlyph name="Eth" xMin="-27" yMin="0" xMax="1092" yMax="1462">
      <contour>
        <pt x="675" y="1462" on="1"/>
        <pt x="930" y="1462" on="0"/>
        <pt x="1032" y="1273" on="1"/>
        <pt x="1092" y="1164" on="0"/>
        <pt x="1092" y="1001" on="1"/>
        <pt x="1092" y="887" on="0"/>
        <pt x="1062" y="745" on="1"/>
        <pt x="986" y="384" on="0"/>
        <pt x="608" y="0" on="0"/>
        <pt x="332" y="0" on="1"/>
        <pt x="-26" y="0" on="1"/>
        <pt x="102" y="604" on="1"/>
        <pt x="-27" y="604" on="1"/>
        <pt x="24" y="842" on="1"/>
        <pt x="153" y="842" on="1"/>
        <pt x="284" y="1462" on="1"/>
      </contour>
      <contour>
        <pt x="384" y="238" on="1"/>
        <pt x="532" y="238" on="0"/>
        <pt x="727" y="486" on="0"/>
        <pt x="781" y="737" on="1"/>
        <pt x="810" y="874" on="0"/>
        <pt x="810" y="972" on="1"/>
        <pt x="810" y="1227" on="0"/>
        <pt x="615" y="1227" on="1"/>
        <pt x="506" y="1227" on="1"/>
        <pt x="425" y="842" on="1"/>
        <pt x="608" y="842" on="1"/>
        <pt x="557" y="604" on="1"/>
        <pt x="374" y="604" on="1"/>
        <pt x="296" y="238" on="1"/>
      </contour>
    </TTGlyph>
    <TTGlyph name="Euro" xMin="-11" yMin="-20" xMax="1073" yMax="1485">
      <contour>
        <pt x="807" y="1485" on="1"/>
        <pt x="893" y="1485" on="0"/>
        <pt x="1014" y="1452" on="0"/>
        <pt x="1073" y="1415" on="1"/>
        <pt x="937" y="1200" on="1"/>
        <pt x="851" y="1247" on="0"/>
        <pt x="684" y="1247" on="0"/>
        <pt x="540" y="1093" on="0"/>
        <pt x="485" y="946" on="1"/>
        <pt x="780" y="946" on="1"/>
        <pt x="745" y="778" on="1"/>
        <pt x="436" y="778" on="1"/>
        <pt x="410" y="655" on="1"/>
        <pt x="674" y="655" on="1"/>
        <pt x="638" y="487" on="1"/>
        <pt x="390" y="487" on="1"/>
        <pt x="390" y="478" on="0"/>
        <pt x="390" y="470" on="1"/>
        <pt x="390" y="219" on="0"/>
        <pt x="565" y="219" on="1"/>
        <pt x="672" y="219" on="0"/>
        <pt x="814" y="293" on="1"/>
        <pt x="762" y="51" on="1"/>
        <pt x="637" y="-20" on="0"/>
        <pt x="485" y="-20" on="1"/>
        <pt x="291" y="-20" on="0"/>
        <pt x="198" y="110" on="1"/>
        <pt x="118" y="220" on="0"/>
        <pt x="118" y="417" on="1"/>
        <pt x="118" y="451" on="0"/>
        <pt x="120" y="487" on="1"/>
        <pt x="-11" y="487" on="1"/>
        <pt x="25" y="655" on="1"/>
        <pt x="142" y="655" on="1"/>
        <pt x="168" y="778" on="1"/>
        <pt x="51" y="778" on="1"/>
        <pt x="86" y="946" on="1"/>
        <pt x="215" y="946" on="1"/>
        <pt x="309" y="1208" on="0"/>
        <pt x="615" y="1485" on="0"/>
      </contour>
    </TTGlyph>
    <TTGlyph name="F" xMin="-26" yMin="0" xMax="939" yMax="1462">
      <contour>
        <pt x="889" y="1227" on="1"/>
        <pt x="504" y="1227" on="1"/>
        <pt x="418" y="821" on="1"/>
        <pt x="777" y="821" on="1"/>
        <pt x="727" y="586" on="1"/>
        <pt x="368" y="586" on="1"/>
        <pt x="244" y="0" on="1"/>
        <pt x="-26" y="0" on="1"/>
        <pt x="284" y="1462" on="1"/>
        <pt x="939" y="1462" on="1"/>
      </contour>
    </TTGlyph>
    <TTGlyph name="G" xMin="50" yMin="-20" xMax="1157" yMax="1483">
      <contour>
        <pt x="454" y="-20" on="1"/>
        <pt x="200" y="-20" on="0"/>
        <pt x="102" y="174" on="1"/>
        <pt x="50" y="281" on="0"/>
        <pt x="50" y="570" on="0"/>
        <pt x="84" y="733" on="1"/>
        <pt x="159" y="1085" on="0"/>
        <pt x="358" y="1284" on="1"/>
        <pt x="558" y="1483" on="0"/>
        <pt x="842" y="1483" on="1"/>
        <pt x="1016" y="1483" on="0"/>
        <pt x="1157" y="1393" on="1"/>
        <pt x="1023" y="1171" on="1"/>
        <pt x="915" y="1243" on="0"/>
        <pt x="807" y="1243" on="1"/>
        <pt x="652" y="1243" on="0"/>
        <pt x="531" y="1104" on="1"/>
        <pt x="412" y="965" on="0"/>
        <pt x="361" y="727" on="1"/>
        <pt x="330" y="584" on="0"/>
        <pt x="330" y="405" on="0"/>
        <pt x="346" y="350" on="1"/>
        <pt x="384" y="219" on="0"/>
        <pt x="509" y="219" on="1"/>
        <pt x="573" y="219" on="0"/>
        <pt x="647" y="236" on="1"/>
        <pt x="718" y="571" on="1"/>
        <pt x="537" y="571" on="1"/>
        <pt x="588" y="811" on="1"/>
        <pt x="1035" y="811" on="1"/>
        <pt x="875" y="61" on="1"/>
        <pt x="668" y="-20" on="0"/>
      </contour>
    </TTGlyph>
    <TTGlyph name="H" xMin="-26" yMin="0" xMax="1187" yMax="1462">
      <contour>
        <pt x="877" y="0" on="1"/>
        <pt x="605" y="0" on="1"/>
        <pt x="741" y="641" on="1"/>
        <pt x="382" y="641" on="1"/>
        <pt x="246" y="0" on="1"/>
        <pt x="-26" y="0" on="1"/>
        <pt x="284" y="1462" on="1"/>
        <pt x="556" y="1462" on="1"/>
        <pt x="433" y="881" on="1"/>
        <pt x="792" y="881" on="1"/>
        <pt x="915" y="1462" on="1"/>
        <pt x="1187" y="1462" on="1"/>
      </contour>
    </TTGlyph>
    <TTGlyph name="I" xMin="23" yMin="0" xMax="589" yMax="1462">
      <contour>
        <pt x="279" y="0" on="1"/>
        <pt x="23" y="0" on="1"/>
        <pt x="333" y="1462" on="1"/>
        <pt x="589" y="1462" on="1"/>
      </contour>
    </TTGlyph>
    <TTGlyph name="Iacute" xMin="-25" yMin="0" xMax="860" yMax="1907">
      <contour>
        <pt x="860" y="1907" on="1"/>
        <pt x="855" y="1886" on="1"/>
        <pt x="825" y="1846" on="0"/>
        <pt x="707" y="1747" on="1"/>
        <pt x="598" y="1658" on="0"/>
        <pt x="487" y="1579" on="1"/>
        <pt x="300" y="1579" on="1"/>
        <pt x="306" y="1606" on="1"/>
        <pt x="358" y="1660" on="0"/>
        <pt x="505" y="1850" on="0"/>
        <pt x="542" y="1907" on="1"/>
      </contour>
      <contour>
        <pt x="231" y="0" on="1"/>
        <pt x="-25" y="0" on="1"/>
        <pt x="286" y="1462" on="1"/>
        <pt x="542" y="1462" on="1"/>
      </contour>
    </TTGlyph>
    <TTGlyph name="Icircumflex" xMin="-25" yMin="0" xMax="802" yMax="1907">
      <contour>
        <pt x="372" y="1907" on="1"/>
        <pt x="649" y="1907" on="1"/>
        <pt x="674" y="1827" on="0"/>
        <pt x="802" y="1606" on="1"/>
        <pt x="796" y="1579" on="1"/>
        <pt x="628" y="1579" on="1"/>
        <pt x="547" y="1651" on="0"/>
        <pt x="477" y="1757" on="1"/>
        <pt x="371" y="1660" on="0"/>
        <pt x="253" y="1579" on="1"/>
        <pt x="85" y="1579" on="1"/>
        <pt x="91" y="1606" on="1"/>
        <pt x="318" y="1833" on="0"/>
      </contour>
      <contour>
        <pt x="231" y="0" on="1"/>
        <pt x="-25" y="0" on="1"/>
        <pt x="286" y="1462" on="1"/>
        <pt x="542" y="1462" on="1"/>
      </contour>
    </TTGlyph>
    <TTGlyph name="Idieresis" xMin="-21" yMin="0" xMax="815" yMax="1870">
      <contour>
        <pt x="245" y="1870" on="0"/>
        <pt x="369" y="1870" on="0"/>
        <pt x="397" y="1834" on="1"/>
        <pt x="416" y="1810" on="0"/>
        <pt x="416" y="1785" on="1"/>
        <pt x="416" y="1696" on="0"/>
        <pt x="357" y="1648" on="1"/>
        <pt x="314" y="1614" on="0"/>
        <pt x="190" y="1614" on="0"/>
        <pt x="162" y="1648" on="1"/>
        <pt x="143" y="1670" on="0"/>
        <pt x="143" y="1696" on="1"/>
        <pt x="143" y="1787" on="0"/>
        <pt x="203" y="1836" on="1"/>
      </contour>
      <contour>
        <pt x="558" y="1801" on="0"/>
        <pt x="643" y="1870" on="0"/>
        <pt x="767" y="1870" on="0"/>
        <pt x="796" y="1836" on="1"/>
        <pt x="815" y="1812" on="0"/>
        <pt x="815" y="1786" on="1"/>
        <pt x="815" y="1695" on="0"/>
        <pt x="756" y="1648" on="1"/>
        <pt x="713" y="1614" on="0"/>
        <pt x="589" y="1614" on="0"/>
        <pt x="561" y="1648" on="1"/>
        <pt x="541" y="1673" on="0"/>
        <pt x="541" y="1708" on="1"/>
        <pt x="541" y="1724" on="0"/>
        <pt x="545" y="1741" on="1"/>
      </contour>
      <contour>
        <pt x="235" y="0" on="1"/>
        <pt x="-21" y="0" on="1"/>
        <pt x="290" y="1462" on="1"/>
        <pt x="546" y="1462" on="1"/>
      </contour>
    </TTGlyph>
    <TTGlyph name="Igrave" xMin="-25" yMin="0" xMax="579" yMax="1907">
      <contour>
        <pt x="153" y="1907" on="1"/>
        <pt x="471" y="1907" on="1"/>
        <pt x="484" y="1851" on="0"/>
        <pt x="550" y="1659" on="0"/>
        <pt x="579" y="1606" on="1"/>
        <pt x="573" y="1579" on="1"/>
        <pt x="386" y="1579" on="1"/>
        <pt x="323" y="1639" on="0"/>
        <pt x="164" y="1840" on="0"/>
        <pt x="148" y="1886" on="1"/>
      </contour>
      <contour>
        <pt x="231" y="0" on="1"/>
        <pt x="-25" y="0" on="1"/>
        <pt x="286" y="1462" on="1"/>
        <pt x="542" y="1462" on="1"/>
      </contour>
    </TTGlyph>
    <TTGlyph name="J" xMin="-349" yMin="-422" xMax="601" yMax="1462">
      <contour>
        <pt x="-181" y="-422" on="1"/>
        <pt x="-183" y="-422" on="0"/>
        <pt x="-186" y="-422" on="1"/>
        <pt x="-295" y="-422" on="0"/>
        <pt x="-349" y="-397" on="1"/>
        <pt x="-299" y="-160" on="1"/>
        <pt x="-236" y="-180" on="0"/>
        <pt x="-180" y="-180" on="1"/>
        <pt x="-98" y="-180" on="0"/>
        <pt x="2" y="-75" on="0"/>
        <pt x="25" y="31" on="1"/>
        <pt x="329" y="1462" on="1"/>
        <pt x="601" y="1462" on="1"/>
        <pt x="300" y="45" on="1"/>
        <pt x="258" y="-168" on="0"/>
        <pt x="-13" y="-422" on="0"/>
      </contour>
    </TTGlyph>
    <TTGlyph name="K" xMin="-26" yMin="0" xMax="1191" yMax="1462">
      <contour>
        <pt x="719" y="829" on="1"/>
        <pt x="885" y="0" on="1"/>
        <pt x="595" y="0" on="1"/>
        <pt x="487" y="625" on="1"/>
        <pt x="355" y="516" on="1"/>
        <pt x="246" y="0" on="1"/>
        <pt x="-26" y="0" on="1"/>
        <pt x="284" y="1462" on="1"/>
        <pt x="556" y="1462" on="1"/>
        <pt x="402" y="737" on="1"/>
        <pt x="544" y="956" on="1"/>
        <pt x="900" y="1462" on="1"/>
        <pt x="1191" y="1462" on="1"/>
      </contour>
    </TTGlyph>
    <TTGlyph name="L" xMin="-26" yMin="0" xMax="673" yMax="1462">
      <contour>
        <pt x="296" y="238" on="1"/>
        <pt x="673" y="238" on="1"/>
        <pt x="623" y="0" on="1"/>
        <pt x="-26" y="0" on="1"/>
        <pt x="284" y="1462" on="1"/>
        <pt x="556" y="1462" on="1"/>
      </contour>
    </TTGlyph>
    <TTGlyph name="M" xMin="-26" yMin="0" xMax="1632" yMax="1462">
      <contour>
        <pt x="708" y="1462" on="1"/>
        <pt x="708" y="313" on="1"/>
        <pt x="716" y="313" on="1"/>
        <pt x="1208" y="1462" on="1"/>
        <pt x="1632" y="1462" on="1"/>
        <pt x="1322" y="0" on="1"/>
        <pt x="1064" y="0" on="1"/>
        <pt x="1274" y="991" on="1"/>
        <pt x="1300" y="1109" on="0"/>
        <pt x="1342" y="1243" on="1"/>
        <pt x="1334" y="1243" on="1"/>
        <pt x="793" y="0" on="1"/>
        <pt x="496" y="0" on="1"/>
        <pt x="482" y="1245" on="1"/>
        <pt x="471" y="1245" on="1"/>
        <pt x="461" y="1108" on="0"/>
        <pt x="434" y="981" on="1"/>
        <pt x="226" y="0" on="1"/>
        <pt x="-26" y="0" on="1"/>
        <pt x="284" y="1462" on="1"/>
      </contour>
    </TTGlyph>
    <TTGlyph name="N" xMin="-26" yMin="0" xMax="1308" yMax="1462">
      <contour>
        <pt x="426" y="1059" on="1"/>
        <pt x="426" y="943" on="0"/>
        <pt x="395" y="799" on="1"/>
        <pt x="226" y="0" on="1"/>
        <pt x="-26" y="0" on="1"/>
        <pt x="284" y="1462" on="1"/>
        <pt x="618" y="1462" on="1"/>
        <pt x="844" y="414" on="1"/>
        <pt x="855" y="414" on="1"/>
        <pt x="856" y="514" on="0"/>
        <pt x="889" y="664" on="1"/>
        <pt x="1058" y="1462" on="1"/>
        <pt x="1308" y="1462" on="1"/>
        <pt x="998" y="0" on="1"/>
        <pt x="666" y="0" on="1"/>
        <pt x="439" y="1059" on="1"/>
      </contour>
    </TTGlyph>
    <TTGlyph name="Ntilde" xMin="-71" yMin="0" xMax="1264" yMax="1880">
      <contour>
        <pt x="914" y="1579" on="1"/>
        <pt x="853" y="1579" on="0"/>
        <pt x="804" y="1616" on="1"/>
        <pt x="783" y="1632" on="0"/>
        <pt x="764" y="1648" on="1"/>
        <pt x="719" y="1686" on="0"/>
        <pt x="649" y="1686" on="0"/>
        <pt x="602" y="1637" on="0"/>
        <pt x="579" y="1577" on="1"/>
        <pt x="438" y="1577" on="1"/>
        <pt x="482" y="1728" on="0"/>
        <pt x="626" y="1878" on="0"/>
        <pt x="721" y="1878" on="1"/>
        <pt x="760" y="1878" on="0"/>
        <pt x="830" y="1845" on="0"/>
        <pt x="852" y="1825" on="1"/>
        <pt x="910" y="1772" on="0"/>
        <pt x="957" y="1772" on="1"/>
        <pt x="989" y="1772" on="0"/>
        <pt x="1031" y="1821" on="0"/>
        <pt x="1056" y="1880" on="1"/>
        <pt x="1197" y="1880" on="1"/>
        <pt x="1154" y="1731" on="0"/>
        <pt x="1007" y="1579" on="0"/>
      </contour>
      <contour>
        <pt x="381" y="1059" on="1"/>
        <pt x="381" y="938" on="0"/>
        <pt x="351" y="799" on="1"/>
        <pt x="181" y="0" on="1"/>
        <pt x="-71" y="0" on="1"/>
        <pt x="240" y="1462" on="1"/>
        <pt x="574" y="1462" on="1"/>
        <pt x="799" y="414" on="1"/>
        <pt x="810" y="414" on="1"/>
        <pt x="813" y="513" on="0"/>
        <pt x="844" y="664" on="1"/>
        <pt x="1014" y="1462" on="1"/>
        <pt x="1264" y="1462" on="1"/>
        <pt x="953" y="0" on="1"/>
        <pt x="621" y="0" on="1"/>
        <pt x="394" y="1059" on="1"/>
      </contour>
    </TTGlyph>
    <TTGlyph name="O" xMin="50" yMin="-20" xMax="1170" yMax="1485">
      <contour>
        <pt x="85" y="735" on="1"/>
        <pt x="162" y="1099" on="0"/>
        <pt x="516" y="1485" on="0"/>
        <pt x="1025" y="1485" on="0"/>
        <pt x="1118" y="1290" on="1"/>
        <pt x="1170" y="1183" on="0"/>
        <pt x="1170" y="897" on="0"/>
        <pt x="1135" y="733" on="1"/>
        <pt x="1058" y="370" on="0"/>
        <pt x="703" y="-20" on="0"/>
        <pt x="197" y="-20" on="0"/>
        <pt x="101" y="174" on="1"/>
        <pt x="50" y="280" on="0"/>
        <pt x="50" y="569" on="0"/>
      </contour>
      <contour>
        <pt x="329" y="475" on="1"/>
        <pt x="329" y="221" on="0"/>
        <pt x="501" y="221" on="1"/>
        <pt x="748" y="221" on="0"/>
        <pt x="856" y="733" on="1"/>
        <pt x="890" y="892" on="0"/>
        <pt x="890" y="1001" on="1"/>
        <pt x="890" y="1245" on="0"/>
        <pt x="721" y="1245" on="1"/>
        <pt x="597" y="1245" on="0"/>
        <pt x="415" y="985" on="0"/>
        <pt x="362" y="733" on="1"/>
        <pt x="329" y="582" on="0"/>
      </contour>
    </TTGlyph>
    <TTGlyph name="OE" xMin="50" yMin="-20" xMax="1515" yMax="1485">
      <contour>
        <pt x="450" y="-20" on="1"/>
        <pt x="197" y="-20" on="0"/>
        <pt x="101" y="174" on="1"/>
        <pt x="50" y="280" on="0"/>
        <pt x="50" y="569" on="0"/>
        <pt x="85" y="735" on="1"/>
        <pt x="162" y="1099" on="0"/>
        <pt x="516" y="1485" on="0"/>
        <pt x="772" y="1485" on="1"/>
        <pt x="851" y="1485" on="0"/>
        <pt x="925" y="1462" on="1"/>
        <pt x="1515" y="1462" on="1"/>
        <pt x="1465" y="1227" on="1"/>
        <pt x="1082" y="1227" on="1"/>
        <pt x="1008" y="879" on="1"/>
        <pt x="1362" y="879" on="1"/>
        <pt x="1312" y="643" on="1"/>
        <pt x="958" y="643" on="1"/>
        <pt x="872" y="238" on="1"/>
        <pt x="1255" y="238" on="1"/>
        <pt x="1204" y="0" on="1"/>
        <pt x="604" y="0" on="1"/>
        <pt x="522" y="-20" on="0"/>
      </contour>
      <contour>
        <pt x="329" y="475" on="1"/>
        <pt x="329" y="221" on="0"/>
        <pt x="501" y="221" on="1"/>
        <pt x="556" y="221" on="0"/>
        <pt x="599" y="236" on="1"/>
        <pt x="811" y="1231" on="1"/>
        <pt x="766" y="1245" on="0"/>
        <pt x="721" y="1245" on="1"/>
        <pt x="597" y="1245" on="0"/>
        <pt x="415" y="985" on="0"/>
        <pt x="362" y="733" on="1"/>
        <pt x="329" y="582" on="0"/>
      </contour>
    </TTGlyph>
    <TTGlyph name="Oacute" xMin="5" yMin="-20" xMax="1172" yMax="1907">
      <contour>
        <pt x="1172" y="1907" on="1"/>
        <pt x="1167" y="1886" on="1"/>
        <pt x="1137" y="1846" on="0"/>
        <pt x="1019" y="1747" on="1"/>
        <pt x="910" y="1658" on="0"/>
        <pt x="799" y="1579" on="1"/>
        <pt x="612" y="1579" on="1"/>
        <pt x="618" y="1606" on="1"/>
        <pt x="670" y="1660" on="0"/>
        <pt x="817" y="1850" on="0"/>
        <pt x="854" y="1907" on="1"/>
      </contour>
      <contour>
        <pt x="40" y="735" on="1"/>
        <pt x="117" y="1099" on="0"/>
        <pt x="471" y="1485" on="0"/>
        <pt x="980" y="1485" on="0"/>
        <pt x="1074" y="1290" on="1"/>
        <pt x="1125" y="1183" on="0"/>
        <pt x="1125" y="897" on="0"/>
        <pt x="1090" y="733" on="1"/>
        <pt x="1014" y="371" on="0"/>
        <pt x="658" y="-20" on="0"/>
        <pt x="152" y="-20" on="0"/>
        <pt x="56" y="174" on="1"/>
        <pt x="5" y="280" on="0"/>
        <pt x="5" y="569" on="0"/>
      </contour>
      <contour>
        <pt x="284" y="475" on="1"/>
        <pt x="284" y="221" on="0"/>
        <pt x="456" y="221" on="1"/>
        <pt x="703" y="221" on="0"/>
        <pt x="811" y="733" on="1"/>
        <pt x="845" y="892" on="0"/>
        <pt x="845" y="1001" on="1"/>
        <pt x="845" y="1245" on="0"/>
        <pt x="676" y="1245" on="1"/>
        <pt x="552" y="1245" on="0"/>
        <pt x="370" y="985" on="0"/>
        <pt x="317" y="733" on="1"/>
        <pt x="284" y="582" on="0"/>
      </contour>
    </TTGlyph>
    <TTGlyph name="Ocircumflex" xMin="5" yMin="-20" xMax="1125" yMax="1907">
      <contour>
        <pt x="674" y="1907" on="1"/>
        <pt x="951" y="1907" on="1"/>
        <pt x="976" y="1827" on="0"/>
        <pt x="1104" y="1606" on="1"/>
        <pt x="1098" y="1579" on="1"/>
        <pt x="930" y="1579" on="1"/>
        <pt x="849" y="1651" on="0"/>
        <pt x="779" y="1757" on="1"/>
        <pt x="673" y="1660" on="0"/>
        <pt x="555" y="1579" on="1"/>
        <pt x="387" y="1579" on="1"/>
        <pt x="393" y="1606" on="1"/>
        <pt x="620" y="1833" on="0"/>
      </contour>
      <contour>
        <pt x="40" y="735" on="1"/>
        <pt x="117" y="1099" on="0"/>
        <pt x="471" y="1485" on="0"/>
        <pt x="980" y="1485" on="0"/>
        <pt x="1074" y="1290" on="1"/>
        <pt x="1125" y="1183" on="0"/>
        <pt x="1125" y="897" on="0"/>
        <pt x="1090" y="733" on="1"/>
        <pt x="1014" y="371" on="0"/>
        <pt x="658" y="-20" on="0"/>
        <pt x="152" y="-20" on="0"/>
        <pt x="56" y="174" on="1"/>
        <pt x="5" y="280" on="0"/>
        <pt x="5" y="569" on="0"/>
      </contour>
      <contour>
        <pt x="284" y="475" on="1"/>
        <pt x="284" y="221" on="0"/>
        <pt x="456" y="221" on="1"/>
        <pt x="703" y="221" on="0"/>
        <pt x="811" y="733" on="1"/>
        <pt x="845" y="892" on="0"/>
        <pt x="845" y="1001" on="1"/>
        <pt x="845" y="1245" on="0"/>
        <pt x="676" y="1245" on="1"/>
        <pt x="552" y="1245" on="0"/>
        <pt x="370" y="985" on="0"/>
        <pt x="317" y="733" on="1"/>
        <pt x="284" y="582" on="0"/>
      </contour>
    </TTGlyph>
    <TTGlyph name="Odieresis" xMin="9" yMin="-20" xMax="1129" yMax="1870">
      <contour>
        <pt x="547" y="1870" on="0"/>
        <pt x="671" y="1870" on="0"/>
        <pt x="699" y="1834" on="1"/>
        <pt x="718" y="1810" on="0"/>
        <pt x="718" y="1785" on="1"/>
        <pt x="718" y="1696" on="0"/>
        <pt x="659" y="1648" on="1"/>
        <pt x="616" y="1614" on="0"/>
        <pt x="492" y="1614" on="0"/>
        <pt x="464" y="1648" on="1"/>
        <pt x="445" y="1670" on="0"/>
        <pt x="445" y="1696" on="1"/>
        <pt x="445" y="1787" on="0"/>
        <pt x="505" y="1836" on="1"/>
      </contour>
      <contour>
        <pt x="860" y="1801" on="0"/>
        <pt x="945" y="1870" on="0"/>
        <pt x="1069" y="1870" on="0"/>
        <pt x="1098" y="1836" on="1"/>
        <pt x="1117" y="1812" on="0"/>
        <pt x="1117" y="1786" on="1"/>
        <pt x="1117" y="1695" on="0"/>
        <pt x="1058" y="1648" on="1"/>
        <pt x="1015" y="1614" on="0"/>
        <pt x="891" y="1614" on="0"/>
        <pt x="863" y="1648" on="1"/>
        <pt x="843" y="1673" on="0"/>
        <pt x="843" y="1708" on="1"/>
        <pt x="843" y="1724" on="0"/>
        <pt x="847" y="1741" on="1"/>
      </contour>
      <contour>
        <pt x="44" y="735" on="1"/>
        <pt x="121" y="1099" on="0"/>
        <pt x="475" y="1485" on="0"/>
        <pt x="984" y="1485" on="0"/>
        <pt x="1078" y="1290" on="1"/>
        <pt x="1129" y="1183" on="0"/>
        <pt x="1129" y="897" on="0"/>
        <pt x="1094" y="733" on="1"/>
        <pt x="1018" y="371" on="0"/>
        <pt x="840" y="175" on="1"/>
        <pt x="661" y="-20" on="0"/>
        <pt x="156" y="-20" on="0"/>
        <pt x="60" y="174" on="1"/>
        <pt x="9" y="280" on="0"/>
        <pt x="9" y="569" on="0"/>
      </contour>
      <contour>
        <pt x="288" y="475" on="1"/>
        <pt x="288" y="221" on="0"/>
        <pt x="460" y="221" on="1"/>
        <pt x="707" y="221" on="0"/>
        <pt x="815" y="733" on="1"/>
        <pt x="849" y="892" on="0"/>
        <pt x="849" y="1001" on="1"/>
        <pt x="849" y="1245" on="0"/>
        <pt x="680" y="1245" on="1"/>
        <pt x="556" y="1245" on="0"/>
        <pt x="374" y="985" on="0"/>
        <pt x="321" y="733" on="1"/>
        <pt x="288" y="582" on="0"/>
      </contour>
    </TTGlyph>
    <TTGlyph name="Ograve" xMin="5" yMin="-20" xMax="1125" yMax="1907">
      <contour>
        <pt x="449" y="1907" on="1"/>
        <pt x="767" y="1907" on="1"/>
        <pt x="780" y="1851" on="0"/>
        <pt x="846" y="1659" on="0"/>
        <pt x="875" y="1606" on="1"/>
        <pt x="869" y="1579" on="1"/>
        <pt x="682" y="1579" on="1"/>
        <pt x="614" y="1645" on="0"/>
        <pt x="460" y="1840" on="0"/>
        <pt x="444" y="1886" on="1"/>
      </contour>
      <contour>
        <pt x="40" y="735" on="1"/>
        <pt x="117" y="1099" on="0"/>
        <pt x="471" y="1485" on="0"/>
        <pt x="980" y="1485" on="0"/>
        <pt x="1074" y="1290" on="1"/>
        <pt x="1125" y="1183" on="0"/>
        <pt x="1125" y="897" on="0"/>
        <pt x="1090" y="733" on="1"/>
        <pt x="1014" y="371" on="0"/>
        <pt x="658" y="-20" on="0"/>
        <pt x="152" y="-20" on="0"/>
        <pt x="56" y="174" on="1"/>
        <pt x="5" y="280" on="0"/>
        <pt x="5" y="569" on="0"/>
      </contour>
      <contour>
        <pt x="284" y="475" on="1"/>
        <pt x="284" y="221" on="0"/>
        <pt x="456" y="221" on="1"/>
        <pt x="703" y="221" on="0"/>
        <pt x="811" y="733" on="1"/>
        <pt x="845" y="892" on="0"/>
        <pt x="845" y="1001" on="1"/>
        <pt x="845" y="1245" on="0"/>
        <pt x="676" y="1245" on="1"/>
        <pt x="552" y="1245" on="0"/>
        <pt x="370" y="985" on="0"/>
        <pt x="317" y="733" on="1"/>
        <pt x="284" y="582" on="0"/>
      </contour>
    </TTGlyph>
    <TTGlyph name="Oslash" xMin="-27" yMin="-102" xMax="1262" yMax="1559">
      <contour>
        <pt x="1120" y="1286" on="1"/>
        <pt x="1170" y="1180" on="0"/>
        <pt x="1170" y="896" on="0"/>
        <pt x="1136" y="733" on="1"/>
        <pt x="1060" y="370" on="0"/>
        <pt x="704" y="-20" on="0"/>
        <pt x="451" y="-20" on="1"/>
        <pt x="316" y="-20" on="0"/>
        <pt x="222" y="37" on="1"/>
        <pt x="122" y="-102" on="1"/>
        <pt x="-27" y="-25" on="1"/>
        <pt x="109" y="162" on="1"/>
        <pt x="5" y="354" on="0"/>
        <pt x="163" y="1099" on="0"/>
        <pt x="517" y="1485" on="0"/>
        <pt x="773" y="1485" on="1"/>
        <pt x="909" y="1485" on="0"/>
        <pt x="1010" y="1417" on="1"/>
        <pt x="1113" y="1559" on="1"/>
        <pt x="1262" y="1483" on="1"/>
      </contour>
      <contour>
        <pt x="722" y="1245" on="1"/>
        <pt x="598" y="1245" on="0"/>
        <pt x="416" y="985" on="0"/>
        <pt x="363" y="733" on="1"/>
        <pt x="330" y="576" on="0"/>
        <pt x="327" y="467" on="1"/>
        <pt x="853" y="1196" on="1"/>
        <pt x="811" y="1245" on="0"/>
      </contour>
      <contour>
        <pt x="502" y="221" on="1"/>
        <pt x="747" y="221" on="0"/>
        <pt x="857" y="733" on="1"/>
        <pt x="889" y="888" on="0"/>
        <pt x="895" y="969" on="1"/>
        <pt x="381" y="260" on="1"/>
        <pt x="422" y="221" on="0"/>
      </contour>
    </TTGlyph>
    <TTGlyph name="Otilde" xMin="8" yMin="-20" xMax="1168" yMax="1880">
      <contour>
        <pt x="885" y="1579" on="1"/>
        <pt x="824" y="1579" on="0"/>
        <pt x="774" y="1616" on="1"/>
        <pt x="754" y="1632" on="0"/>
        <pt x="735" y="1648" on="1"/>
        <pt x="690" y="1686" on="0"/>
        <pt x="620" y="1686" on="0"/>
        <pt x="573" y="1637" on="0"/>
        <pt x="551" y="1577" on="1"/>
        <pt x="410" y="1577" on="1"/>
        <pt x="453" y="1727" on="0"/>
        <pt x="598" y="1878" on="0"/>
        <pt x="693" y="1878" on="1"/>
        <pt x="732" y="1878" on="0"/>
        <pt x="802" y="1845" on="0"/>
        <pt x="824" y="1825" on="1"/>
        <pt x="880" y="1772" on="0"/>
        <pt x="928" y="1772" on="1"/>
        <pt x="960" y="1772" on="0"/>
        <pt x="1002" y="1821" on="0"/>
        <pt x="1027" y="1880" on="1"/>
        <pt x="1168" y="1880" on="1"/>
        <pt x="1125" y="1731" on="0"/>
        <pt x="978" y="1579" on="0"/>
      </contour>
      <contour>
        <pt x="43" y="735" on="1"/>
        <pt x="120" y="1099" on="0"/>
        <pt x="474" y="1485" on="0"/>
        <pt x="983" y="1485" on="0"/>
        <pt x="1077" y="1290" on="1"/>
        <pt x="1128" y="1183" on="0"/>
        <pt x="1128" y="897" on="0"/>
        <pt x="1093" y="733" on="1"/>
        <pt x="1017" y="371" on="0"/>
        <pt x="839" y="175" on="1"/>
        <pt x="660" y="-20" on="0"/>
        <pt x="155" y="-20" on="0"/>
        <pt x="59" y="174" on="1"/>
        <pt x="8" y="280" on="0"/>
        <pt x="8" y="569" on="0"/>
      </contour>
      <contour>
        <pt x="287" y="475" on="1"/>
        <pt x="287" y="221" on="0"/>
        <pt x="459" y="221" on="1"/>
        <pt x="706" y="221" on="0"/>
        <pt x="814" y="733" on="1"/>
        <pt x="848" y="892" on="0"/>
        <pt x="848" y="1001" on="1"/>
        <pt x="848" y="1245" on="0"/>
        <pt x="679" y="1245" on="1"/>
        <pt x="555" y="1245" on="0"/>
        <pt x="373" y="985" on="0"/>
        <pt x="320" y="733" on="1"/>
        <pt x="287" y="582" on="0"/>
      </contour>
    </TTGlyph>
    <TTGlyph name="P" xMin="-26" yMin="0" xMax="1003" yMax="1462">
      <contour>
        <pt x="655" y="1462" on="1"/>
        <pt x="1003" y="1462" on="0"/>
        <pt x="1003" y="1160" on="1"/>
        <pt x="1003" y="1094" on="0"/>
        <pt x="986" y="1012" on="1"/>
        <pt x="936" y="779" on="0"/>
        <pt x="648" y="530" on="0"/>
        <pt x="426" y="530" on="1"/>
        <pt x="358" y="530" on="1"/>
        <pt x="246" y="0" on="1"/>
        <pt x="-26" y="0" on="1"/>
        <pt x="284" y="1462" on="1"/>
      </contour>
      <contour>
        <pt x="460" y="766" on="1"/>
        <pt x="561" y="766" on="0"/>
        <pt x="682" y="878" on="0"/>
        <pt x="708" y="1001" on="1"/>
        <pt x="719" y="1050" on="0"/>
        <pt x="719" y="1140" on="0"/>
        <pt x="700" y="1172" on="1"/>
        <pt x="666" y="1227" on="0"/>
        <pt x="572" y="1227" on="1"/>
        <pt x="506" y="1227" on="1"/>
        <pt x="408" y="766" on="1"/>
      </contour>
    </TTGlyph>
    <TTGlyph name="Q" xMin="84" yMin="-348" xMax="1205" yMax="1485">
      <contour>
        <pt x="485" y="-20" on="1"/>
        <pt x="232" y="-20" on="0"/>
        <pt x="136" y="174" on="1"/>
        <pt x="84" y="281" on="0"/>
        <pt x="84" y="570" on="0"/>
        <pt x="119" y="735" on="1"/>
        <pt x="197" y="1099" on="0"/>
        <pt x="551" y="1485" on="0"/>
        <pt x="1060" y="1485" on="0"/>
        <pt x="1153" y="1290" on="1"/>
        <pt x="1205" y="1184" on="0"/>
        <pt x="1205" y="897" on="0"/>
        <pt x="1170" y="733" on="1"/>
        <pt x="1117" y="482" on="0"/>
        <pt x="910" y="136" on="0"/>
        <pt x="762" y="51" on="1"/>
        <pt x="946" y="-348" on="1"/>
        <pt x="632" y="-348" on="1"/>
        <pt x="500" y="-20" on="1"/>
      </contour>
      <contour>
        <pt x="364" y="475" on="1"/>
        <pt x="364" y="221" on="0"/>
        <pt x="536" y="221" on="1"/>
        <pt x="781" y="221" on="0"/>
        <pt x="891" y="733" on="1"/>
        <pt x="924" y="891" on="0"/>
        <pt x="924" y="1000" on="1"/>
        <pt x="924" y="1245" on="0"/>
        <pt x="756" y="1245" on="1"/>
        <pt x="632" y="1245" on="0"/>
        <pt x="450" y="985" on="0"/>
        <pt x="397" y="733" on="1"/>
        <pt x="364" y="582" on="0"/>
      </contour>
    </TTGlyph>
    <TTGlyph name="R" xMin="-26" yMin="0" xMax="1006" yMax="1462">
      <contour>
        <pt x="640" y="1462" on="1"/>
        <pt x="865" y="1462" on="0"/>
        <pt x="950" y="1355" on="1"/>
        <pt x="1006" y="1286" on="0"/>
        <pt x="1006" y="1170" on="1"/>
        <pt x="1006" y="1106" on="0"/>
        <pt x="989" y="1028" on="1"/>
        <pt x="931" y="751" on="0"/>
        <pt x="720" y="641" on="1"/>
        <pt x="865" y="0" on="1"/>
        <pt x="574" y="0" on="1"/>
        <pt x="464" y="569" on="1"/>
        <pt x="367" y="569" on="1"/>
        <pt x="246" y="0" on="1"/>
        <pt x="-26" y="0" on="1"/>
        <pt x="284" y="1462" on="1"/>
      </contour>
      <contour>
        <pt x="486" y="803" on="1"/>
        <pt x="580" y="803" on="0"/>
        <pt x="689" y="910" on="0"/>
        <pt x="712" y="1020" on="1"/>
        <pt x="722" y="1066" on="0"/>
        <pt x="722" y="1108" on="1"/>
        <pt x="722" y="1227" on="0"/>
        <pt x="574" y="1227" on="1"/>
        <pt x="506" y="1227" on="1"/>
        <pt x="416" y="803" on="1"/>
      </contour>
    </TTGlyph>
    <TTGlyph name="S" xMin="-76" yMin="-20" xMax="928" yMax="1483">
      <contour>
        <pt x="260" y="217" on="1"/>
        <pt x="337" y="217" on="0"/>
        <pt x="435" y="301" on="0"/>
        <pt x="451" y="377" on="1"/>
        <pt x="456" y="399" on="0"/>
        <pt x="456" y="420" on="1"/>
        <pt x="456" y="468" on="0"/>
        <pt x="432" y="510" on="1"/>
        <pt x="400" y="569" on="0"/>
        <pt x="229" y="706" on="0"/>
        <pt x="154" y="827" on="0"/>
        <pt x="142" y="903" on="1"/>
        <pt x="139" y="927" on="0"/>
        <pt x="139" y="1009" on="0"/>
        <pt x="153" y="1075" on="1"/>
        <pt x="194" y="1263" on="0"/>
        <pt x="320" y="1373" on="1"/>
        <pt x="450" y="1483" on="0"/>
        <pt x="794" y="1483" on="0"/>
        <pt x="928" y="1389" on="1"/>
        <pt x="791" y="1171" on="1"/>
        <pt x="682" y="1243" on="0"/>
        <pt x="594" y="1243" on="1"/>
        <pt x="529" y="1243" on="0"/>
        <pt x="439" y="1157" on="0"/>
        <pt x="422" y="1081" on="1"/>
        <pt x="417" y="1056" on="0"/>
        <pt x="417" y="989" on="0"/>
        <pt x="437" y="952" on="1"/>
        <pt x="468" y="897" on="0"/>
        <pt x="559" y="827" on="1"/>
        <pt x="683" y="730" on="0"/>
        <pt x="717" y="631" on="1"/>
        <pt x="737" y="574" on="0"/>
        <pt x="737" y="458" on="0"/>
        <pt x="725" y="403" on="1"/>
        <pt x="681" y="198" on="0"/>
        <pt x="428" y="-20" on="0"/>
        <pt x="42" y="-20" on="0"/>
        <pt x="-76" y="55" on="1"/>
        <pt x="-19" y="324" on="1"/>
        <pt x="123" y="217" on="0"/>
      </contour>
    </TTGlyph>
    <TTGlyph name="Scaron" xMin="-121" yMin="-20" xMax="997" yMax="1907">
      <contour>
        <pt x="997" y="1907" on="1"/>
        <pt x="991" y="1880" on="1"/>
        <pt x="779" y="1668" on="0"/>
        <pt x="710" y="1579" on="1"/>
        <pt x="433" y="1579" on="1"/>
        <pt x="410" y="1655" on="0"/>
        <pt x="280" y="1880" on="1"/>
        <pt x="286" y="1907" on="1"/>
        <pt x="454" y="1907" on="1"/>
        <pt x="535" y="1836" on="0"/>
        <pt x="606" y="1729" on="1"/>
        <pt x="721" y="1832" on="0"/>
        <pt x="829" y="1907" on="1"/>
      </contour>
      <contour>
        <pt x="215" y="217" on="1"/>
        <pt x="292" y="217" on="0"/>
        <pt x="390" y="301" on="0"/>
        <pt x="406" y="377" on="1"/>
        <pt x="411" y="399" on="0"/>
        <pt x="411" y="420" on="1"/>
        <pt x="411" y="468" on="0"/>
        <pt x="387" y="510" on="1"/>
        <pt x="355" y="569" on="0"/>
        <pt x="184" y="706" on="0"/>
        <pt x="109" y="827" on="0"/>
        <pt x="97" y="903" on="1"/>
        <pt x="94" y="927" on="0"/>
        <pt x="94" y="1009" on="0"/>
        <pt x="108" y="1075" on="1"/>
        <pt x="149" y="1263" on="0"/>
        <pt x="275" y="1373" on="1"/>
        <pt x="405" y="1483" on="0"/>
        <pt x="749" y="1483" on="0"/>
        <pt x="883" y="1389" on="1"/>
        <pt x="746" y="1171" on="1"/>
        <pt x="637" y="1243" on="0"/>
        <pt x="549" y="1243" on="1"/>
        <pt x="484" y="1243" on="0"/>
        <pt x="393" y="1157" on="0"/>
        <pt x="377" y="1081" on="1"/>
        <pt x="372" y="1056" on="0"/>
        <pt x="372" y="989" on="0"/>
        <pt x="392" y="952" on="1"/>
        <pt x="423" y="897" on="0"/>
        <pt x="514" y="827" on="1"/>
        <pt x="638" y="730" on="0"/>
        <pt x="672" y="631" on="1"/>
        <pt x="692" y="574" on="0"/>
        <pt x="692" y="458" on="0"/>
        <pt x="680" y="403" on="1"/>
        <pt x="636" y="198" on="0"/>
        <pt x="383" y="-20" on="0"/>
        <pt x="-2" y="-20" on="0"/>
        <pt x="-121" y="55" on="1"/>
        <pt x="-64" y="324" on="1"/>
        <pt x="78" y="217" on="0"/>
      </contour>
    </TTGlyph>
    <TTGlyph name="T" xMin="132" yMin="0" xMax="1013" yMax="1462">
      <contour>
        <pt x="963" y="1223" on="1"/>
        <pt x="683" y="1223" on="1"/>
        <pt x="423" y="0" on="1"/>
        <pt x="152" y="0" on="1"/>
        <pt x="412" y="1223" on="1"/>
        <pt x="132" y="1223" on="1"/>
        <pt x="182" y="1462" on="1"/>
        <pt x="1013" y="1462" on="1"/>
      </contour>
    </TTGlyph>
    <TTGlyph name="Thorn" xMin="-26" yMin="0" xMax="954" yMax="1462">
      <contour>
        <pt x="604" y="1229" on="1"/>
        <pt x="954" y="1229" on="0"/>
        <pt x="954" y="928" on="1"/>
        <pt x="954" y="861" on="0"/>
        <pt x="936" y="778" on="1"/>
        <pt x="886" y="544" on="0"/>
        <pt x="598" y="295" on="0"/>
        <pt x="376" y="295" on="1"/>
        <pt x="308" y="295" on="1"/>
        <pt x="246" y="0" on="1"/>
        <pt x="-26" y="0" on="1"/>
        <pt x="284" y="1462" on="1"/>
        <pt x="556" y="1462" on="1"/>
        <pt x="507" y="1229" on="1"/>
      </contour>
      <contour>
        <pt x="410" y="530" on="1"/>
        <pt x="511" y="530" on="0"/>
        <pt x="632" y="644" on="0"/>
        <pt x="659" y="768" on="1"/>
        <pt x="669" y="815" on="0"/>
        <pt x="669" y="853" on="1"/>
        <pt x="669" y="995" on="0"/>
        <pt x="525" y="995" on="1"/>
        <pt x="457" y="995" on="1"/>
        <pt x="358" y="530" on="1"/>
      </contour>
    </TTGlyph>
    <TTGlyph name="U" xMin="58" yMin="-20" xMax="1186" yMax="1462">
      <contour>
        <pt x="929" y="255" on="0"/>
        <pt x="634" y="-20" on="0"/>
        <pt x="192" y="-20" on="0"/>
        <pt x="108" y="116" on="1"/>
        <pt x="58" y="198" on="0"/>
        <pt x="58" y="327" on="1"/>
        <pt x="58" y="413" on="0"/>
        <pt x="80" y="520" on="1"/>
        <pt x="281" y="1462" on="1"/>
        <pt x="551" y="1462" on="1"/>
        <pt x="346" y="500" on="1"/>
        <pt x="331" y="432" on="0"/>
        <pt x="331" y="380" on="1"/>
        <pt x="331" y="221" on="0"/>
        <pt x="472" y="221" on="1"/>
        <pt x="558" y="221" on="0"/>
        <pt x="682" y="363" on="0"/>
        <pt x="710" y="494" on="1"/>
        <pt x="916" y="1462" on="1"/>
        <pt x="1186" y="1462" on="1"/>
        <pt x="984" y="516" on="1"/>
      </contour>
    </TTGlyph>
    <TTGlyph name="Uacute" xMin="10" yMin="-20" xMax="1139" yMax="1907">
      <contour>
        <pt x="1139" y="1907" on="1"/>
        <pt x="1134" y="1886" on="1"/>
        <pt x="1104" y="1846" on="0"/>
        <pt x="986" y="1747" on="1"/>
        <pt x="877" y="1658" on="0"/>
        <pt x="766" y="1579" on="1"/>
        <pt x="579" y="1579" on="1"/>
        <pt x="585" y="1606" on="1"/>
        <pt x="637" y="1660" on="0"/>
        <pt x="784" y="1850" on="0"/>
        <pt x="821" y="1907" on="1"/>
      </contour>
      <contour>
        <pt x="882" y="255" on="0"/>
        <pt x="587" y="-20" on="0"/>
        <pt x="145" y="-20" on="0"/>
        <pt x="60" y="117" on="1"/>
        <pt x="10" y="199" on="0"/>
        <pt x="10" y="327" on="1"/>
        <pt x="10" y="413" on="0"/>
        <pt x="33" y="520" on="1"/>
        <pt x="233" y="1462" on="1"/>
        <pt x="503" y="1462" on="1"/>
        <pt x="299" y="500" on="1"/>
        <pt x="284" y="432" on="0"/>
        <pt x="284" y="380" on="1"/>
        <pt x="284" y="221" on="0"/>
        <pt x="424" y="221" on="1"/>
        <pt x="510" y="221" on="0"/>
        <pt x="634" y="363" on="0"/>
        <pt x="662" y="494" on="1"/>
        <pt x="868" y="1462" on="1"/>
        <pt x="1138" y="1462" on="1"/>
        <pt x="937" y="516" on="1"/>
      </contour>
    </TTGlyph>
    <TTGlyph name="Ucircumflex" xMin="10" yMin="-20" xMax="1138" yMax="1907">
      <contour>
        <pt x="641" y="1907" on="1"/>
        <pt x="918" y="1907" on="1"/>
        <pt x="943" y="1827" on="0"/>
        <pt x="1071" y="1606" on="1"/>
        <pt x="1065" y="1579" on="1"/>
        <pt x="897" y="1579" on="1"/>
        <pt x="816" y="1651" on="0"/>
        <pt x="746" y="1757" on="1"/>
        <pt x="640" y="1660" on="0"/>
        <pt x="522" y="1579" on="1"/>
        <pt x="354" y="1579" on="1"/>
        <pt x="360" y="1606" on="1"/>
        <pt x="587" y="1833" on="0"/>
      </contour>
      <contour>
        <pt x="882" y="255" on="0"/>
        <pt x="587" y="-20" on="0"/>
        <pt x="145" y="-20" on="0"/>
        <pt x="60" y="117" on="1"/>
        <pt x="10" y="199" on="0"/>
        <pt x="10" y="327" on="1"/>
        <pt x="10" y="413" on="0"/>
        <pt x="33" y="520" on="1"/>
        <pt x="233" y="1462" on="1"/>
        <pt x="503" y="1462" on="1"/>
        <pt x="299" y="500" on="1"/>
        <pt x="284" y="432" on="0"/>
        <pt x="284" y="380" on="1"/>
        <pt x="284" y="221" on="0"/>
        <pt x="424" y="221" on="1"/>
        <pt x="510" y="221" on="0"/>
        <pt x="634" y="363" on="0"/>
        <pt x="662" y="494" on="1"/>
        <pt x="868" y="1462" on="1"/>
        <pt x="1138" y="1462" on="1"/>
        <pt x="937" y="516" on="1"/>
      </contour>
    </TTGlyph>
    <TTGlyph name="Udieresis" xMin="14" yMin="-20" xMax="1142" yMax="1870">
      <contour>
        <pt x="514" y="1870" on="0"/>
        <pt x="638" y="1870" on="0"/>
        <pt x="666" y="1834" on="1"/>
        <pt x="685" y="1810" on="0"/>
        <pt x="685" y="1785" on="1"/>
        <pt x="685" y="1696" on="0"/>
        <pt x="626" y="1648" on="1"/>
        <pt x="583" y="1614" on="0"/>
        <pt x="459" y="1614" on="0"/>
        <pt x="431" y="1648" on="1"/>
        <pt x="412" y="1670" on="0"/>
        <pt x="412" y="1696" on="1"/>
        <pt x="412" y="1787" on="0"/>
        <pt x="472" y="1836" on="1"/>
      </contour>
      <contour>
        <pt x="827" y="1801" on="0"/>
        <pt x="912" y="1870" on="0"/>
        <pt x="1036" y="1870" on="0"/>
        <pt x="1064" y="1836" on="1"/>
        <pt x="1084" y="1812" on="0"/>
        <pt x="1084" y="1786" on="1"/>
        <pt x="1084" y="1695" on="0"/>
        <pt x="1025" y="1648" on="1"/>
        <pt x="982" y="1614" on="0"/>
        <pt x="858" y="1614" on="0"/>
        <pt x="830" y="1648" on="1"/>
        <pt x="810" y="1673" on="0"/>
        <pt x="810" y="1708" on="1"/>
        <pt x="810" y="1724" on="0"/>
        <pt x="814" y="1741" on="1"/>
      </contour>
      <contour>
        <pt x="886" y="255" on="0"/>
        <pt x="591" y="-20" on="0"/>
        <pt x="149" y="-20" on="0"/>
        <pt x="64" y="117" on="1"/>
        <pt x="14" y="199" on="0"/>
        <pt x="14" y="327" on="1"/>
        <pt x="14" y="413" on="0"/>
        <pt x="37" y="520" on="1"/>
        <pt x="237" y="1462" on="1"/>
        <pt x="507" y="1462" on="1"/>
        <pt x="303" y="500" on="1"/>
        <pt x="288" y="432" on="0"/>
        <pt x="288" y="380" on="1"/>
        <pt x="288" y="221" on="0"/>
        <pt x="428" y="221" on="1"/>
        <pt x="514" y="221" on="0"/>
        <pt x="638" y="363" on="0"/>
        <pt x="666" y="494" on="1"/>
        <pt x="872" y="1462" on="1"/>
        <pt x="1142" y="1462" on="1"/>
        <pt x="941" y="516" on="1"/>
      </contour>
    </TTGlyph>
    <TTGlyph name="Ugrave" xMin="10" yMin="-20" xMax="1138" yMax="1907">
      <contour>
        <pt x="415" y="1907" on="1"/>
        <pt x="733" y="1907" on="1"/>
        <pt x="746" y="1851" on="0"/>
        <pt x="812" y="1659" on="0"/>
        <pt x="841" y="1606" on="1"/>
        <pt x="835" y="1579" on="1"/>
        <pt x="648" y="1579" on="1"/>
        <pt x="580" y="1645" on="0"/>
        <pt x="426" y="1840" on="0"/>
        <pt x="410" y="1886" on="1"/>
      </contour>
      <contour>
        <pt x="882" y="255" on="0"/>
        <pt x="587" y="-20" on="0"/>
        <pt x="145" y="-20" on="0"/>
        <pt x="60" y="117" on="1"/>
        <pt x="10" y="199" on="0"/>
        <pt x="10" y="327" on="1"/>
        <pt x="10" y="413" on="0"/>
        <pt x="33" y="520" on="1"/>
        <pt x="233" y="1462" on="1"/>
        <pt x="503" y="1462" on="1"/>
        <pt x="299" y="500" on="1"/>
        <pt x="284" y="432" on="0"/>
        <pt x="284" y="380" on="1"/>
        <pt x="284" y="221" on="0"/>
        <pt x="424" y="221" on="1"/>
        <pt x="510" y="221" on="0"/>
        <pt x="634" y="363" on="0"/>
        <pt x="662" y="494" on="1"/>
        <pt x="868" y="1462" on="1"/>
        <pt x="1138" y="1462" on="1"/>
        <pt x="937" y="516" on="1"/>
      </contour>
    </TTGlyph>
    <TTGlyph name="V" xMin="155" yMin="0" xMax="1187" yMax="1462">
      <contour>
        <pt x="431" y="1462" on="1"/>
        <pt x="431" y="569" on="1"/>
        <pt x="431" y="450" on="0"/>
        <pt x="412" y="242" on="1"/>
        <pt x="472" y="424" on="0"/>
        <pt x="535" y="569" on="1"/>
        <pt x="913" y="1462" on="1"/>
        <pt x="1187" y="1462" on="1"/>
        <pt x="533" y="0" on="1"/>
        <pt x="187" y="0" on="1"/>
        <pt x="155" y="1462" on="1"/>
      </contour>
    </TTGlyph>
    <TTGlyph name="W" xMin="128" yMin="0" xMax="1759" yMax="1462">
      <contour>
        <pt x="1186" y="0" on="1"/>
        <pt x="846" y="0" on="1"/>
        <pt x="865" y="766" on="1"/>
        <pt x="867" y="930" on="0"/>
        <pt x="897" y="1137" on="1"/>
        <pt x="874" y="1063" on="1"/>
        <pt x="769" y="762" on="1"/>
        <pt x="468" y="0" on="1"/>
        <pt x="128" y="0" on="1"/>
        <pt x="173" y="1462" on="1"/>
        <pt x="440" y="1462" on="1"/>
        <pt x="396" y="637" on="1"/>
        <pt x="387" y="487" on="0"/>
        <pt x="364" y="248" on="1"/>
        <pt x="450" y="527" on="0"/>
        <pt x="493" y="631" on="1"/>
        <pt x="825" y="1462" on="1"/>
        <pt x="1107" y="1462" on="1"/>
        <pt x="1087" y="631" on="1"/>
        <pt x="1080" y="464" on="0"/>
        <pt x="1054" y="246" on="1"/>
        <pt x="1151" y="539" on="0"/>
        <pt x="1188" y="637" on="1"/>
        <pt x="1490" y="1462" on="1"/>
        <pt x="1759" y="1462" on="1"/>
      </contour>
    </TTGlyph>
    <TTGlyph name="X" xMin="-155" yMin="0" xMax="1099" yMax="1462">
      <contour>
        <pt x="639" y="748" on="1"/>
        <pt x="814" y="0" on="1"/>
        <pt x="531" y="0" on="1"/>
        <pt x="433" y="524" on="1"/>
        <pt x="128" y="0" on="1"/>
        <pt x="-155" y="0" on="1"/>
        <pt x="340" y="760" on="1"/>
        <pt x="180" y="1462" on="1"/>
        <pt x="454" y="1462" on="1"/>
        <pt x="545" y="981" on="1"/>
        <pt x="814" y="1462" on="1"/>
        <pt x="1099" y="1462" on="1"/>
      </contour>
    </TTGlyph>
    <TTGlyph name="Y" xMin="155" yMin="0" xMax="1116" yMax="1462">
      <contour>
        <pt x="583" y="586" on="1"/>
        <pt x="459" y="0" on="1"/>
        <pt x="191" y="0" on="1"/>
        <pt x="313" y="575" on="1"/>
        <pt x="155" y="1462" on="1"/>
        <pt x="442" y="1462" on="1"/>
        <pt x="514" y="885" on="1"/>
        <pt x="831" y="1462" on="1"/>
        <pt x="1116" y="1462" on="1"/>
      </contour>
    </TTGlyph>
    <TTGlyph name="Yacute" xMin="108" yMin="0" xMax="1069" yMax="1907">
      <contour>
        <pt x="1039" y="1907" on="1"/>
        <pt x="1034" y="1886" on="1"/>
        <pt x="1004" y="1846" on="0"/>
        <pt x="886" y="1747" on="1"/>
        <pt x="777" y="1658" on="0"/>
        <pt x="666" y="1579" on="1"/>
        <pt x="479" y="1579" on="1"/>
        <pt x="485" y="1606" on="1"/>
        <pt x="537" y="1660" on="0"/>
        <pt x="684" y="1850" on="0"/>
        <pt x="721" y="1907" on="1"/>
      </contour>
      <contour>
        <pt x="536" y="586" on="1"/>
        <pt x="411" y="0" on="1"/>
        <pt x="143" y="0" on="1"/>
        <pt x="266" y="575" on="1"/>
        <pt x="108" y="1462" on="1"/>
        <pt x="395" y="1462" on="1"/>
        <pt x="466" y="885" on="1"/>
        <pt x="784" y="1462" on="1"/>
        <pt x="1069" y="1462" on="1"/>
      </contour>
    </TTGlyph>
    <TTGlyph name="Ydieresis" xMin="112" yMin="0" xMax="1073" yMax="1870">
      <contour>
        <pt x="419" y="1870" on="0"/>
        <pt x="543" y="1870" on="0"/>
        <pt x="571" y="1834" on="1"/>
        <pt x="590" y="1810" on="0"/>
        <pt x="590" y="1785" on="1"/>
        <pt x="590" y="1696" on="0"/>
        <pt x="531" y="1648" on="1"/>
        <pt x="488" y="1614" on="0"/>
        <pt x="364" y="1614" on="0"/>
        <pt x="336" y="1648" on="1"/>
        <pt x="317" y="1670" on="0"/>
        <pt x="317" y="1696" on="1"/>
        <pt x="317" y="1787" on="0"/>
        <pt x="377" y="1836" on="1"/>
      </contour>
      <contour>
        <pt x="732" y="1801" on="0"/>
        <pt x="817" y="1870" on="0"/>
        <pt x="941" y="1870" on="0"/>
        <pt x="970" y="1836" on="1"/>
        <pt x="989" y="1812" on="0"/>
        <pt x="989" y="1786" on="1"/>
        <pt x="989" y="1695" on="0"/>
        <pt x="930" y="1648" on="1"/>
        <pt x="887" y="1614" on="0"/>
        <pt x="763" y="1614" on="0"/>
        <pt x="735" y="1648" on="1"/>
        <pt x="715" y="1673" on="0"/>
        <pt x="715" y="1708" on="1"/>
        <pt x="715" y="1724" on="0"/>
        <pt x="719" y="1741" on="1"/>
      </contour>
      <contour>
        <pt x="540" y="586" on="1"/>
        <pt x="415" y="0" on="1"/>
        <pt x="147" y="0" on="1"/>
        <pt x="269" y="575" on="1"/>
        <pt x="112" y="1462" on="1"/>
        <pt x="399" y="1462" on="1"/>
        <pt x="470" y="885" on="1"/>
        <pt x="788" y="1462" on="1"/>
        <pt x="1073" y="1462" on="1"/>
      </contour>
    </TTGlyph>
    <TTGlyph name="Z" xMin="-112" yMin="0" xMax="974" yMax="1462">
      <contour>
        <pt x="934" y="1272" on="1"/>
        <pt x="247" y="238" on="1"/>
        <pt x="729" y="238" on="1"/>
        <pt x="679" y="0" on="1"/>
        <pt x="-112" y="0" on="1"/>
        <pt x="-72" y="190" on="1"/>
        <pt x="615" y="1225" on="1"/>
        <pt x="162" y="1225" on="1"/>
        <pt x="212" y="1462" on="1"/>
        <pt x="974" y="1462" on="1"/>
      </contour>
    </TTGlyph>
    <TTGlyph name="Zcaron" xMin="-160" yMin="0" xMax="995" yMax="1907">
      <contour>
        <pt x="995" y="1907" on="1"/>
        <pt x="989" y="1880" on="1"/>
        <pt x="782" y="1674" on="0"/>
        <pt x="708" y="1579" on="1"/>
        <pt x="431" y="1579" on="1"/>
        <pt x="408" y="1655" on="0"/>
        <pt x="278" y="1880" on="1"/>
        <pt x="284" y="1907" on="1"/>
        <pt x="452" y="1907" on="1"/>
        <pt x="533" y="1836" on="0"/>
        <pt x="604" y="1729" on="1"/>
        <pt x="719" y="1832" on="0"/>
        <pt x="827" y="1907" on="1"/>
      </contour>
      <contour>
        <pt x="887" y="1272" on="1"/>
        <pt x="200" y="238" on="1"/>
        <pt x="682" y="238" on="1"/>
        <pt x="631" y="0" on="1"/>
        <pt x="-160" y="0" on="1"/>
        <pt x="-119" y="190" on="1"/>
        <pt x="568" y="1225" on="1"/>
        <pt x="115" y="1225" on="1"/>
        <pt x="165" y="1462" on="1"/>
        <pt x="927" y="1462" on="1"/>
      </contour>
    </TTGlyph>
    <TTGlyph name="a" xMin="-29" yMin="-20" xMax="908" yMax="1137">
      <contour>
        <pt x="232" y="1032" on="1"/>
        <pt x="421" y="1137" on="0"/>
        <pt x="791" y="1137" on="0"/>
        <pt x="862" y="1036" on="1"/>
        <pt x="908" y="971" on="0"/>
        <pt x="908" y="871" on="1"/>
        <pt x="908" y="815" on="0"/>
        <pt x="894" y="748" on="1"/>
        <pt x="735" y="0" on="1"/>
        <pt x="540" y="0" on="1"/>
        <pt x="520" y="152" on="1"/>
        <pt x="514" y="152" on="1"/>
        <pt x="435" y="55" on="0"/>
        <pt x="293" y="-20" on="0"/>
        <pt x="196" y="-20" on="1"/>
        <pt x="73" y="-20" on="0"/>
        <pt x="22" y="72" on="1"/>
        <pt x="-29" y="163" on="0"/>
        <pt x="43" y="502" on="0"/>
        <pt x="271" y="675" on="0"/>
        <pt x="467" y="684" on="1"/>
        <pt x="616" y="690" on="1"/>
        <pt x="633" y="770" on="1"/>
        <pt x="639" y="801" on="0"/>
        <pt x="639" y="825" on="1"/>
        <pt x="639" y="926" on="0"/>
        <pt x="531" y="926" on="1"/>
        <pt x="432" y="926" on="0"/>
        <pt x="285" y="848" on="1"/>
      </contour>
      <contour>
        <pt x="274" y="269" on="1"/>
        <pt x="274" y="188" on="0"/>
        <pt x="422" y="188" on="0"/>
        <pt x="537" y="319" on="0"/>
        <pt x="560" y="428" on="1"/>
        <pt x="580" y="522" on="1"/>
        <pt x="497" y="518" on="1"/>
        <pt x="406" y="513" on="0"/>
        <pt x="301" y="419" on="0"/>
        <pt x="281" y="326" on="1"/>
        <pt x="274" y="294" on="0"/>
      </contour>
    </TTGlyph>
    <TTGlyph name="aacute" xMin="-54" yMin="-20" xMax="1021" yMax="1569">
      <contour>
        <pt x="1021" y="1569" on="1"/>
        <pt x="1016" y="1548" on="1"/>
        <pt x="986" y="1508" on="0"/>
        <pt x="868" y="1409" on="1"/>
        <pt x="750" y="1312" on="0"/>
        <pt x="648" y="1241" on="1"/>
        <pt x="461" y="1241" on="1"/>
        <pt x="467" y="1268" on="1"/>
        <pt x="519" y="1322" on="0"/>
        <pt x="666" y="1512" on="0"/>
        <pt x="703" y="1569" on="1"/>
      </contour>
      <contour>
        <pt x="186" y="1032" on="1"/>
        <pt x="375" y="1137" on="0"/>
        <pt x="745" y="1137" on="0"/>
        <pt x="816" y="1036" on="1"/>
        <pt x="862" y="971" on="0"/>
        <pt x="862" y="871" on="1"/>
        <pt x="862" y="815" on="0"/>
        <pt x="848" y="748" on="1"/>
        <pt x="689" y="0" on="1"/>
        <pt x="494" y="0" on="1"/>
        <pt x="474" y="152" on="1"/>
        <pt x="468" y="152" on="1"/>
        <pt x="389" y="55" on="0"/>
        <pt x="247" y="-20" on="0"/>
        <pt x="150" y="-20" on="1"/>
        <pt x="27" y="-20" on="0"/>
        <pt x="-24" y="72" on="1"/>
        <pt x="-54" y="126" on="0"/>
        <pt x="-54" y="261" on="0"/>
        <pt x="-40" y="328" on="1"/>
        <pt x="-3" y="502" on="0"/>
        <pt x="225" y="675" on="0"/>
        <pt x="421" y="684" on="1"/>
        <pt x="570" y="690" on="1"/>
        <pt x="587" y="770" on="1"/>
        <pt x="593" y="801" on="0"/>
        <pt x="593" y="825" on="1"/>
        <pt x="593" y="926" on="0"/>
        <pt x="485" y="926" on="1"/>
        <pt x="386" y="926" on="0"/>
        <pt x="239" y="848" on="1"/>
      </contour>
      <contour>
        <pt x="228" y="269" on="1"/>
        <pt x="228" y="188" on="0"/>
        <pt x="376" y="188" on="0"/>
        <pt x="492" y="319" on="0"/>
        <pt x="514" y="428" on="1"/>
        <pt x="534" y="522" on="1"/>
        <pt x="451" y="518" on="1"/>
        <pt x="360" y="513" on="0"/>
        <pt x="255" y="419" on="0"/>
        <pt x="235" y="326" on="1"/>
        <pt x="228" y="294" on="0"/>
      </contour>
    </TTGlyph>
    <TTGlyph name="acircumflex" xMin="-54" yMin="-20" xMax="956" yMax="1568">
      <contour>
        <pt x="526" y="1568" on="1"/>
        <pt x="803" y="1568" on="1"/>
        <pt x="828" y="1488" on="0"/>
        <pt x="956" y="1267" on="1"/>
        <pt x="950" y="1240" on="1"/>
        <pt x="782" y="1240" on="1"/>
        <pt x="701" y="1312" on="0"/>
        <pt x="631" y="1418" on="1"/>
        <pt x="525" y="1321" on="0"/>
        <pt x="407" y="1240" on="1"/>
        <pt x="239" y="1240" on="1"/>
        <pt x="245" y="1267" on="1"/>
        <pt x="472" y="1494" on="0"/>
      </contour>
      <contour>
        <pt x="186" y="1032" on="1"/>
        <pt x="375" y="1137" on="0"/>
        <pt x="745" y="1137" on="0"/>
        <pt x="816" y="1036" on="1"/>
        <pt x="862" y="971" on="0"/>
        <pt x="862" y="871" on="1"/>
        <pt x="862" y="815" on="0"/>
        <pt x="848" y="748" on="1"/>
        <pt x="689" y="0" on="1"/>
        <pt x="494" y="0" on="1"/>
        <pt x="474" y="152" on="1"/>
        <pt x="468" y="152" on="1"/>
        <pt x="389" y="55" on="0"/>
        <pt x="247" y="-20" on="0"/>
        <pt x="150" y="-20" on="1"/>
        <pt x="27" y="-20" on="0"/>
        <pt x="-24" y="72" on="1"/>
        <pt x="-54" y="126" on="0"/>
        <pt x="-54" y="261" on="0"/>
        <pt x="-40" y="328" on="1"/>
        <pt x="-3" y="502" on="0"/>
        <pt x="225" y="675" on="0"/>
        <pt x="421" y="684" on="1"/>
        <pt x="570" y="690" on="1"/>
        <pt x="587" y="770" on="1"/>
        <pt x="593" y="801" on="0"/>
        <pt x="593" y="825" on="1"/>
        <pt x="593" y="926" on="0"/>
        <pt x="485" y="926" on="1"/>
        <pt x="386" y="926" on="0"/>
        <pt x="239" y="848" on="1"/>
      </contour>
      <contour>
        <pt x="228" y="269" on="1"/>
        <pt x="228" y="188" on="0"/>
        <pt x="376" y="188" on="0"/>
        <pt x="492" y="319" on="0"/>
        <pt x="514" y="428" on="1"/>
        <pt x="534" y="522" on="1"/>
        <pt x="452" y="518" on="1"/>
        <pt x="360" y="513" on="0"/>
        <pt x="255" y="419" on="0"/>
        <pt x="235" y="326" on="1"/>
        <pt x="228" y="294" on="0"/>
      </contour>
    </TTGlyph>
    <TTGlyph name="acute" xMin="276" yMin="1241" xMax="836" yMax="1569">
      <contour>
        <pt x="836" y="1569" on="1"/>
        <pt x="831" y="1548" on="1"/>
        <pt x="801" y="1508" on="0"/>
        <pt x="683" y="1409" on="1"/>
        <pt x="565" y="1312" on="0"/>
        <pt x="463" y="1241" on="1"/>
        <pt x="276" y="1241" on="1"/>
        <pt x="282" y="1268" on="1"/>
        <pt x="334" y="1322" on="0"/>
        <pt x="481" y="1512" on="0"/>
        <pt x="518" y="1569" on="1"/>
      </contour>
    </TTGlyph>
    <TTGlyph name="adieresis" xMin="-50" yMin="-20" xMax="970" yMax="1532">
      <contour>
        <pt x="399" y="1532" on="0"/>
        <pt x="523" y="1532" on="0"/>
        <pt x="551" y="1496" on="1"/>
        <pt x="571" y="1472" on="0"/>
        <pt x="571" y="1436" on="1"/>
        <pt x="571" y="1420" on="0"/>
        <pt x="567" y="1403" on="1"/>
        <pt x="554" y="1345" on="0"/>
        <pt x="468" y="1276" on="0"/>
        <pt x="345" y="1276" on="0"/>
        <pt x="317" y="1310" on="1"/>
        <pt x="298" y="1332" on="0"/>
        <pt x="298" y="1358" on="1"/>
        <pt x="298" y="1450" on="0"/>
        <pt x="357" y="1498" on="1"/>
      </contour>
      <contour>
        <pt x="755" y="1498" on="1"/>
        <pt x="797" y="1532" on="0"/>
        <pt x="921" y="1532" on="0"/>
        <pt x="950" y="1498" on="1"/>
        <pt x="970" y="1474" on="0"/>
        <pt x="970" y="1438" on="1"/>
        <pt x="970" y="1422" on="0"/>
        <pt x="966" y="1403" on="1"/>
        <pt x="953" y="1344" on="0"/>
        <pt x="868" y="1276" on="0"/>
        <pt x="744" y="1276" on="0"/>
        <pt x="716" y="1310" on="1"/>
        <pt x="696" y="1334" on="0"/>
        <pt x="696" y="1360" on="1"/>
        <pt x="696" y="1449" on="0"/>
      </contour>
      <contour>
        <pt x="190" y="1032" on="1"/>
        <pt x="379" y="1137" on="0"/>
        <pt x="749" y="1137" on="0"/>
        <pt x="820" y="1036" on="1"/>
        <pt x="866" y="971" on="0"/>
        <pt x="866" y="871" on="1"/>
        <pt x="866" y="815" on="0"/>
        <pt x="852" y="748" on="1"/>
        <pt x="693" y="0" on="1"/>
        <pt x="498" y="0" on="1"/>
        <pt x="478" y="152" on="1"/>
        <pt x="472" y="152" on="1"/>
        <pt x="393" y="55" on="0"/>
        <pt x="251" y="-20" on="0"/>
        <pt x="154" y="-20" on="1"/>
        <pt x="31" y="-20" on="0"/>
        <pt x="-20" y="72" on="1"/>
        <pt x="-50" y="126" on="0"/>
        <pt x="-50" y="261" on="0"/>
        <pt x="-36" y="328" on="1"/>
        <pt x="1" y="502" on="0"/>
        <pt x="229" y="675" on="0"/>
        <pt x="425" y="684" on="1"/>
        <pt x="574" y="690" on="1"/>
        <pt x="591" y="770" on="1"/>
        <pt x="597" y="801" on="0"/>
        <pt x="597" y="825" on="1"/>
        <pt x="597" y="926" on="0"/>
        <pt x="489" y="926" on="1"/>
        <pt x="390" y="926" on="0"/>
        <pt x="243" y="848" on="1"/>
      </contour>
      <contour>
        <pt x="232" y="269" on="1"/>
        <pt x="232" y="188" on="0"/>
        <pt x="380" y="188" on="0"/>
        <pt x="495" y="319" on="0"/>
        <pt x="518" y="428" on="1"/>
        <pt x="538" y="522" on="1"/>
        <pt x="455" y="518" on="1"/>
        <pt x="364" y="513" on="0"/>
        <pt x="259" y="419" on="0"/>
        <pt x="239" y="326" on="1"/>
        <pt x="232" y="294" on="0"/>
      </contour>
    </TTGlyph>
    <TTGlyph name="ae" xMin="-7" yMin="-20" xMax="1417" yMax="1137">
      <contour>
        <pt x="615" y="1137" on="1"/>
        <pt x="780" y="1137" on="0"/>
        <pt x="853" y="1044" on="1"/>
        <pt x="971" y="1135" on="0"/>
        <pt x="1114" y="1135" on="1"/>
        <pt x="1297" y="1135" on="0"/>
        <pt x="1372" y="1001" on="1"/>
        <pt x="1417" y="920" on="0"/>
        <pt x="1417" y="804" on="1"/>
        <pt x="1417" y="725" on="0"/>
        <pt x="1397" y="631" on="1"/>
        <pt x="1367" y="489" on="1"/>
        <pt x="833" y="489" on="1"/>
        <pt x="822" y="430" on="0"/>
        <pt x="822" y="312" on="0"/>
        <pt x="846" y="268" on="1"/>
        <pt x="888" y="195" on="0"/>
        <pt x="992" y="195" on="1"/>
        <pt x="1126" y="195" on="0"/>
        <pt x="1275" y="276" on="1"/>
        <pt x="1228" y="57" on="1"/>
        <pt x="1085" y="-20" on="0"/>
        <pt x="905" y="-20" on="1"/>
        <pt x="674" y="-20" on="0"/>
        <pt x="599" y="160" on="1"/>
        <pt x="522" y="67" on="0"/>
        <pt x="353" y="-20" on="0"/>
        <pt x="248" y="-20" on="1"/>
        <pt x="94" y="-20" on="0"/>
        <pt x="32" y="68" on="1"/>
        <pt x="-7" y="124" on="0"/>
        <pt x="-7" y="214" on="1"/>
        <pt x="-7" y="265" on="0"/>
        <pt x="6" y="328" on="1"/>
        <pt x="43" y="502" on="0"/>
        <pt x="271" y="675" on="0"/>
        <pt x="467" y="684" on="1"/>
        <pt x="616" y="690" on="1"/>
        <pt x="633" y="768" on="1"/>
        <pt x="639" y="799" on="0"/>
        <pt x="639" y="824" on="1"/>
        <pt x="639" y="926" on="0"/>
        <pt x="531" y="926" on="1"/>
        <pt x="432" y="926" on="0"/>
        <pt x="285" y="848" on="1"/>
        <pt x="232" y="1032" on="1"/>
        <pt x="421" y="1137" on="0"/>
      </contour>
      <contour>
        <pt x="1162" y="793" on="1"/>
        <pt x="1162" y="930" on="0"/>
        <pt x="1070" y="930" on="1"/>
        <pt x="945" y="930" on="0"/>
        <pt x="880" y="682" on="1"/>
        <pt x="1150" y="682" on="1"/>
        <pt x="1162" y="746" on="0"/>
      </contour>
      <contour>
        <pt x="274" y="269" on="1"/>
        <pt x="274" y="188" on="0"/>
        <pt x="422" y="188" on="0"/>
        <pt x="537" y="319" on="0"/>
        <pt x="560" y="428" on="1"/>
        <pt x="580" y="522" on="1"/>
        <pt x="497" y="518" on="1"/>
        <pt x="406" y="513" on="0"/>
        <pt x="301" y="419" on="0"/>
        <pt x="281" y="326" on="1"/>
        <pt x="274" y="294" on="0"/>
      </contour>
    </TTGlyph>
    <TTGlyph name="agrave" xMin="-54" yMin="-20" xMax="862" yMax="1569">
      <contour>
        <pt x="315" y="1569" on="1"/>
        <pt x="633" y="1569" on="1"/>
        <pt x="646" y="1513" on="0"/>
        <pt x="712" y="1321" on="0"/>
        <pt x="741" y="1268" on="1"/>
        <pt x="735" y="1241" on="1"/>
        <pt x="548" y="1241" on="1"/>
        <pt x="480" y="1307" on="0"/>
        <pt x="326" y="1502" on="0"/>
        <pt x="310" y="1548" on="1"/>
      </contour>
      <contour>
        <pt x="186" y="1032" on="1"/>
        <pt x="375" y="1137" on="0"/>
        <pt x="745" y="1137" on="0"/>
        <pt x="816" y="1036" on="1"/>
        <pt x="862" y="971" on="0"/>
        <pt x="862" y="871" on="1"/>
        <pt x="862" y="815" on="0"/>
        <pt x="848" y="748" on="1"/>
        <pt x="689" y="0" on="1"/>
        <pt x="494" y="0" on="1"/>
        <pt x="474" y="152" on="1"/>
        <pt x="468" y="152" on="1"/>
        <pt x="389" y="55" on="0"/>
        <pt x="247" y="-20" on="0"/>
        <pt x="150" y="-20" on="1"/>
        <pt x="27" y="-20" on="0"/>
        <pt x="-24" y="72" on="1"/>
        <pt x="-54" y="126" on="0"/>
        <pt x="-54" y="261" on="0"/>
        <pt x="-40" y="328" on="1"/>
        <pt x="-3" y="502" on="0"/>
        <pt x="225" y="675" on="0"/>
        <pt x="421" y="684" on="1"/>
        <pt x="570" y="690" on="1"/>
        <pt x="587" y="770" on="1"/>
        <pt x="593" y="801" on="0"/>
        <pt x="593" y="825" on="1"/>
        <pt x="593" y="926" on="0"/>
        <pt x="485" y="926" on="1"/>
        <pt x="386" y="926" on="0"/>
        <pt x="239" y="848" on="1"/>
      </contour>
      <contour>
        <pt x="228" y="269" on="1"/>
        <pt x="228" y="188" on="0"/>
        <pt x="376" y="188" on="0"/>
        <pt x="492" y="319" on="0"/>
        <pt x="514" y="428" on="1"/>
        <pt x="534" y="522" on="1"/>
        <pt x="451" y="518" on="1"/>
        <pt x="360" y="513" on="0"/>
        <pt x="255" y="419" on="0"/>
        <pt x="235" y="326" on="1"/>
        <pt x="228" y="294" on="0"/>
      </contour>
    </TTGlyph>
    <TTGlyph name="alefdageshhb" xMin="-51" yMin="0" xMax="1106" yMax="1290">
      <contour>
        <pt x="1106" y="1290" on="1"/>
        <pt x="1008" y="828" on="1"/>
        <pt x="995" y="768" on="0"/>
        <pt x="960" y="675" on="0"/>
        <pt x="927" y="623" on="1"/>
        <pt x="858" y="514" on="0"/>
        <pt x="702" y="462" on="1"/>
        <pt x="822" y="0" on="1"/>
        <pt x="514" y="0" on="1"/>
        <pt x="387" y="612" on="1"/>
        <pt x="335" y="570" on="0"/>
        <pt x="313" y="464" on="1"/>
        <pt x="214" y="0" on="1"/>
        <pt x="-51" y="0" on="1"/>
        <pt x="47" y="461" on="1"/>
        <pt x="59" y="519" on="0"/>
        <pt x="92" y="608" on="0"/>
        <pt x="123" y="659" on="1"/>
        <pt x="186" y="763" on="0"/>
        <pt x="331" y="819" on="1"/>
        <pt x="198" y="1290" on="1"/>
        <pt x="505" y="1290" on="1"/>
        <pt x="603" y="848" on="1"/>
        <pt x="650" y="664" on="1"/>
        <pt x="715" y="706" on="0"/>
        <pt x="742" y="825" on="1"/>
        <pt x="841" y="1290" on="1"/>
      </contour>
      <contour>
        <pt x="309" y="200" on="1"/>
        <pt x="339" y="223" on="0"/>
        <pt x="426" y="223" on="0"/>
        <pt x="462" y="182" on="0"/>
        <pt x="462" y="164" on="1"/>
        <pt x="462" y="105" on="0"/>
        <pt x="421" y="74" on="1"/>
        <pt x="390" y="50" on="0"/>
        <pt x="302" y="50" on="0"/>
        <pt x="268" y="88" on="0"/>
        <pt x="268" y="106" on="1"/>
        <pt x="268" y="169" on="0"/>
      </contour>
    </TTGlyph>
    <TTGlyph name="alefpatahhb" xMin="-51" yMin="-344" xMax="1106" yMax="1290">
      <contour>
        <pt x="1106" y="1290" on="1"/>
        <pt x="1008" y="828" on="1"/>
        <pt x="995" y="768" on="0"/>
        <pt x="960" y="675" on="0"/>
        <pt x="927" y="623" on="1"/>
        <pt x="858" y="514" on="0"/>
        <pt x="702" y="462" on="1"/>
        <pt x="822" y="0" on="1"/>
        <pt x="514" y="0" on="1"/>
        <pt x="387" y="612" on="1"/>
        <pt x="335" y="570" on="0"/>
        <pt x="313" y="464" on="1"/>
        <pt x="214" y="0" on="1"/>
        <pt x="-51" y="0" on="1"/>
        <pt x="47" y="461" on="1"/>
        <pt x="59" y="519" on="0"/>
        <pt x="92" y="608" on="0"/>
        <pt x="123" y="659" on="1"/>
        <pt x="186" y="763" on="0"/>
        <pt x="331" y="819" on="1"/>
        <pt x="198" y="1290" on="1"/>
        <pt x="505" y="1290" on="1"/>
        <pt x="603" y="848" on="1"/>
        <pt x="650" y="664" on="1"/>
        <pt x="715" y="706" on="0"/>
        <pt x="742" y="825" on="1"/>
        <pt x="841" y="1290" on="1"/>
      </contour>
      <contour>
        <pt x="499" y="-344" on="1"/>
        <pt x="106" y="-344" on="1"/>
        <pt x="130" y="-228" on="1"/>
        <pt x="523" y="-228" on="1"/>
      </contour>
    </TTGlyph>
    <TTGlyph name="alefqamatshb" xMin="-51" yMin="-567" xMax="1106" yMax="1290">
      <contour>
        <pt x="1106" y="1290" on="1"/>
        <pt x="1008" y="828" on="1"/>
        <pt x="995" y="768" on="0"/>
        <pt x="960" y="675" on="0"/>
        <pt x="927" y="623" on="1"/>
        <pt x="858" y="514" on="0"/>
        <pt x="702" y="462" on="1"/>
        <pt x="822" y="0" on="1"/>
        <pt x="514" y="0" on="1"/>
        <pt x="387" y="612" on="1"/>
        <pt x="335" y="570" on="0"/>
        <pt x="313" y="464" on="1"/>
        <pt x="214" y="0" on="1"/>
        <pt x="-51" y="0" on="1"/>
        <pt x="47" y="461" on="1"/>
        <pt x="59" y="519" on="0"/>
        <pt x="92" y="608" on="0"/>
        <pt x="123" y="659" on="1"/>
        <pt x="186" y="763" on="0"/>
        <pt x="331" y="819" on="1"/>
        <pt x="198" y="1290" on="1"/>
        <pt x="505" y="1290" on="1"/>
        <pt x="603" y="848" on="1"/>
        <pt x="650" y="664" on="1"/>
        <pt x="715" y="706" on="0"/>
        <pt x="742" y="825" on="1"/>
        <pt x="841" y="1290" on="1"/>
      </contour>
      <contour>
        <pt x="488" y="-365" on="1"/>
        <pt x="352" y="-365" on="1"/>
        <pt x="309" y="-567" on="1"/>
        <pt x="198" y="-567" on="1"/>
        <pt x="241" y="-365" on="1"/>
        <pt x="106" y="-365" on="1"/>
        <pt x="131" y="-248" on="1"/>
        <pt x="513" y="-248" on="1"/>
      </contour>
    </TTGlyph>
    <TTGlyph name="ampersand" xMin="-27" yMin="-20" xMax="1151" yMax="1483">
      <contour>
        <pt x="667" y="102" on="1"/>
        <pt x="504" y="-20" on="0"/>
        <pt x="112" y="-20" on="0"/>
        <pt x="28" y="89" on="1"/>
        <pt x="-27" y="162" on="0"/>
        <pt x="-27" y="271" on="1"/>
        <pt x="-27" y="326" on="0"/>
        <pt x="-13" y="391" on="1"/>
        <pt x="40" y="640" on="0"/>
        <pt x="319" y="807" on="1"/>
        <pt x="267" y="927" on="0"/>
        <pt x="257" y="995" on="1"/>
        <pt x="253" y="1022" on="0"/>
        <pt x="253" y="1094" on="0"/>
        <pt x="263" y="1141" on="1"/>
        <pt x="296" y="1297" on="0"/>
        <pt x="530" y="1483" on="0"/>
        <pt x="841" y="1483" on="0"/>
        <pt x="911" y="1396" on="1"/>
        <pt x="960" y="1337" on="0"/>
        <pt x="960" y="1247" on="1"/>
        <pt x="960" y="1205" on="0"/>
        <pt x="950" y="1157" on="1"/>
        <pt x="928" y="1050" on="0"/>
        <pt x="775" y="861" on="0"/>
        <pt x="628" y="766" on="1"/>
        <pt x="771" y="479" on="1"/>
        <pt x="839" y="569" on="0"/>
        <pt x="919" y="768" on="1"/>
        <pt x="1151" y="768" on="1"/>
        <pt x="1054" y="489" on="0"/>
        <pt x="879" y="270" on="1"/>
        <pt x="1016" y="0" on="1"/>
        <pt x="717" y="0" on="1"/>
      </contour>
      <contour>
        <pt x="694" y="1226" on="1"/>
        <pt x="675" y="1257" on="0"/>
        <pt x="589" y="1257" on="0"/>
        <pt x="522" y="1191" on="0"/>
        <pt x="509" y="1130" on="1"/>
        <pt x="504" y="1105" on="0"/>
        <pt x="504" y="1081" on="1"/>
        <pt x="504" y="1022" on="0"/>
        <pt x="549" y="934" on="1"/>
        <pt x="619" y="979" on="0"/>
        <pt x="652" y="1025" on="1"/>
        <pt x="685" y="1067" on="0"/>
        <pt x="699" y="1133" on="1"/>
        <pt x="705" y="1159" on="0"/>
        <pt x="705" y="1208" on="0"/>
      </contour>
      <contour>
        <pt x="408" y="637" on="1"/>
        <pt x="254" y="521" on="0"/>
        <pt x="254" y="343" on="1"/>
        <pt x="254" y="303" on="0"/>
        <pt x="274" y="270" on="1"/>
        <pt x="307" y="217" on="0"/>
        <pt x="383" y="217" on="1"/>
        <pt x="482" y="217" on="0"/>
        <pt x="574" y="291" on="1"/>
      </contour>
    </TTGlyph>
    <TTGlyph name="aring" xMin="-69" yMin="-20" xMax="883" yMax="1706">
      <contour>
        <pt x="567" y="1706" on="0"/>
        <pt x="785" y="1706" on="0"/>
        <pt x="842" y="1642" on="1"/>
        <pt x="883" y="1595" on="0"/>
        <pt x="883" y="1529" on="1"/>
        <pt x="883" y="1503" on="0"/>
        <pt x="877" y="1475" on="1"/>
        <pt x="854" y="1367" on="0"/>
        <pt x="689" y="1239" on="0"/>
        <pt x="469" y="1239" on="0"/>
        <pt x="413" y="1301" on="1"/>
        <pt x="376" y="1345" on="0"/>
        <pt x="376" y="1410" on="1"/>
        <pt x="376" y="1439" on="0"/>
        <pt x="383" y="1473" on="1"/>
        <pt x="406" y="1582" on="0"/>
      </contour>
      <contour>
        <pt x="683" y="1400" on="1"/>
        <pt x="730" y="1438" on="0"/>
        <pt x="730" y="1507" on="1"/>
        <pt x="730" y="1526" on="0"/>
        <pt x="692" y="1573" on="0"/>
        <pt x="605" y="1573" on="0"/>
        <pt x="571" y="1546" on="1"/>
        <pt x="523" y="1507" on="0"/>
        <pt x="523" y="1441" on="1"/>
        <pt x="523" y="1372" on="0"/>
        <pt x="605" y="1372" on="1"/>
        <pt x="649" y="1372" on="0"/>
      </contour>
      <contour>
        <pt x="171" y="1032" on="1"/>
        <pt x="360" y="1137" on="0"/>
        <pt x="730" y="1137" on="0"/>
        <pt x="802" y="1036" on="1"/>
        <pt x="848" y="971" on="0"/>
        <pt x="848" y="871" on="1"/>
        <pt x="848" y="815" on="0"/>
        <pt x="834" y="748" on="1"/>
        <pt x="675" y="0" on="1"/>
        <pt x="480" y="0" on="1"/>
        <pt x="459" y="152" on="1"/>
        <pt x="453" y="152" on="1"/>
        <pt x="373" y="54" on="0"/>
        <pt x="232" y="-20" on="0"/>
        <pt x="136" y="-20" on="1"/>
        <pt x="12" y="-20" on="0"/>
        <pt x="-39" y="72" on="1"/>
        <pt x="-69" y="126" on="0"/>
        <pt x="-69" y="260" on="0"/>
        <pt x="-54" y="328" on="1"/>
        <pt x="-18" y="502" on="0"/>
        <pt x="210" y="675" on="0"/>
        <pt x="406" y="684" on="1"/>
        <pt x="555" y="690" on="1"/>
        <pt x="572" y="770" on="1"/>
        <pt x="579" y="801" on="0"/>
        <pt x="579" y="826" on="1"/>
        <pt x="579" y="926" on="0"/>
        <pt x="371" y="926" on="0"/>
        <pt x="224" y="848" on="1"/>
      </contour>
      <contour>
        <pt x="214" y="271" on="1"/>
        <pt x="214" y="188" on="0"/>
        <pt x="362" y="188" on="0"/>
        <pt x="477" y="319" on="0"/>
        <pt x="500" y="428" on="1"/>
        <pt x="520" y="522" on="1"/>
        <pt x="437" y="518" on="1"/>
        <pt x="345" y="513" on="0"/>
        <pt x="240" y="419" on="0"/>
        <pt x="220" y="326" on="1"/>
        <pt x="214" y="295" on="0"/>
      </contour>
    </TTGlyph>
    <TTGlyph name="asciicircum" xMin="-86" yMin="526" xMax="979" yMax="1470">
      <contour>
        <pt x="979" y="526" on="1"/>
        <pt x="754" y="526" on="1"/>
        <pt x="564" y="1186" on="1"/>
        <pt x="136" y="526" on="1"/>
        <pt x="-86" y="526" on="1"/>
        <pt x="551" y="1470" on="1"/>
        <pt x="686" y="1470" on="1"/>
      </contour>
    </TTGlyph>
    <TTGlyph name="asciitilde" xMin="39" yMin="557" xMax="879" yMax="887">
      <contour>
        <pt x="602" y="559" on="1"/>
        <pt x="518" y="559" on="0"/>
        <pt x="409" y="623" on="1"/>
        <pt x="336" y="663" on="0"/>
        <pt x="289" y="678" on="0"/>
        <pt x="255" y="678" on="1"/>
        <pt x="166" y="678" on="0"/>
        <pt x="39" y="557" on="1"/>
        <pt x="85" y="776" on="1"/>
        <pt x="198" y="885" on="0"/>
        <pt x="316" y="885" on="1"/>
        <pt x="357" y="885" on="0"/>
        <pt x="434" y="862" on="0"/>
        <pt x="565" y="787" on="0"/>
        <pt x="624" y="766" on="0"/>
        <pt x="666" y="766" on="1"/>
        <pt x="754" y="766" on="0"/>
        <pt x="879" y="887" on="1"/>
        <pt x="833" y="668" on="1"/>
        <pt x="728" y="559" on="0"/>
      </contour>
    </TTGlyph>
    <TTGlyph name="asterisk" xMin="46" yMin="737" xMax="908" yMax="1556">
      <contour>
        <pt x="579" y="1249" on="1"/>
        <pt x="908" y="1335" on="1"/>
        <pt x="893" y="1110" on="1"/>
        <pt x="604" y="1092" on="1"/>
        <pt x="737" y="846" on="1"/>
        <pt x="515" y="737" on="1"/>
        <pt x="441" y="997" on="1"/>
        <pt x="269" y="737" on="1"/>
        <pt x="88" y="846" on="1"/>
        <pt x="322" y="1092" on="1"/>
        <pt x="46" y="1114" on="1"/>
        <pt x="130" y="1335" on="1"/>
        <pt x="415" y="1249" on="1"/>
        <pt x="443" y="1556" on="1"/>
        <pt x="681" y="1556" on="1"/>
      </contour>
    </TTGlyph>
    <TTGlyph name="at" xMin="33" yMin="-168" xMax="1459" yMax="1477">
      <contour>
        <pt x="995" y="465" on="1"/>
        <pt x="995" y="403" on="0"/>
        <pt x="1097" y="403" on="0"/>
        <pt x="1196" y="593" on="0"/>
        <pt x="1228" y="750" on="1"/>
        <pt x="1252" y="864" on="0"/>
        <pt x="1252" y="955" on="1"/>
        <pt x="1252" y="1079" on="0"/>
        <pt x="1206" y="1160" on="1"/>
        <pt x="1127" y="1298" on="0"/>
        <pt x="923" y="1298" on="1"/>
        <pt x="773" y="1298" on="0"/>
        <pt x="503" y="1120" on="0"/>
        <pt x="312" y="804" on="0"/>
        <pt x="268" y="604" on="1"/>
        <pt x="245" y="493" on="0"/>
        <pt x="245" y="402" on="1"/>
        <pt x="245" y="263" on="0"/>
        <pt x="298" y="168" on="1"/>
        <pt x="386" y="12" on="0"/>
        <pt x="602" y="12" on="1"/>
        <pt x="780" y="12" on="0"/>
        <pt x="987" y="102" on="1"/>
        <pt x="948" y="-80" on="1"/>
        <pt x="765" y="-168" on="0"/>
        <pt x="562" y="-168" on="1"/>
        <pt x="557" y="-168" on="0"/>
        <pt x="551" y="-168" on="1"/>
        <pt x="408" y="-168" on="0"/>
        <pt x="296" y="-116" on="1"/>
        <pt x="75" y="-13" on="0"/>
        <pt x="38" y="278" on="1"/>
        <pt x="33" y="321" on="0"/>
        <pt x="33" y="367" on="1"/>
        <pt x="33" y="472" on="0"/>
        <pt x="61" y="594" on="1"/>
        <pt x="116" y="851" on="0"/>
        <pt x="248" y="1056" on="1"/>
        <pt x="380" y="1256" on="0"/>
        <pt x="756" y="1477" on="0"/>
        <pt x="966" y="1477" on="1"/>
        <pt x="1259" y="1477" on="0"/>
        <pt x="1382" y="1285" on="1"/>
        <pt x="1459" y="1166" on="0"/>
        <pt x="1459" y="986" on="1"/>
        <pt x="1459" y="878" on="0"/>
        <pt x="1431" y="748" on="1"/>
        <pt x="1379" y="504" on="0"/>
        <pt x="1156" y="231" on="0"/>
        <pt x="1008" y="231" on="1"/>
        <pt x="939" y="231" on="0"/>
        <pt x="851" y="308" on="0"/>
        <pt x="849" y="371" on="1"/>
        <pt x="841" y="371" on="1"/>
        <pt x="736" y="231" on="0"/>
        <pt x="477" y="231" on="0"/>
        <pt x="428" y="325" on="1"/>
        <pt x="402" y="377" on="0"/>
        <pt x="402" y="522" on="0"/>
        <pt x="419" y="604" on="1"/>
        <pt x="467" y="826" on="0"/>
        <pt x="593" y="960" on="1"/>
        <pt x="721" y="1094" on="0"/>
        <pt x="886" y="1094" on="1"/>
        <pt x="1005" y="1094" on="0"/>
        <pt x="1133" y="1051" on="1"/>
        <pt x="1013" y="585" on="1"/>
        <pt x="1005" y="547" on="1"/>
        <pt x="995" y="497" on="0"/>
      </contour>
      <contour>
        <pt x="613" y="500" on="1"/>
        <pt x="613" y="403" on="0"/>
        <pt x="672" y="403" on="1"/>
        <pt x="721" y="403" on="0"/>
        <pt x="798" y="536" on="0"/>
        <pt x="837" y="682" on="1"/>
        <pt x="899" y="911" on="1"/>
        <pt x="875" y="922" on="0"/>
        <pt x="839" y="922" on="1"/>
        <pt x="774" y="922" on="0"/>
        <pt x="656" y="744" on="0"/>
        <pt x="626" y="604" on="1"/>
        <pt x="613" y="543" on="0"/>
      </contour>
    </TTGlyph>
    <TTGlyph name="atilde" xMin="-51" yMin="-20" xMax="1021" yMax="1542">
      <contour>
        <pt x="738" y="1241" on="1"/>
        <pt x="677" y="1241" on="0"/>
        <pt x="628" y="1278" on="1"/>
        <pt x="607" y="1294" on="0"/>
        <pt x="588" y="1310" on="1"/>
        <pt x="543" y="1348" on="0"/>
        <pt x="473" y="1348" on="0"/>
        <pt x="426" y="1299" on="0"/>
        <pt x="404" y="1239" on="1"/>
        <pt x="263" y="1239" on="1"/>
        <pt x="306" y="1389" on="0"/>
        <pt x="451" y="1540" on="0"/>
        <pt x="546" y="1540" on="1"/>
        <pt x="585" y="1540" on="0"/>
        <pt x="655" y="1507" on="0"/>
        <pt x="676" y="1487" on="1"/>
        <pt x="733" y="1434" on="0"/>
        <pt x="781" y="1434" on="1"/>
        <pt x="813" y="1434" on="0"/>
        <pt x="855" y="1483" on="0"/>
        <pt x="880" y="1542" on="1"/>
        <pt x="1021" y="1542" on="1"/>
        <pt x="978" y="1393" on="0"/>
        <pt x="831" y="1241" on="0"/>
      </contour>
      <contour>
        <pt x="572" y="1137" on="1"/>
        <pt x="748" y="1137" on="0"/>
        <pt x="820" y="1036" on="1"/>
        <pt x="865" y="971" on="0"/>
        <pt x="865" y="871" on="1"/>
        <pt x="865" y="815" on="0"/>
        <pt x="851" y="748" on="1"/>
        <pt x="692" y="0" on="1"/>
        <pt x="497" y="0" on="1"/>
        <pt x="477" y="152" on="1"/>
        <pt x="471" y="152" on="1"/>
        <pt x="392" y="55" on="0"/>
        <pt x="250" y="-20" on="0"/>
        <pt x="153" y="-20" on="1"/>
        <pt x="30" y="-20" on="0"/>
        <pt x="-21" y="72" on="1"/>
        <pt x="-51" y="126" on="0"/>
        <pt x="-51" y="261" on="0"/>
        <pt x="-37" y="328" on="1"/>
        <pt x="0" y="502" on="0"/>
        <pt x="228" y="675" on="0"/>
        <pt x="424" y="684" on="1"/>
        <pt x="573" y="690" on="1"/>
        <pt x="590" y="770" on="1"/>
        <pt x="596" y="801" on="0"/>
        <pt x="596" y="825" on="1"/>
        <pt x="596" y="926" on="0"/>
        <pt x="488" y="926" on="1"/>
        <pt x="390" y="926" on="0"/>
        <pt x="241" y="848" on="1"/>
        <pt x="189" y="1032" on="1"/>
        <pt x="376" y="1137" on="0"/>
      </contour>
      <contour>
        <pt x="231" y="269" on="1"/>
        <pt x="231" y="188" on="0"/>
        <pt x="379" y="188" on="0"/>
        <pt x="494" y="319" on="0"/>
        <pt x="517" y="428" on="1"/>
        <pt x="537" y="522" on="1"/>
        <pt x="454" y="518" on="1"/>
        <pt x="363" y="513" on="0"/>
        <pt x="258" y="419" on="0"/>
        <pt x="238" y="326" on="1"/>
        <pt x="231" y="294" on="0"/>
      </contour>
    </TTGlyph>
    <TTGlyph name="b" xMin="-50" yMin="-20" xMax="927" yMax="1556">
      <contour>
        <pt x="694" y="1135" on="1"/>
        <pt x="846" y="1135" on="0"/>
        <pt x="901" y="984" on="1"/>
        <pt x="927" y="911" on="0"/>
        <pt x="927" y="700" on="0"/>
        <pt x="898" y="559" on="1"/>
        <pt x="838" y="281" on="0"/>
        <pt x="599" y="-20" on="0"/>
        <pt x="445" y="-20" on="1"/>
        <pt x="368" y="-20" on="0"/>
        <pt x="268" y="47" on="0"/>
        <pt x="235" y="127" on="1"/>
        <pt x="218" y="127" on="1"/>
        <pt x="146" y="0" on="1"/>
        <pt x="-50" y="0" on="1"/>
        <pt x="280" y="1556" on="1"/>
        <pt x="546" y="1556" on="1"/>
        <pt x="469" y="1192" on="1"/>
        <pt x="462" y="1159" on="0"/>
        <pt x="456" y="1138" on="0"/>
        <pt x="450" y="1116" on="1"/>
        <pt x="438" y="1071" on="0"/>
        <pt x="408" y="969" on="1"/>
        <pt x="422" y="969" on="1"/>
        <pt x="488" y="1059" on="0"/>
        <pt x="617" y="1135" on="0"/>
      </contour>
      <contour>
        <pt x="306" y="343" on="1"/>
        <pt x="306" y="209" on="0"/>
        <pt x="407" y="209" on="1"/>
        <pt x="551" y="209" on="0"/>
        <pt x="626" y="563" on="1"/>
        <pt x="651" y="680" on="0"/>
        <pt x="651" y="757" on="1"/>
        <pt x="651" y="909" on="0"/>
        <pt x="554" y="909" on="1"/>
        <pt x="479" y="909" on="0"/>
        <pt x="429" y="838" on="1"/>
        <pt x="380" y="766" on="0"/>
        <pt x="341" y="588" on="1"/>
        <pt x="335" y="561" on="1"/>
        <pt x="306" y="422" on="0"/>
      </contour>
    </TTGlyph>
    <TTGlyph name="backslash" xMin="169" yMin="0" xMax="662" yMax="1462">
      <contour>
        <pt x="662" y="0" on="1"/>
        <pt x="404" y="0" on="1"/>
        <pt x="169" y="1462" on="1"/>
        <pt x="427" y="1462" on="1"/>
      </contour>
    </TTGlyph>
    <TTGlyph name="bar" xMin="201" yMin="-471" xMax="838" yMax="1552">
      <contour>
        <pt x="408" y="-471" on="1"/>
        <pt x="201" y="-471" on="1"/>
        <pt x="631" y="1552" on="1"/>
        <pt x="838" y="1552" on="1"/>
      </contour>
    </TTGlyph>
    <TTGlyph name="betdageshhb" xMin="-55" yMin="0" xMax="830" yMax="1310">
      <contour>
        <pt x="220" y="1294" on="1"/>
        <pt x="342" y="1310" on="0"/>
        <pt x="559" y="1310" on="0"/>
        <pt x="675" y="1290" on="0"/>
        <pt x="755" y="1254" on="0"/>
        <pt x="780" y="1224" on="1"/>
        <pt x="830" y="1164" on="0"/>
        <pt x="830" y="1064" on="1"/>
        <pt x="830" y="986" on="0"/>
        <pt x="804" y="861" on="1"/>
        <pt x="666" y="215" on="1"/>
        <pt x="800" y="215" on="1"/>
        <pt x="755" y="0" on="1"/>
        <pt x="-55" y="0" on="1"/>
        <pt x="-10" y="215" on="1"/>
        <pt x="399" y="215" on="1"/>
        <pt x="537" y="862" on="1"/>
        <pt x="551" y="927" on="0"/>
        <pt x="551" y="1019" on="0"/>
        <pt x="536" y="1044" on="1"/>
        <pt x="506" y="1093" on="0"/>
        <pt x="398" y="1093" on="1"/>
        <pt x="275" y="1093" on="0"/>
        <pt x="197" y="1080" on="1"/>
        <pt x="173" y="1076" on="1"/>
      </contour>
      <contour>
        <pt x="207" y="699" on="1"/>
        <pt x="237" y="722" on="0"/>
        <pt x="324" y="722" on="0"/>
        <pt x="360" y="681" on="0"/>
        <pt x="360" y="663" on="1"/>
        <pt x="360" y="604" on="0"/>
        <pt x="319" y="572" on="1"/>
        <pt x="288" y="549" on="0"/>
        <pt x="200" y="549" on="0"/>
        <pt x="166" y="587" on="0"/>
        <pt x="166" y="605" on="1"/>
        <pt x="166" y="668" on="0"/>
      </contour>
    </TTGlyph>
    <TTGlyph name="braceleft" xMin="1" yMin="-324" xMax="895" yMax="1462">
      <contour>
        <pt x="489" y="398" on="1"/>
        <pt x="489" y="371" on="0"/>
        <pt x="480" y="336" on="1"/>
        <pt x="416" y="33" on="1"/>
        <pt x="411" y="7" on="0"/>
        <pt x="411" y="-53" on="0"/>
        <pt x="429" y="-75" on="1"/>
        <pt x="459" y="-110" on="0"/>
        <pt x="560" y="-113" on="1"/>
        <pt x="515" y="-324" on="1"/>
        <pt x="278" y="-321" on="0"/>
        <pt x="200" y="-261" on="1"/>
        <pt x="145" y="-218" on="0"/>
        <pt x="145" y="-123" on="1"/>
        <pt x="145" y="-86" on="0"/>
        <pt x="153" y="-41" on="1"/>
        <pt x="221" y="276" on="1"/>
        <pt x="226" y="301" on="0"/>
        <pt x="226" y="323" on="1"/>
        <pt x="226" y="383" on="0"/>
        <pt x="185" y="414" on="1"/>
        <pt x="129" y="457" on="0"/>
        <pt x="1" y="457" on="1"/>
        <pt x="49" y="680" on="1"/>
        <pt x="307" y="680" on="0"/>
        <pt x="343" y="852" on="1"/>
        <pt x="413" y="1180" on="1"/>
        <pt x="449" y="1339" on="0"/>
        <pt x="657" y="1458" on="0"/>
        <pt x="895" y="1462" on="1"/>
        <pt x="850" y="1251" on="1"/>
        <pt x="750" y="1248" on="0"/>
        <pt x="661" y="1180" on="0"/>
        <pt x="644" y="1106" on="1"/>
        <pt x="580" y="803" on="1"/>
        <pt x="535" y="609" on="0"/>
        <pt x="300" y="575" on="1"/>
        <pt x="298" y="563" on="1"/>
        <pt x="489" y="533" on="0"/>
      </contour>
    </TTGlyph>
    <TTGlyph name="braceright" xMin="-157" yMin="-324" xMax="737" yMax="1462">
      <contour>
        <pt x="596" y="1261" on="1"/>
        <pt x="596" y="1224" on="0"/>
        <pt x="587" y="1180" on="1"/>
        <pt x="519" y="860" on="1"/>
        <pt x="512" y="833" on="0"/>
        <pt x="512" y="809" on="1"/>
        <pt x="512" y="752" on="0"/>
        <pt x="554" y="721" on="1"/>
        <pt x="609" y="680" on="0"/>
        <pt x="737" y="680" on="1"/>
        <pt x="689" y="457" on="1"/>
        <pt x="560" y="457" on="0"/>
        <pt x="415" y="372" on="0"/>
        <pt x="395" y="276" on="1"/>
        <pt x="327" y="-41" on="1"/>
        <pt x="294" y="-197" on="0"/>
        <pt x="185" y="-260" on="1"/>
        <pt x="78" y="-324" on="0"/>
        <pt x="-157" y="-324" on="1"/>
        <pt x="-112" y="-113" on="1"/>
        <pt x="-11" y="-110" on="0"/>
        <pt x="80" y="-40" on="0"/>
        <pt x="95" y="33" on="1"/>
        <pt x="159" y="336" on="1"/>
        <pt x="161" y="345" on="1"/>
        <pt x="200" y="528" on="0"/>
        <pt x="441" y="563" on="1"/>
        <pt x="443" y="575" on="1"/>
        <pt x="253" y="604" on="0"/>
        <pt x="253" y="750" on="1"/>
        <pt x="253" y="775" on="0"/>
        <pt x="259" y="803" on="1"/>
        <pt x="323" y="1106" on="1"/>
        <pt x="329" y="1131" on="0"/>
        <pt x="329" y="1191" on="0"/>
        <pt x="309" y="1214" on="1"/>
        <pt x="279" y="1248" on="0"/>
        <pt x="178" y="1251" on="1"/>
        <pt x="223" y="1462" on="1"/>
        <pt x="458" y="1462" on="0"/>
        <pt x="538" y="1398" on="1"/>
        <pt x="596" y="1352" on="0"/>
      </contour>
    </TTGlyph>
    <TTGlyph name="bracketleft" xMin="-57" yMin="-324" xMax="792" yMax="1462">
      <contour>
        <pt x="750" y="1264" on="1"/>
        <pt x="527" y="1264" on="1"/>
        <pt x="231" y="-125" on="1"/>
        <pt x="454" y="-125" on="1"/>
        <pt x="412" y="-324" on="1"/>
        <pt x="-57" y="-324" on="1"/>
        <pt x="323" y="1462" on="1"/>
        <pt x="792" y="1462" on="1"/>
      </contour>
    </TTGlyph>
    <TTGlyph name="bracketright" xMin="-143" yMin="-324" xMax="706" yMax="1462">
      <contour>
        <pt x="326" y="-324" on="1"/>
        <pt x="-143" y="-324" on="1"/>
        <pt x="-101" y="-125" on="1"/>
        <pt x="122" y="-125" on="1"/>
        <pt x="418" y="1264" on="1"/>
        <pt x="195" y="1264" on="1"/>
        <pt x="237" y="1462" on="1"/>
        <pt x="706" y="1462" on="1"/>
      </contour>
    </TTGlyph>
    <TTGlyph name="breve" xMin="279" yMin="1241" xMax="907" yMax="1567">
      <contour>
        <pt x="862" y="1410" on="0"/>
        <pt x="663" y="1241" on="0"/>
        <pt x="379" y="1241" on="0"/>
        <pt x="320" y="1326" on="1"/>
        <pt x="279" y="1384" on="0"/>
        <pt x="279" y="1476" on="1"/>
        <pt x="279" y="1518" on="0"/>
        <pt x="287" y="1567" on="1"/>
        <pt x="447" y="1567" on="1"/>
        <pt x="445" y="1549" on="0"/>
        <pt x="445" y="1533" on="1"/>
        <pt x="445" y="1489" on="0"/>
        <pt x="486" y="1442" on="0"/>
        <pt x="647" y="1442" on="0"/>
        <pt x="720" y="1497" on="0"/>
        <pt x="746" y="1567" on="1"/>
        <pt x="907" y="1567" on="1"/>
      </contour>
    </TTGlyph>
    <TTGlyph name="brokenbar" xMin="201" yMin="-471" xMax="838" yMax="1552">
      <contour>
        <pt x="666" y="743" on="1"/>
        <pt x="459" y="743" on="1"/>
        <pt x="631" y="1552" on="1"/>
        <pt x="838" y="1552" on="1"/>
      </contour>
      <contour>
        <pt x="408" y="-471" on="1"/>
        <pt x="201" y="-471" on="1"/>
        <pt x="373" y="338" on="1"/>
        <pt x="580" y="338" on="1"/>
      </contour>
    </TTGlyph>
    <TTGlyph name="bullet" xMin="87" yMin="440" xMax="662" yMax="1055">
      <contour>
        <pt x="130" y="896" on="0"/>
        <pt x="306" y="1055" on="0"/>
        <pt x="572" y="1055" on="0"/>
        <pt x="627" y="974" on="1"/>
        <pt x="662" y="923" on="0"/>
        <pt x="662" y="845" on="1"/>
        <pt x="662" y="801" on="0"/>
        <pt x="651" y="748" on="1"/>
        <pt x="620" y="603" on="0"/>
        <pt x="440" y="440" on="0"/>
        <pt x="178" y="440" on="0"/>
        <pt x="122" y="520" on="1"/>
        <pt x="87" y="572" on="0"/>
        <pt x="87" y="651" on="1"/>
        <pt x="87" y="695" on="0"/>
        <pt x="98" y="748" on="1"/>
      </contour>
    </TTGlyph>
    <TTGlyph name="c" xMin="46" yMin="-20" xMax="837" yMax="1135">
      <contour>
        <pt x="320" y="364" on="1"/>
        <pt x="320" y="209" on="0"/>
        <pt x="430" y="209" on="1"/>
        <pt x="530" y="209" on="0"/>
        <pt x="654" y="279" on="1"/>
        <pt x="604" y="45" on="1"/>
        <pt x="485" y="-20" on="0"/>
        <pt x="358" y="-20" on="1"/>
        <pt x="159" y="-20" on="0"/>
        <pt x="86" y="125" on="1"/>
        <pt x="46" y="205" on="0"/>
        <pt x="46" y="424" on="0"/>
        <pt x="73" y="551" on="1"/>
        <pt x="135" y="846" on="0"/>
        <pt x="395" y="1135" on="0"/>
        <pt x="600" y="1135" on="1"/>
        <pt x="739" y="1135" on="0"/>
        <pt x="837" y="1065" on="1"/>
        <pt x="717" y="858" on="1"/>
        <pt x="646" y="907" on="0"/>
        <pt x="580" y="907" on="1"/>
        <pt x="496" y="907" on="0"/>
        <pt x="383" y="733" on="0"/>
        <pt x="345" y="553" on="1"/>
        <pt x="320" y="440" on="0"/>
      </contour>
    </TTGlyph>
    <TTGlyph name="caron" xMin="240" yMin="1241" xMax="957" yMax="1569">
      <contour>
        <pt x="957" y="1569" on="1"/>
        <pt x="951" y="1542" on="1"/>
        <pt x="739" y="1330" on="0"/>
        <pt x="670" y="1241" on="1"/>
        <pt x="393" y="1241" on="1"/>
        <pt x="370" y="1317" on="0"/>
        <pt x="240" y="1542" on="1"/>
        <pt x="246" y="1569" on="1"/>
        <pt x="414" y="1569" on="1"/>
        <pt x="499" y="1495" on="0"/>
        <pt x="566" y="1391" on="1"/>
        <pt x="681" y="1494" on="0"/>
        <pt x="789" y="1569" on="1"/>
      </contour>
    </TTGlyph>
    <TTGlyph name="ccedilla" xMin="53" yMin="-492" xMax="887" yMax="1135">
      <contour>
        <pt x="283" y="-2" on="1"/>
        <pt x="96" y="61" on="0"/>
        <pt x="96" y="325" on="1"/>
        <pt x="96" y="424" on="0"/>
        <pt x="123" y="551" on="1"/>
        <pt x="185" y="846" on="0"/>
        <pt x="445" y="1135" on="0"/>
        <pt x="650" y="1135" on="1"/>
        <pt x="714" y="1135" on="0"/>
        <pt x="841" y="1098" on="0"/>
        <pt x="887" y="1065" on="1"/>
        <pt x="767" y="858" on="1"/>
        <pt x="696" y="907" on="0"/>
        <pt x="630" y="907" on="1"/>
        <pt x="546" y="907" on="0"/>
        <pt x="433" y="733" on="0"/>
        <pt x="395" y="553" on="1"/>
        <pt x="370" y="440" on="0"/>
        <pt x="370" y="364" on="1"/>
        <pt x="370" y="209" on="0"/>
        <pt x="480" y="209" on="1"/>
        <pt x="580" y="209" on="0"/>
        <pt x="704" y="279" on="1"/>
        <pt x="654" y="45" on="1"/>
        <pt x="553" y="-10" on="0"/>
        <pt x="444" y="-19" on="1"/>
        <pt x="404" y="-76" on="1"/>
        <pt x="471" y="-94" on="0"/>
        <pt x="503" y="-141" on="1"/>
        <pt x="524" y="-172" on="0"/>
        <pt x="524" y="-236" on="0"/>
        <pt x="519" y="-260" on="1"/>
        <pt x="496" y="-370" on="0"/>
        <pt x="325" y="-492" on="0"/>
        <pt x="179" y="-492" on="1"/>
        <pt x="107" y="-492" on="0"/>
        <pt x="53" y="-471" on="1"/>
        <pt x="85" y="-317" on="1"/>
        <pt x="145" y="-334" on="0"/>
        <pt x="203" y="-334" on="1"/>
        <pt x="290" y="-334" on="0"/>
        <pt x="305" y="-268" on="1"/>
        <pt x="307" y="-259" on="0"/>
        <pt x="307" y="-251" on="1"/>
        <pt x="307" y="-181" on="0"/>
        <pt x="171" y="-158" on="1"/>
      </contour>
    </TTGlyph>
    <TTGlyph name="cedilla" xMin="-73" yMin="-492" xMax="399" yMax="0">
      <contour>
        <pt x="181" y="-251" on="1"/>
        <pt x="181" y="-181" on="0"/>
        <pt x="46" y="-158" on="1"/>
        <pt x="158" y="0" on="1"/>
        <pt x="331" y="0" on="1"/>
        <pt x="278" y="-76" on="1"/>
        <pt x="345" y="-94" on="0"/>
        <pt x="377" y="-141" on="1"/>
        <pt x="399" y="-173" on="0"/>
        <pt x="399" y="-217" on="1"/>
        <pt x="399" y="-237" on="0"/>
        <pt x="394" y="-260" on="1"/>
        <pt x="371" y="-370" on="0"/>
        <pt x="200" y="-492" on="0"/>
        <pt x="54" y="-492" on="1"/>
        <pt x="-19" y="-492" on="0"/>
        <pt x="-73" y="-471" on="1"/>
        <pt x="-40" y="-317" on="1"/>
        <pt x="20" y="-334" on="0"/>
        <pt x="77" y="-334" on="1"/>
        <pt x="166" y="-334" on="0"/>
        <pt x="179" y="-268" on="1"/>
        <pt x="181" y="-259" on="0"/>
      </contour>
    </TTGlyph>
    <TTGlyph name="cent" xMin="122" yMin="-20" xMax="916" yMax="1479">
      <contour>
        <pt x="398" y="551" on="1"/>
        <pt x="398" y="395" on="0"/>
        <pt x="507" y="395" on="1"/>
        <pt x="607" y="395" on="0"/>
        <pt x="730" y="467" on="1"/>
        <pt x="680" y="233" on="1"/>
        <pt x="591" y="182" on="0"/>
        <pt x="493" y="172" on="1"/>
        <pt x="453" y="-20" on="1"/>
        <pt x="287" y="-20" on="1"/>
        <pt x="329" y="180" on="1"/>
        <pt x="122" y="238" on="0"/>
        <pt x="122" y="511" on="1"/>
        <pt x="122" y="610" on="0"/>
        <pt x="149" y="737" on="1"/>
        <pt x="203" y="990" on="0"/>
        <pt x="410" y="1275" on="0"/>
        <pt x="570" y="1311" on="1"/>
        <pt x="605" y="1479" on="1"/>
        <pt x="771" y="1479" on="1"/>
        <pt x="737" y="1319" on="1"/>
        <pt x="839" y="1303" on="0"/>
        <pt x="916" y="1253" on="1"/>
        <pt x="794" y="1044" on="1"/>
        <pt x="718" y="1094" on="0"/>
        <pt x="657" y="1094" on="1"/>
        <pt x="573" y="1094" on="0"/>
        <pt x="461" y="921" on="0"/>
        <pt x="422" y="739" on="1"/>
        <pt x="398" y="627" on="0"/>
      </contour>
    </TTGlyph>
    <TTGlyph name="circumflex" xMin="176" yMin="1241" xMax="893" yMax="1569">
      <contour>
        <pt x="463" y="1569" on="1"/>
        <pt x="740" y="1569" on="1"/>
        <pt x="768" y="1483" on="0"/>
        <pt x="893" y="1268" on="1"/>
        <pt x="887" y="1241" on="1"/>
        <pt x="719" y="1241" on="1"/>
        <pt x="638" y="1313" on="0"/>
        <pt x="568" y="1419" on="1"/>
        <pt x="462" y="1322" on="0"/>
        <pt x="344" y="1241" on="1"/>
        <pt x="176" y="1241" on="1"/>
        <pt x="182" y="1268" on="1"/>
        <pt x="405" y="1489" on="0"/>
      </contour>
    </TTGlyph>
    <TTGlyph name="colon" xMin="16" yMin="-27" xMax="537" yMax="1137">
      <contour>
        <pt x="319" y="1137" on="0"/>
        <pt x="481" y="1137" on="0"/>
        <pt x="514" y="1094" on="1"/>
        <pt x="537" y="1066" on="0"/>
        <pt x="537" y="1022" on="1"/>
        <pt x="537" y="1000" on="0"/>
        <pt x="531" y="973" on="1"/>
        <pt x="515" y="895" on="0"/>
        <pt x="409" y="809" on="0"/>
        <pt x="250" y="809" on="0"/>
        <pt x="216" y="852" on="1"/>
        <pt x="194" y="881" on="0"/>
        <pt x="194" y="924" on="1"/>
        <pt x="194" y="947" on="0"/>
        <pt x="200" y="973" on="1"/>
        <pt x="217" y="1052" on="0"/>
      </contour>
      <contour>
        <pt x="141" y="301" on="0"/>
        <pt x="303" y="301" on="0"/>
        <pt x="336" y="258" on="1"/>
        <pt x="359" y="230" on="0"/>
        <pt x="359" y="186" on="1"/>
        <pt x="359" y="164" on="0"/>
        <pt x="353" y="137" on="1"/>
        <pt x="337" y="59" on="0"/>
        <pt x="231" y="-27" on="0"/>
        <pt x="72" y="-27" on="0"/>
        <pt x="38" y="16" on="1"/>
        <pt x="16" y="45" on="0"/>
        <pt x="16" y="88" on="1"/>
        <pt x="16" y="111" on="0"/>
        <pt x="22" y="137" on="1"/>
        <pt x="39" y="216" on="0"/>
      </contour>
    </TTGlyph>
    <TTGlyph name="comma" xMin="-117" yMin="-264" xMax="363" yMax="238">
      <contour>
        <pt x="354" y="238" on="1"/>
        <pt x="363" y="215" on="1"/>
        <pt x="269" y="13" on="0"/>
        <pt x="86" y="-264" on="1"/>
        <pt x="-117" y="-264" on="1"/>
        <pt x="9" y="14" on="0"/>
        <pt x="90" y="238" on="1"/>
      </contour>
    </TTGlyph>
    <TTGlyph name="copyright" xMin="74" yMin="-20" xMax="1612" yMax="1483">
      <contour>
        <pt x="271" y="1106" on="1"/>
        <pt x="408" y="1282" on="0"/>
        <pt x="804" y="1483" on="0"/>
        <pt x="1202" y="1483" on="0"/>
        <pt x="1507" y="1287" on="0"/>
        <pt x="1572" y="1114" on="1"/>
        <pt x="1612" y="1007" on="0"/>
        <pt x="1612" y="889" on="1"/>
        <pt x="1612" y="813" on="0"/>
        <pt x="1595" y="731" on="1"/>
        <pt x="1552" y="528" on="0"/>
        <pt x="1276" y="181" on="0"/>
        <pt x="887" y="-20" on="0"/>
        <pt x="476" y="-20" on="0"/>
        <pt x="172" y="186" on="0"/>
        <pt x="110" y="360" on="1"/>
        <pt x="74" y="460" on="0"/>
        <pt x="74" y="554" on="1"/>
        <pt x="74" y="854" on="0"/>
      </contour>
      <contour>
        <pt x="1443" y="1039" on="1"/>
        <pt x="1392" y="1183" on="0"/>
        <pt x="1141" y="1348" on="0"/>
        <pt x="811" y="1348" on="0"/>
        <pt x="486" y="1181" on="0"/>
        <pt x="262" y="898" on="0"/>
        <pt x="227" y="731" on="1"/>
        <pt x="213" y="665" on="0"/>
        <pt x="213" y="509" on="0"/>
        <pt x="244" y="422" on="1"/>
        <pt x="296" y="280" on="0"/>
        <pt x="421" y="197" on="1"/>
        <pt x="546" y="115" on="0"/>
        <pt x="881" y="115" on="0"/>
        <pt x="1200" y="280" on="0"/>
        <pt x="1424" y="564" on="0"/>
        <pt x="1460" y="731" on="1"/>
        <pt x="1474" y="799" on="0"/>
        <pt x="1474" y="955" on="0"/>
      </contour>
      <contour>
        <pt x="782" y="264" on="1"/>
        <pt x="580" y="264" on="0"/>
        <pt x="495" y="387" on="1"/>
        <pt x="440" y="466" on="0"/>
        <pt x="440" y="587" on="1"/>
        <pt x="440" y="654" on="0"/>
        <pt x="457" y="733" on="1"/>
        <pt x="503" y="951" on="0"/>
        <pt x="776" y="1196" on="0"/>
        <pt x="973" y="1196" on="1"/>
        <pt x="1113" y="1196" on="0"/>
        <pt x="1252" y="1122" on="1"/>
        <pt x="1147" y="961" on="1"/>
        <pt x="1048" y="1018" on="0"/>
        <pt x="846" y="1018" on="0"/>
        <pt x="703" y="867" on="0"/>
        <pt x="674" y="731" on="1"/>
        <pt x="660" y="664" on="0"/>
        <pt x="660" y="609" on="1"/>
        <pt x="660" y="442" on="0"/>
        <pt x="825" y="442" on="1"/>
        <pt x="885" y="442" on="0"/>
        <pt x="1025" y="475" on="0"/>
        <pt x="1077" y="500" on="1"/>
        <pt x="1038" y="319" on="1"/>
        <pt x="912" y="264" on="0"/>
      </contour>
    </TTGlyph>
    <TTGlyph name="currency" xMin="22" yMin="260" xMax="1092" yMax="1188">
      <contour>
        <pt x="153" y="641" on="1"/>
        <pt x="153" y="788" on="0"/>
        <pt x="262" y="924" on="1"/>
        <pt x="160" y="1051" on="1"/>
        <pt x="326" y="1188" on="1"/>
        <pt x="426" y="1061" on="1"/>
        <pt x="529" y="1116" on="0"/>
        <pt x="746" y="1116" on="0"/>
        <pt x="825" y="1059" on="1"/>
        <pt x="982" y="1188" on="1"/>
        <pt x="1092" y="1055" on="1"/>
        <pt x="936" y="926" on="1"/>
        <pt x="957" y="871" on="0"/>
        <pt x="957" y="819" on="1"/>
        <pt x="957" y="649" on="0"/>
        <pt x="850" y="520" on="1"/>
        <pt x="948" y="395" on="1"/>
        <pt x="784" y="260" on="1"/>
        <pt x="682" y="385" on="1"/>
        <pt x="578" y="332" on="0"/>
        <pt x="353" y="332" on="0"/>
        <pt x="280" y="385" on="1"/>
        <pt x="129" y="262" on="1"/>
        <pt x="22" y="397" on="1"/>
        <pt x="176" y="522" on="1"/>
        <pt x="153" y="578" on="0"/>
      </contour>
      <contour>
        <pt x="682" y="924" on="0"/>
        <pt x="514" y="924" on="0"/>
        <pt x="374" y="808" on="0"/>
        <pt x="356" y="723" on="1"/>
        <pt x="351" y="700" on="0"/>
        <pt x="351" y="678" on="1"/>
        <pt x="351" y="624" on="0"/>
        <pt x="384" y="582" on="1"/>
        <pt x="430" y="524" on="0"/>
        <pt x="599" y="524" on="0"/>
        <pt x="740" y="641" on="0"/>
        <pt x="758" y="723" on="1"/>
        <pt x="763" y="746" on="0"/>
        <pt x="763" y="767" on="1"/>
        <pt x="763" y="822" on="0"/>
        <pt x="729" y="865" on="1"/>
      </contour>
    </TTGlyph>
    <TTGlyph name="d" xMin="0" yMin="-20" xMax="1072" yMax="1556">
      <contour>
        <pt x="521" y="145" on="1"/>
        <pt x="399" y="-20" on="0"/>
        <pt x="84" y="-20" on="0"/>
        <pt x="28" y="132" on="1"/>
        <pt x="0" y="207" on="0"/>
        <pt x="0" y="418" on="0"/>
        <pt x="29" y="555" on="1"/>
        <pt x="86" y="826" on="0"/>
        <pt x="326" y="1135" on="0"/>
        <pt x="479" y="1135" on="1"/>
        <pt x="556" y="1135" on="0"/>
        <pt x="650" y="1059" on="0"/>
        <pt x="678" y="971" on="1"/>
        <pt x="694" y="971" on="1"/>
        <pt x="715" y="1122" on="0"/>
        <pt x="727" y="1184" on="1"/>
        <pt x="806" y="1556" on="1"/>
        <pt x="1072" y="1556" on="1"/>
        <pt x="742" y="0" on="1"/>
        <pt x="544" y="0" on="1"/>
        <pt x="530" y="145" on="1"/>
      </contour>
      <contour>
        <pt x="276" y="352" on="1"/>
        <pt x="276" y="205" on="0"/>
        <pt x="372" y="205" on="1"/>
        <pt x="446" y="205" on="0"/>
        <pt x="495" y="272" on="1"/>
        <pt x="544" y="341" on="0"/>
        <pt x="584" y="518" on="1"/>
        <pt x="591" y="553" on="1"/>
        <pt x="620" y="685" on="0"/>
        <pt x="620" y="764" on="1"/>
        <pt x="620" y="800" on="0"/>
        <pt x="614" y="826" on="1"/>
        <pt x="598" y="905" on="0"/>
        <pt x="518" y="905" on="1"/>
        <pt x="377" y="905" on="0"/>
        <pt x="302" y="551" on="1"/>
        <pt x="276" y="430" on="0"/>
      </contour>
    </TTGlyph>
    <TTGlyph name="dagger" xMin="147" yMin="0" xMax="994" yMax="1556">
      <contour>
        <pt x="657" y="1139" on="1"/>
        <pt x="994" y="1169" on="1"/>
        <pt x="945" y="940" on="1"/>
        <pt x="621" y="971" on="1"/>
        <pt x="470" y="0" on="1"/>
        <pt x="204" y="0" on="1"/>
        <pt x="465" y="971" on="1"/>
        <pt x="147" y="940" on="1"/>
        <pt x="196" y="1169" on="1"/>
        <pt x="501" y="1139" on="1"/>
        <pt x="534" y="1556" on="1"/>
        <pt x="800" y="1556" on="1"/>
      </contour>
    </TTGlyph>
    <TTGlyph name="daggerdbl" xMin="10" yMin="0" xMax="1014" yMax="1556">
      <contour>
        <pt x="675" y="1180" on="1"/>
        <pt x="1014" y="1210" on="1"/>
        <pt x="965" y="981" on="1"/>
        <pt x="639" y="1012" on="1"/>
        <pt x="639" y="786" on="1"/>
        <pt x="540" y="545" on="1"/>
        <pt x="879" y="575" on="1"/>
        <pt x="830" y="346" on="1"/>
        <pt x="505" y="377" on="1"/>
        <pt x="480" y="0" on="1"/>
        <pt x="214" y="0" on="1"/>
        <pt x="349" y="377" on="1"/>
        <pt x="10" y="346" on="1"/>
        <pt x="59" y="575" on="1"/>
        <pt x="384" y="545" on="1"/>
        <pt x="389" y="786" on="1"/>
        <pt x="484" y="1012" on="1"/>
        <pt x="145" y="981" on="1"/>
        <pt x="194" y="1210" on="1"/>
        <pt x="519" y="1180" on="1"/>
        <pt x="544" y="1556" on="1"/>
        <pt x="810" y="1556" on="1"/>
      </contour>
    </TTGlyph>
    <TTGlyph name="daletdageshhb" xMin="114" yMin="0" xMax="963" yMax="1290">
      <contour>
        <pt x="963" y="1290" on="1"/>
        <pt x="920" y="1087" on="1"/>
        <pt x="756" y="1032" on="0"/>
        <pt x="711" y="819" on="1"/>
        <pt x="537" y="0" on="1"/>
        <pt x="271" y="0" on="1"/>
        <pt x="446" y="826" on="1"/>
        <pt x="458" y="881" on="0"/>
        <pt x="508" y="971" on="0"/>
        <pt x="536" y="996" on="1"/>
        <pt x="593" y="1048" on="0"/>
        <pt x="632" y="1062" on="1"/>
        <pt x="649" y="1068" on="1"/>
        <pt x="650" y="1075" on="1"/>
        <pt x="118" y="1075" on="1"/>
        <pt x="164" y="1290" on="1"/>
      </contour>
      <contour>
        <pt x="155" y="699" on="1"/>
        <pt x="185" y="722" on="0"/>
        <pt x="272" y="722" on="0"/>
        <pt x="308" y="681" on="0"/>
        <pt x="308" y="663" on="1"/>
        <pt x="308" y="604" on="0"/>
        <pt x="267" y="572" on="1"/>
        <pt x="236" y="549" on="0"/>
        <pt x="148" y="549" on="0"/>
        <pt x="114" y="587" on="0"/>
        <pt x="114" y="605" on="1"/>
        <pt x="114" y="668" on="0"/>
      </contour>
    </TTGlyph>
    <TTGlyph name="degree" xMin="68" yMin="805" xMax="764" yMax="1483">
      <contour>
        <pt x="76" y="1143" on="1"/>
        <pt x="106" y="1283" on="0"/>
        <pt x="347" y="1483" on="0"/>
        <pt x="627" y="1483" on="0"/>
        <pt x="706" y="1383" on="1"/>
        <pt x="764" y="1310" on="0"/>
        <pt x="764" y="1216" on="1"/>
        <pt x="764" y="1181" on="0"/>
        <pt x="756" y="1143" on="1"/>
        <pt x="726" y="1002" on="0"/>
        <pt x="606" y="903" on="1"/>
        <pt x="485" y="805" on="0"/>
        <pt x="201" y="805" on="0"/>
        <pt x="123" y="903" on="1"/>
        <pt x="68" y="975" on="0"/>
        <pt x="68" y="1068" on="1"/>
        <pt x="68" y="1104" on="0"/>
      </contour>
      <contour>
        <pt x="554" y="1259" on="1"/>
        <pt x="518" y="1307" on="0"/>
        <pt x="383" y="1307" on="0"/>
        <pt x="265" y="1208" on="0"/>
        <pt x="252" y="1143" on="1"/>
        <pt x="248" y="1124" on="0"/>
        <pt x="248" y="1107" on="1"/>
        <pt x="248" y="1063" on="0"/>
        <pt x="276" y="1028" on="1"/>
        <pt x="317" y="981" on="0"/>
        <pt x="447" y="981" on="0"/>
        <pt x="563" y="1076" on="0"/>
        <pt x="578" y="1143" on="1"/>
        <pt x="582" y="1162" on="0"/>
        <pt x="582" y="1179" on="1"/>
        <pt x="582" y="1225" on="0"/>
      </contour>
    </TTGlyph>
    <TTGlyph name="dieresis" xMin="229" yMin="1276" xMax="901" yMax="1532">
      <contour>
        <pt x="330" y="1532" on="0"/>
        <pt x="454" y="1532" on="0"/>
        <pt x="482" y="1496" on="1"/>
        <pt x="502" y="1472" on="0"/>
        <pt x="502" y="1436" on="1"/>
        <pt x="502" y="1420" on="0"/>
        <pt x="498" y="1403" on="1"/>
        <pt x="486" y="1345" on="0"/>
        <pt x="400" y="1276" on="0"/>
        <pt x="276" y="1276" on="0"/>
        <pt x="248" y="1310" on="1"/>
        <pt x="229" y="1332" on="0"/>
        <pt x="229" y="1358" on="1"/>
        <pt x="229" y="1450" on="0"/>
        <pt x="288" y="1498" on="1"/>
      </contour>
      <contour>
        <pt x="686" y="1498" on="1"/>
        <pt x="728" y="1532" on="0"/>
        <pt x="852" y="1532" on="0"/>
        <pt x="881" y="1498" on="1"/>
        <pt x="901" y="1474" on="0"/>
        <pt x="901" y="1438" on="1"/>
        <pt x="901" y="1422" on="0"/>
        <pt x="897" y="1403" on="1"/>
        <pt x="884" y="1344" on="0"/>
        <pt x="799" y="1276" on="0"/>
        <pt x="675" y="1276" on="0"/>
        <pt x="646" y="1310" on="1"/>
        <pt x="627" y="1334" on="0"/>
        <pt x="627" y="1360" on="1"/>
        <pt x="627" y="1449" on="0"/>
      </contour>
    </TTGlyph>
    <TTGlyph name="divide" xMin="84" yMin="227" xMax="833" yMax="1217">
      <contour>
        <pt x="562" y="1217" on="1"/>
        <pt x="660" y="1217" on="0"/>
        <pt x="660" y="1124" on="1"/>
        <pt x="660" y="1100" on="0"/>
        <pt x="654" y="1071" on="1"/>
        <pt x="640" y="1004" on="0"/>
        <pt x="557" y="926" on="0"/>
        <pt x="443" y="926" on="0"/>
        <pt x="416" y="962" on="1"/>
        <pt x="400" y="984" on="0"/>
        <pt x="400" y="1043" on="0"/>
        <pt x="406" y="1071" on="1"/>
        <pt x="438" y="1217" on="0"/>
      </contour>
      <contour>
        <pt x="789" y="618" on="1"/>
        <pt x="84" y="618" on="1"/>
        <pt x="128" y="825" on="1"/>
        <pt x="833" y="825" on="1"/>
      </contour>
      <contour>
        <pt x="414" y="518" on="1"/>
        <pt x="474" y="518" on="0"/>
        <pt x="498" y="480" on="1"/>
        <pt x="512" y="458" on="0"/>
        <pt x="512" y="400" on="0"/>
        <pt x="506" y="373" on="1"/>
        <pt x="491" y="305" on="0"/>
        <pt x="410" y="227" on="0"/>
        <pt x="295" y="227" on="0"/>
        <pt x="268" y="263" on="1"/>
        <pt x="252" y="285" on="0"/>
        <pt x="252" y="345" on="0"/>
        <pt x="258" y="373" on="1"/>
        <pt x="288" y="518" on="0"/>
      </contour>
    </TTGlyph>
    <TTGlyph name="dollar" xMin="-43" yMin="-119" xMax="964" yMax="1556">
      <contour>
        <pt x="822" y="613" on="1"/>
        <pt x="829" y="583" on="0"/>
        <pt x="829" y="507" on="0"/>
        <pt x="818" y="457" on="1"/>
        <pt x="784" y="298" on="0"/>
        <pt x="565" y="107" on="0"/>
        <pt x="396" y="90" on="1"/>
        <pt x="352" y="-119" on="1"/>
        <pt x="236" y="-119" on="1"/>
        <pt x="280" y="86" on="1"/>
        <pt x="91" y="92" on="0"/>
        <pt x="-43" y="170" on="1"/>
        <pt x="10" y="416" on="1"/>
        <pt x="163" y="313" on="0"/>
        <pt x="326" y="305" on="1"/>
        <pt x="398" y="643" on="1"/>
        <pt x="366" y="659" on="1"/>
        <pt x="213" y="741" on="0"/>
        <pt x="164" y="826" on="1"/>
        <pt x="133" y="880" on="0"/>
        <pt x="133" y="954" on="1"/>
        <pt x="133" y="996" on="0"/>
        <pt x="143" y="1044" on="1"/>
        <pt x="175" y="1194" on="0"/>
        <pt x="392" y="1377" on="0"/>
        <pt x="558" y="1395" on="1"/>
        <pt x="592" y="1556" on="1"/>
        <pt x="708" y="1556" on="1"/>
        <pt x="674" y="1397" on="1"/>
        <pt x="830" y="1386" on="0"/>
        <pt x="964" y="1311" on="1"/>
        <pt x="839" y="1098" on="1"/>
        <pt x="722" y="1160" on="0"/>
        <pt x="626" y="1169" on="1"/>
        <pt x="558" y="852" on="1"/>
        <pt x="564" y="850" on="0"/>
        <pt x="580" y="842" on="0"/>
        <pt x="585" y="840" on="0"/>
        <pt x="586" y="838" on="1"/>
        <pt x="702" y="783" on="0"/>
        <pt x="806" y="679" on="0"/>
      </contour>
      <contour>
        <pt x="378" y="1044" on="1"/>
        <pt x="374" y="1024" on="0"/>
        <pt x="374" y="1003" on="1"/>
        <pt x="374" y="942" on="0"/>
        <pt x="454" y="907" on="1"/>
        <pt x="510" y="1169" on="1"/>
        <pt x="402" y="1153" on="0"/>
      </contour>
      <contour>
        <pt x="557" y="330" on="0"/>
        <pt x="582" y="451" on="1"/>
        <pt x="586" y="469" on="0"/>
        <pt x="586" y="508" on="0"/>
        <pt x="578" y="525" on="1"/>
        <pt x="564" y="557" on="0"/>
        <pt x="503" y="590" on="1"/>
        <pt x="443" y="311" on="1"/>
      </contour>
    </TTGlyph>
    <TTGlyph name="dotaccent" xMin="126" yMin="1262" xMax="443" yMax="1548">
      <contour>
        <pt x="315" y="1548" on="1"/>
        <pt x="443" y="1548" on="0"/>
        <pt x="443" y="1448" on="1"/>
        <pt x="443" y="1428" on="0"/>
        <pt x="438" y="1405" on="1"/>
        <pt x="423" y="1335" on="0"/>
        <pt x="329" y="1262" on="0"/>
        <pt x="255" y="1262" on="1"/>
        <pt x="126" y="1262" on="0"/>
        <pt x="126" y="1362" on="1"/>
        <pt x="126" y="1382" on="0"/>
        <pt x="131" y="1405" on="1"/>
        <pt x="161" y="1548" on="0"/>
      </contour>
    </TTGlyph>
    <TTGlyph name="dotlessi" xMin="-3" yMin="0" xMax="499" yMax="1114">
      <contour>
        <pt x="263" y="0" on="1"/>
        <pt x="-3" y="0" on="1"/>
        <pt x="233" y="1114" on="1"/>
        <pt x="499" y="1114" on="1"/>
      </contour>
    </TTGlyph>
    <TTGlyph name="e" xMin="50" yMin="-20" xMax="915" yMax="1135">
      <contour>
        <pt x="401" y="-20" on="1"/>
        <pt x="193" y="-20" on="0"/>
        <pt x="103" y="128" on="1"/>
        <pt x="50" y="218" on="0"/>
        <pt x="50" y="354" on="1"/>
        <pt x="50" y="442" on="0"/>
        <pt x="72" y="549" on="1"/>
        <pt x="131" y="826" on="0"/>
        <pt x="416" y="1135" on="0"/>
        <pt x="792" y="1135" on="0"/>
        <pt x="868" y="1002" on="1"/>
        <pt x="915" y="923" on="0"/>
        <pt x="915" y="804" on="1"/>
        <pt x="915" y="726" on="0"/>
        <pt x="895" y="631" on="1"/>
        <pt x="864" y="489" on="1"/>
        <pt x="329" y="489" on="1"/>
        <pt x="318" y="430" on="0"/>
        <pt x="318" y="312" on="0"/>
        <pt x="342" y="268" on="1"/>
        <pt x="384" y="195" on="0"/>
        <pt x="488" y="195" on="1"/>
        <pt x="618" y="195" on="0"/>
        <pt x="771" y="276" on="1"/>
        <pt x="725" y="57" on="1"/>
        <pt x="580" y="-20" on="0"/>
      </contour>
      <contour>
        <pt x="656" y="793" on="1"/>
        <pt x="656" y="930" on="0"/>
        <pt x="564" y="930" on="1"/>
        <pt x="505" y="930" on="0"/>
        <pt x="406" y="805" on="0"/>
        <pt x="374" y="682" on="1"/>
        <pt x="644" y="682" on="1"/>
        <pt x="656" y="746" on="0"/>
      </contour>
    </TTGlyph>
    <TTGlyph name="eacute" xMin="4" yMin="-20" xMax="1007" yMax="1569">
      <contour>
        <pt x="1007" y="1569" on="1"/>
        <pt x="1002" y="1548" on="1"/>
        <pt x="972" y="1508" on="0"/>
        <pt x="854" y="1409" on="1"/>
        <pt x="736" y="1312" on="0"/>
        <pt x="634" y="1241" on="1"/>
        <pt x="447" y="1241" on="1"/>
        <pt x="453" y="1268" on="1"/>
        <pt x="505" y="1322" on="0"/>
        <pt x="652" y="1512" on="0"/>
        <pt x="689" y="1569" on="1"/>
      </contour>
      <contour>
        <pt x="355" y="-20" on="1"/>
        <pt x="147" y="-20" on="0"/>
        <pt x="57" y="128" on="1"/>
        <pt x="4" y="218" on="0"/>
        <pt x="4" y="354" on="1"/>
        <pt x="4" y="442" on="0"/>
        <pt x="26" y="549" on="1"/>
        <pt x="85" y="826" on="0"/>
        <pt x="370" y="1135" on="0"/>
        <pt x="746" y="1135" on="0"/>
        <pt x="822" y="1002" on="1"/>
        <pt x="868" y="923" on="0"/>
        <pt x="868" y="805" on="1"/>
        <pt x="868" y="727" on="0"/>
        <pt x="848" y="631" on="1"/>
        <pt x="818" y="489" on="1"/>
        <pt x="283" y="489" on="1"/>
        <pt x="272" y="430" on="0"/>
        <pt x="272" y="312" on="0"/>
        <pt x="296" y="268" on="1"/>
        <pt x="338" y="195" on="0"/>
        <pt x="442" y="195" on="1"/>
        <pt x="572" y="195" on="0"/>
        <pt x="725" y="276" on="1"/>
        <pt x="678" y="57" on="1"/>
        <pt x="535" y="-20" on="0"/>
      </contour>
      <contour>
        <pt x="610" y="793" on="1"/>
        <pt x="610" y="930" on="0"/>
        <pt x="518" y="930" on="1"/>
        <pt x="459" y="930" on="0"/>
        <pt x="360" y="805" on="0"/>
        <pt x="328" y="682" on="1"/>
        <pt x="598" y="682" on="1"/>
        <pt x="610" y="746" on="0"/>
      </contour>
    </TTGlyph>
    <TTGlyph name="ecircumflex" xMin="4" yMin="-20" xMax="948" yMax="1569">
      <contour>
        <pt x="518" y="1569" on="1"/>
        <pt x="795" y="1569" on="1"/>
        <pt x="823" y="1483" on="0"/>
        <pt x="948" y="1268" on="1"/>
        <pt x="942" y="1241" on="1"/>
        <pt x="774" y="1241" on="1"/>
        <pt x="693" y="1313" on="0"/>
        <pt x="623" y="1419" on="1"/>
        <pt x="517" y="1322" on="0"/>
        <pt x="399" y="1241" on="1"/>
        <pt x="231" y="1241" on="1"/>
        <pt x="237" y="1268" on="1"/>
        <pt x="460" y="1489" on="0"/>
      </contour>
      <contour>
        <pt x="355" y="-20" on="1"/>
        <pt x="147" y="-20" on="0"/>
        <pt x="57" y="128" on="1"/>
        <pt x="4" y="218" on="0"/>
        <pt x="4" y="354" on="1"/>
        <pt x="4" y="442" on="0"/>
        <pt x="26" y="549" on="1"/>
        <pt x="85" y="826" on="0"/>
        <pt x="370" y="1135" on="0"/>
        <pt x="746" y="1135" on="0"/>
        <pt x="822" y="1002" on="1"/>
        <pt x="868" y="923" on="0"/>
        <pt x="868" y="805" on="1"/>
        <pt x="868" y="727" on="0"/>
        <pt x="848" y="631" on="1"/>
        <pt x="818" y="489" on="1"/>
        <pt x="283" y="489" on="1"/>
        <pt x="272" y="430" on="0"/>
        <pt x="272" y="312" on="0"/>
        <pt x="296" y="268" on="1"/>
        <pt x="338" y="195" on="0"/>
        <pt x="442" y="195" on="1"/>
        <pt x="572" y="195" on="0"/>
        <pt x="725" y="276" on="1"/>
        <pt x="678" y="57" on="1"/>
        <pt x="535" y="-20" on="0"/>
      </contour>
      <contour>
        <pt x="610" y="793" on="1"/>
        <pt x="610" y="930" on="0"/>
        <pt x="518" y="930" on="1"/>
        <pt x="459" y="930" on="0"/>
        <pt x="360" y="805" on="0"/>
        <pt x="328" y="682" on="1"/>
        <pt x="598" y="682" on="1"/>
        <pt x="610" y="746" on="0"/>
      </contour>
    </TTGlyph>
    <TTGlyph name="edieresis" xMin="8" yMin="-20" xMax="962" yMax="1532">
      <contour>
        <pt x="391" y="1532" on="0"/>
        <pt x="515" y="1532" on="0"/>
        <pt x="543" y="1496" on="1"/>
        <pt x="563" y="1472" on="0"/>
        <pt x="563" y="1436" on="1"/>
        <pt x="563" y="1420" on="0"/>
        <pt x="559" y="1403" on="1"/>
        <pt x="546" y="1345" on="0"/>
        <pt x="460" y="1276" on="0"/>
        <pt x="337" y="1276" on="0"/>
        <pt x="309" y="1310" on="1"/>
        <pt x="290" y="1332" on="0"/>
        <pt x="290" y="1358" on="1"/>
        <pt x="290" y="1450" on="0"/>
        <pt x="349" y="1498" on="1"/>
      </contour>
      <contour>
        <pt x="747" y="1498" on="1"/>
        <pt x="789" y="1532" on="0"/>
        <pt x="913" y="1532" on="0"/>
        <pt x="942" y="1498" on="1"/>
        <pt x="962" y="1474" on="0"/>
        <pt x="962" y="1438" on="1"/>
        <pt x="962" y="1422" on="0"/>
        <pt x="958" y="1403" on="1"/>
        <pt x="945" y="1344" on="0"/>
        <pt x="860" y="1276" on="0"/>
        <pt x="736" y="1276" on="0"/>
        <pt x="708" y="1310" on="1"/>
        <pt x="688" y="1334" on="0"/>
        <pt x="688" y="1360" on="1"/>
        <pt x="688" y="1449" on="0"/>
      </contour>
      <contour>
        <pt x="359" y="-20" on="1"/>
        <pt x="149" y="-20" on="0"/>
        <pt x="61" y="128" on="1"/>
        <pt x="8" y="218" on="0"/>
        <pt x="8" y="354" on="1"/>
        <pt x="8" y="442" on="0"/>
        <pt x="30" y="549" on="1"/>
        <pt x="89" y="826" on="0"/>
        <pt x="374" y="1135" on="0"/>
        <pt x="750" y="1135" on="0"/>
        <pt x="826" y="1002" on="1"/>
        <pt x="872" y="923" on="0"/>
        <pt x="872" y="805" on="1"/>
        <pt x="872" y="727" on="0"/>
        <pt x="852" y="631" on="1"/>
        <pt x="822" y="489" on="1"/>
        <pt x="287" y="489" on="1"/>
        <pt x="276" y="430" on="0"/>
        <pt x="276" y="312" on="0"/>
        <pt x="300" y="268" on="1"/>
        <pt x="342" y="195" on="0"/>
        <pt x="446" y="195" on="1"/>
        <pt x="574" y="195" on="0"/>
        <pt x="729" y="276" on="1"/>
        <pt x="682" y="57" on="1"/>
        <pt x="539" y="-20" on="0"/>
      </contour>
      <contour>
        <pt x="614" y="793" on="1"/>
        <pt x="614" y="930" on="0"/>
        <pt x="522" y="930" on="1"/>
        <pt x="463" y="930" on="0"/>
        <pt x="364" y="805" on="0"/>
        <pt x="332" y="682" on="1"/>
        <pt x="602" y="682" on="1"/>
        <pt x="614" y="746" on="0"/>
      </contour>
    </TTGlyph>
    <TTGlyph name="egrave" xMin="4" yMin="-20" xMax="868" yMax="1569">
      <contour>
        <pt x="313" y="1569" on="1"/>
        <pt x="631" y="1569" on="1"/>
        <pt x="644" y="1513" on="0"/>
        <pt x="710" y="1321" on="0"/>
        <pt x="739" y="1268" on="1"/>
        <pt x="733" y="1241" on="1"/>
        <pt x="546" y="1241" on="1"/>
        <pt x="478" y="1307" on="0"/>
        <pt x="324" y="1502" on="0"/>
        <pt x="308" y="1548" on="1"/>
      </contour>
      <contour>
        <pt x="355" y="-20" on="1"/>
        <pt x="147" y="-20" on="0"/>
        <pt x="57" y="128" on="1"/>
        <pt x="4" y="218" on="0"/>
        <pt x="4" y="354" on="1"/>
        <pt x="4" y="442" on="0"/>
        <pt x="26" y="549" on="1"/>
        <pt x="85" y="826" on="0"/>
        <pt x="370" y="1135" on="0"/>
        <pt x="746" y="1135" on="0"/>
        <pt x="822" y="1002" on="1"/>
        <pt x="868" y="923" on="0"/>
        <pt x="868" y="805" on="1"/>
        <pt x="868" y="727" on="0"/>
        <pt x="848" y="631" on="1"/>
        <pt x="818" y="489" on="1"/>
        <pt x="283" y="489" on="1"/>
        <pt x="272" y="430" on="0"/>
        <pt x="272" y="312" on="0"/>
        <pt x="296" y="268" on="1"/>
        <pt x="338" y="195" on="0"/>
        <pt x="442" y="195" on="1"/>
        <pt x="572" y="195" on="0"/>
        <pt x="725" y="276" on="1"/>
        <pt x="678" y="57" on="1"/>
        <pt x="535" y="-20" on="0"/>
      </contour>
      <contour>
        <pt x="610" y="793" on="1"/>
        <pt x="610" y="930" on="0"/>
        <pt x="518" y="930" on="1"/>
        <pt x="459" y="930" on="0"/>
        <pt x="360" y="805" on="0"/>
        <pt x="328" y="682" on="1"/>
        <pt x="598" y="682" on="1"/>
        <pt x="610" y="746" on="0"/>
      </contour>
    </TTGlyph>
    <TTGlyph name="eight" xMin="-17" yMin="-20" xMax="944" yMax="1481">
      <contour>
        <pt x="341" y="1382" on="1"/>
        <pt x="470" y="1481" on="0"/>
        <pt x="806" y="1481" on="0"/>
        <pt x="887" y="1384" on="1"/>
        <pt x="944" y="1316" on="0"/>
        <pt x="944" y="1214" on="1"/>
        <pt x="944" y="1170" on="0"/>
        <pt x="933" y="1120" on="1"/>
        <pt x="911" y="1015" on="0"/>
        <pt x="778" y="848" on="0"/>
        <pt x="650" y="774" on="1"/>
        <pt x="757" y="685" on="0"/>
        <pt x="792" y="590" on="1"/>
        <pt x="812" y="535" on="0"/>
        <pt x="812" y="427" on="0"/>
        <pt x="802" y="379" on="1"/>
        <pt x="765" y="201" on="0"/>
        <pt x="497" y="-20" on="0"/>
        <pt x="127" y="-20" on="0"/>
        <pt x="41" y="81" on="1"/>
        <pt x="-17" y="150" on="0"/>
        <pt x="-17" y="259" on="1"/>
        <pt x="-17" y="310" on="0"/>
        <pt x="-4" y="371" on="1"/>
        <pt x="48" y="621" on="0"/>
        <pt x="298" y="762" on="1"/>
        <pt x="211" y="844" on="0"/>
        <pt x="184" y="929" on="1"/>
        <pt x="171" y="974" on="0"/>
        <pt x="171" y="1070" on="0"/>
        <pt x="181" y="1120" on="1"/>
        <pt x="216" y="1284" on="0"/>
      </contour>
      <contour>
        <pt x="588" y="1270" on="1"/>
        <pt x="473" y="1270" on="0"/>
        <pt x="439" y="1110" on="1"/>
        <pt x="431" y="1076" on="0"/>
        <pt x="431" y="1019" on="0"/>
        <pt x="438" y="995" on="1"/>
        <pt x="451" y="948" on="0"/>
        <pt x="509" y="891" on="1"/>
        <pt x="584" y="940" on="0"/>
        <pt x="656" y="1041" on="0"/>
        <pt x="678" y="1145" on="0"/>
        <pt x="678" y="1173" on="1"/>
        <pt x="678" y="1270" on="0"/>
      </contour>
      <contour>
        <pt x="257" y="385" on="1"/>
        <pt x="249" y="347" on="0"/>
        <pt x="249" y="274" on="0"/>
        <pt x="264" y="244" on="1"/>
        <pt x="290" y="193" on="0"/>
        <pt x="430" y="193" on="0"/>
        <pt x="526" y="295" on="0"/>
        <pt x="545" y="385" on="1"/>
        <pt x="550" y="412" on="0"/>
        <pt x="550" y="473" on="0"/>
        <pt x="541" y="504" on="1"/>
        <pt x="525" y="558" on="0"/>
        <pt x="456" y="633" on="1"/>
        <pt x="445" y="647" on="1"/>
        <pt x="367" y="597" on="0"/>
        <pt x="275" y="473" on="0"/>
      </contour>
    </TTGlyph>
    <TTGlyph name="ellipsis" xMin="39" yMin="-27" xMax="1488" yMax="301">
      <contour>
        <pt x="164" y="301" on="0"/>
        <pt x="326" y="301" on="0"/>
        <pt x="360" y="258" on="1"/>
        <pt x="382" y="230" on="0"/>
        <pt x="382" y="186" on="1"/>
        <pt x="382" y="164" on="0"/>
        <pt x="376" y="137" on="1"/>
        <pt x="360" y="59" on="0"/>
        <pt x="254" y="-27" on="0"/>
        <pt x="95" y="-27" on="0"/>
        <pt x="62" y="16" on="1"/>
        <pt x="39" y="45" on="0"/>
        <pt x="39" y="88" on="1"/>
        <pt x="39" y="111" on="0"/>
        <pt x="45" y="137" on="1"/>
        <pt x="62" y="216" on="0"/>
      </contour>
      <contour>
        <pt x="717" y="301" on="0"/>
        <pt x="879" y="301" on="0"/>
        <pt x="912" y="258" on="1"/>
        <pt x="935" y="230" on="0"/>
        <pt x="935" y="186" on="1"/>
        <pt x="935" y="164" on="0"/>
        <pt x="929" y="137" on="1"/>
        <pt x="913" y="59" on="0"/>
        <pt x="807" y="-27" on="0"/>
        <pt x="648" y="-27" on="0"/>
        <pt x="614" y="16" on="1"/>
        <pt x="592" y="45" on="0"/>
        <pt x="592" y="88" on="1"/>
        <pt x="592" y="111" on="0"/>
        <pt x="598" y="137" on="1"/>
        <pt x="615" y="216" on="0"/>
      </contour>
      <contour>
        <pt x="1270" y="301" on="0"/>
        <pt x="1432" y="301" on="0"/>
        <pt x="1466" y="258" on="1"/>
        <pt x="1488" y="230" on="0"/>
        <pt x="1488" y="186" on="1"/>
        <pt x="1488" y="164" on="0"/>
        <pt x="1482" y="137" on="1"/>
        <pt x="1466" y="59" on="0"/>
        <pt x="1360" y="-27" on="0"/>
        <pt x="1201" y="-27" on="0"/>
        <pt x="1168" y="16" on="1"/>
        <pt x="1145" y="45" on="0"/>
        <pt x="1145" y="88" on="1"/>
        <pt x="1145" y="111" on="0"/>
        <pt x="1151" y="137" on="1"/>
        <pt x="1168" y="216" on="0"/>
      </contour>
    </TTGlyph>
    <TTGlyph name="emdash" xMin="47" yMin="442" xMax="1530" yMax="659">
      <contour>
        <pt x="1484" y="442" on="1"/>
        <pt x="47" y="442" on="1"/>
        <pt x="93" y="659" on="1"/>
        <pt x="1530" y="659" on="1"/>
      </contour>
    </TTGlyph>
    <TTGlyph name="endash" xMin="47" yMin="442" xMax="926" yMax="659">
      <contour>
        <pt x="880" y="442" on="1"/>
        <pt x="47" y="442" on="1"/>
        <pt x="93" y="659" on="1"/>
        <pt x="926" y="659" on="1"/>
      </contour>
    </TTGlyph>
    <TTGlyph name="equal" xMin="42" yMin="422" xMax="875" yMax="1020">
      <contour>
        <pt x="831" y="815" on="1"/>
        <pt x="126" y="815" on="1"/>
        <pt x="170" y="1020" on="1"/>
        <pt x="875" y="1020" on="1"/>
      </contour>
      <contour>
        <pt x="747" y="422" on="1"/>
        <pt x="42" y="422" on="1"/>
        <pt x="86" y="629" on="1"/>
        <pt x="791" y="629" on="1"/>
      </contour>
    </TTGlyph>
    <TTGlyph name="eth" xMin="-6" yMin="-20" xMax="984" yMax="1571">
      <contour>
        <pt x="927" y="857" on="1"/>
        <pt x="927" y="724" on="0"/>
        <pt x="894" y="569" on="1"/>
        <pt x="835" y="292" on="0"/>
        <pt x="687" y="137" on="1"/>
        <pt x="540" y="-20" on="0"/>
        <pt x="134" y="-20" on="0"/>
        <pt x="49" y="115" on="1"/>
        <pt x="-6" y="202" on="0"/>
        <pt x="-6" y="327" on="1"/>
        <pt x="-6" y="399" on="0"/>
        <pt x="12" y="483" on="1"/>
        <pt x="63" y="725" on="0"/>
        <pt x="320" y="991" on="0"/>
        <pt x="505" y="991" on="1"/>
        <pt x="626" y="991" on="0"/>
        <pt x="685" y="874" on="1"/>
        <pt x="698" y="877" on="1"/>
        <pt x="688" y="1053" on="0"/>
        <pt x="583" y="1194" on="1"/>
        <pt x="332" y="1049" on="1"/>
        <pt x="267" y="1194" on="1"/>
        <pt x="486" y="1317" on="1"/>
        <pt x="443" y="1356" on="0"/>
        <pt x="353" y="1413" on="1"/>
        <pt x="480" y="1571" on="1"/>
        <pt x="613" y="1494" on="0"/>
        <pt x="683" y="1427" on="1"/>
        <pt x="920" y="1567" on="1"/>
        <pt x="984" y="1423" on="1"/>
        <pt x="790" y="1313" on="1"/>
        <pt x="927" y="1130" on="0"/>
      </contour>
      <contour>
        <pt x="511" y="780" on="1"/>
        <pt x="425" y="780" on="0"/>
        <pt x="316" y="635" on="0"/>
        <pt x="284" y="483" on="1"/>
        <pt x="269" y="414" on="0"/>
        <pt x="269" y="363" on="1"/>
        <pt x="269" y="207" on="0"/>
        <pt x="387" y="207" on="1"/>
        <pt x="470" y="207" on="0"/>
        <pt x="579" y="366" on="0"/>
        <pt x="614" y="530" on="1"/>
        <pt x="626" y="585" on="0"/>
        <pt x="626" y="678" on="0"/>
        <pt x="611" y="713" on="1"/>
        <pt x="583" y="780" on="0"/>
      </contour>
    </TTGlyph>
    <TTGlyph name="exclam" xMin="-18" yMin="-27" xMax="596" yMax="1462">
      <contour>
        <pt x="335" y="471" on="1"/>
        <pt x="116" y="471" on="1"/>
        <pt x="277" y="1462" on="1"/>
        <pt x="596" y="1462" on="1"/>
      </contour>
      <contour>
        <pt x="106" y="301" on="0"/>
        <pt x="268" y="301" on="0"/>
        <pt x="302" y="258" on="1"/>
        <pt x="325" y="230" on="0"/>
        <pt x="325" y="186" on="1"/>
        <pt x="325" y="163" on="0"/>
        <pt x="319" y="137" on="1"/>
        <pt x="303" y="59" on="0"/>
        <pt x="197" y="-27" on="0"/>
        <pt x="38" y="-27" on="0"/>
        <pt x="4" y="16" on="1"/>
        <pt x="-18" y="45" on="0"/>
        <pt x="-18" y="88" on="1"/>
        <pt x="-18" y="111" on="0"/>
        <pt x="-12" y="137" on="1"/>
        <pt x="5" y="216" on="0"/>
      </contour>
    </TTGlyph>
    <TTGlyph name="exclamdown" xMin="-45" yMin="-369" xMax="571" yMax="1118">
      <contour>
        <pt x="250" y="1032" on="0"/>
        <pt x="356" y="1118" on="0"/>
        <pt x="513" y="1118" on="0"/>
        <pt x="548" y="1075" on="1"/>
        <pt x="571" y="1046" on="0"/>
        <pt x="571" y="1002" on="1"/>
        <pt x="571" y="980" on="0"/>
        <pt x="565" y="954" on="1"/>
        <pt x="548" y="875" on="0"/>
        <pt x="445" y="791" on="0"/>
        <pt x="285" y="791" on="0"/>
        <pt x="252" y="833" on="1"/>
        <pt x="229" y="861" on="0"/>
        <pt x="229" y="907" on="1"/>
        <pt x="229" y="928" on="0"/>
        <pt x="234" y="954" on="1"/>
      </contour>
      <contour>
        <pt x="278" y="-369" on="1"/>
        <pt x="-45" y="-369" on="1"/>
        <pt x="216" y="621" on="1"/>
        <pt x="437" y="621" on="1"/>
      </contour>
    </TTGlyph>
    <TTGlyph name="f" xMin="-9" yMin="0" xMax="841" yMax="1567">
      <contour>
        <pt x="650" y="1567" on="1"/>
        <pt x="757" y="1567" on="0"/>
        <pt x="841" y="1522" on="1"/>
        <pt x="728" y="1319" on="1"/>
        <pt x="683" y="1343" on="0"/>
        <pt x="585" y="1343" on="0"/>
        <pt x="528" y="1271" on="0"/>
        <pt x="512" y="1196" on="1"/>
        <pt x="494" y="1114" on="1"/>
        <pt x="678" y="1114" on="1"/>
        <pt x="633" y="903" on="1"/>
        <pt x="449" y="903" on="1"/>
        <pt x="257" y="0" on="1"/>
        <pt x="-9" y="0" on="1"/>
        <pt x="183" y="903" on="1"/>
        <pt x="54" y="903" on="1"/>
        <pt x="83" y="1036" on="1"/>
        <pt x="229" y="1116" on="1"/>
        <pt x="247" y="1200" on="1"/>
        <pt x="286" y="1388" on="0"/>
        <pt x="480" y="1567" on="0"/>
      </contour>
    </TTGlyph>
    <TTGlyph name="finalkafdageshhb" xMin="114" yMin="-492" xMax="768" yMax="1310">
      <contour>
        <pt x="191" y="1283" on="1"/>
        <pt x="315" y="1310" on="0"/>
        <pt x="533" y="1310" on="0"/>
        <pt x="655" y="1267" on="0"/>
        <pt x="690" y="1226" on="1"/>
        <pt x="763" y="1143" on="0"/>
        <pt x="768" y="1014" on="1"/>
        <pt x="768" y="997" on="0"/>
        <pt x="768" y="963" on="1"/>
        <pt x="768" y="871" on="0"/>
        <pt x="739" y="737" on="1"/>
        <pt x="477" y="-492" on="1"/>
        <pt x="211" y="-492" on="1"/>
        <pt x="473" y="737" on="1"/>
        <pt x="493" y="832" on="0"/>
        <pt x="493" y="942" on="0"/>
        <pt x="481" y="1025" on="0"/>
        <pt x="426" y="1082" on="0"/>
        <pt x="380" y="1082" on="1"/>
        <pt x="296" y="1082" on="0"/>
        <pt x="144" y="1061" on="1"/>
      </contour>
      <contour>
        <pt x="155" y="699" on="1"/>
        <pt x="185" y="722" on="0"/>
        <pt x="272" y="722" on="0"/>
        <pt x="308" y="681" on="0"/>
        <pt x="308" y="663" on="1"/>
        <pt x="308" y="604" on="0"/>
        <pt x="267" y="572" on="1"/>
        <pt x="236" y="549" on="0"/>
        <pt x="148" y="549" on="0"/>
        <pt x="114" y="587" on="0"/>
        <pt x="114" y="605" on="1"/>
        <pt x="114" y="668" on="0"/>
      </contour>
    </TTGlyph>
    <TTGlyph name="finalpedageshhb" xMin="83" yMin="-492" xMax="934" yMax="1310">
      <contour>
        <pt x="83" y="726" on="1"/>
        <pt x="83" y="784" on="0"/>
        <pt x="98" y="853" on="1"/>
        <pt x="122" y="965" on="0"/>
        <pt x="230" y="1143" on="0"/>
        <pt x="301" y="1198" on="1"/>
        <pt x="446" y="1310" on="0"/>
        <pt x="614" y="1310" on="1"/>
        <pt x="740" y="1310" on="0"/>
        <pt x="826" y="1232" on="1"/>
        <pt x="858" y="1203" on="0"/>
        <pt x="885" y="1152" on="1"/>
        <pt x="934" y="1058" on="0"/>
        <pt x="934" y="912" on="1"/>
        <pt x="934" y="789" on="0"/>
        <pt x="903" y="646" on="1"/>
        <pt x="661" y="-492" on="1"/>
        <pt x="395" y="-492" on="1"/>
        <pt x="637" y="646" on="1"/>
        <pt x="672" y="813" on="0"/>
        <pt x="672" y="922" on="1"/>
        <pt x="672" y="997" on="0"/>
        <pt x="637" y="1069" on="0"/>
        <pt x="596" y="1093" on="0"/>
        <pt x="528" y="1093" on="0"/>
        <pt x="461" y="1051" on="0"/>
        <pt x="420" y="995" on="0"/>
        <pt x="404" y="959" on="1"/>
        <pt x="379" y="904" on="0"/>
        <pt x="362" y="818" on="0"/>
        <pt x="362" y="782" on="1"/>
        <pt x="362" y="663" on="0"/>
        <pt x="467" y="643" on="1"/>
        <pt x="503" y="636" on="1"/>
        <pt x="408" y="426" on="1"/>
        <pt x="356" y="433" on="1"/>
        <pt x="239" y="451" on="0"/>
        <pt x="174" y="502" on="1"/>
        <pt x="83" y="573" on="0"/>
      </contour>
      <contour>
        <pt x="493" y="927" on="1"/>
        <pt x="523" y="950" on="0"/>
        <pt x="610" y="950" on="0"/>
        <pt x="646" y="909" on="0"/>
        <pt x="646" y="891" on="1"/>
        <pt x="646" y="832" on="0"/>
        <pt x="605" y="800" on="1"/>
        <pt x="574" y="777" on="0"/>
        <pt x="486" y="777" on="0"/>
        <pt x="452" y="815" on="0"/>
        <pt x="452" y="833" on="1"/>
        <pt x="452" y="896" on="0"/>
      </contour>
    </TTGlyph>
    <TTGlyph name="five" xMin="-52" yMin="-20" xMax="940" yMax="1462">
      <contour>
        <pt x="541" y="915" on="1"/>
        <pt x="706" y="915" on="0"/>
        <pt x="779" y="800" on="1"/>
        <pt x="825" y="726" on="0"/>
        <pt x="825" y="619" on="1"/>
        <pt x="825" y="557" on="0"/>
        <pt x="810" y="485" on="1"/>
        <pt x="759" y="246" on="0"/>
        <pt x="460" y="-20" on="0"/>
        <pt x="243" y="-20" on="1"/>
        <pt x="51" y="-20" on="0"/>
        <pt x="-52" y="53" on="1"/>
        <pt x="2" y="307" on="1"/>
        <pt x="46" y="270" on="0"/>
        <pt x="193" y="213" on="0"/>
        <pt x="263" y="213" on="1"/>
        <pt x="479" y="213" on="0"/>
        <pt x="531" y="463" on="1"/>
        <pt x="541" y="508" on="0"/>
        <pt x="541" y="544" on="1"/>
        <pt x="541" y="696" on="0"/>
        <pt x="372" y="696" on="1"/>
        <pt x="290" y="696" on="0"/>
        <pt x="189" y="664" on="1"/>
        <pt x="115" y="729" on="1"/>
        <pt x="316" y="1462" on="1"/>
        <pt x="940" y="1462" on="1"/>
        <pt x="888" y="1219" on="1"/>
        <pt x="497" y="1219" on="1"/>
        <pt x="410" y="903" on="1"/>
        <pt x="467" y="915" on="0"/>
      </contour>
    </TTGlyph>
    <TTGlyph name="florin" xMin="-156" yMin="-492" xMax="1095" yMax="1483">
      <contour>
        <pt x="861" y="1483" on="1"/>
        <pt x="999" y="1483" on="0"/>
        <pt x="1095" y="1438" on="1"/>
        <pt x="983" y="1231" on="1"/>
        <pt x="911" y="1260" on="0"/>
        <pt x="794" y="1260" on="0"/>
        <pt x="726" y="1183" on="0"/>
        <pt x="710" y="1106" on="1"/>
        <pt x="694" y="1030" on="1"/>
        <pt x="913" y="1030" on="1"/>
        <pt x="867" y="817" on="1"/>
        <pt x="648" y="817" on="1"/>
        <pt x="447" y="-121" on="1"/>
        <pt x="408" y="-303" on="0"/>
        <pt x="185" y="-492" on="0"/>
        <pt x="11" y="-492" on="1"/>
        <pt x="-76" y="-492" on="0"/>
        <pt x="-156" y="-469" on="1"/>
        <pt x="-109" y="-246" on="1"/>
        <pt x="-54" y="-264" on="0"/>
        <pt x="74" y="-264" on="0"/>
        <pt x="155" y="-178" on="0"/>
        <pt x="175" y="-86" on="1"/>
        <pt x="367" y="817" on="1"/>
        <pt x="201" y="817" on="1"/>
        <pt x="230" y="952" on="1"/>
        <pt x="413" y="1030" on="1"/>
        <pt x="431" y="1116" on="1"/>
        <pt x="471" y="1306" on="0"/>
        <pt x="676" y="1483" on="0"/>
      </contour>
    </TTGlyph>
    <TTGlyph name="four" xMin="-53" yMin="0" xMax="925" yMax="1462">
      <contour>
        <pt x="728" y="532" on="1"/>
        <pt x="876" y="532" on="1"/>
        <pt x="828" y="307" on="1"/>
        <pt x="680" y="307" on="1"/>
        <pt x="615" y="0" on="1"/>
        <pt x="359" y="0" on="1"/>
        <pt x="424" y="307" on="1"/>
        <pt x="-53" y="307" on="1"/>
        <pt x="-6" y="528" on="1"/>
        <pt x="634" y="1462" on="1"/>
        <pt x="925" y="1462" on="1"/>
      </contour>
      <contour>
        <pt x="606" y="1106" on="1"/>
        <pt x="598" y="1106" on="1"/>
        <pt x="546" y="1010" on="0"/>
        <pt x="480" y="909" on="1"/>
        <pt x="224" y="532" on="1"/>
        <pt x="472" y="532" on="1"/>
        <pt x="537" y="840" on="1"/>
        <pt x="571" y="976" on="1"/>
      </contour>
    </TTGlyph>
    <TTGlyph name="fraction" xMin="-528" yMin="0" xMax="728" yMax="1462">
      <contour>
        <pt x="-325" y="0" on="1"/>
        <pt x="-528" y="0" on="1"/>
        <pt x="524" y="1462" on="1"/>
        <pt x="728" y="1462" on="1"/>
      </contour>
    </TTGlyph>
    <TTGlyph name="g" xMin="-98" yMin="-492" xMax="1083" yMax="1135">
      <contour>
        <pt x="430" y="221" on="1"/>
        <pt x="591" y="221" on="1"/>
        <pt x="734" y="221" on="0"/>
        <pt x="794" y="144" on="1"/>
        <pt x="832" y="94" on="0"/>
        <pt x="832" y="13" on="1"/>
        <pt x="832" y="-32" on="0"/>
        <pt x="820" y="-86" on="1"/>
        <pt x="779" y="-281" on="0"/>
        <pt x="473" y="-492" on="0"/>
        <pt x="230" y="-492" on="1"/>
        <pt x="45" y="-492" on="0"/>
        <pt x="-38" y="-412" on="1"/>
        <pt x="-98" y="-353" on="0"/>
        <pt x="-98" y="-260" on="1"/>
        <pt x="-98" y="-118" on="0"/>
        <pt x="2" y="-18" on="1"/>
        <pt x="74" y="52" on="0"/>
        <pt x="183" y="84" on="1"/>
        <pt x="134" y="105" on="0"/>
        <pt x="112" y="147" on="1"/>
        <pt x="97" y="174" on="0"/>
        <pt x="97" y="225" on="0"/>
        <pt x="101" y="244" on="1"/>
        <pt x="113" y="306" on="0"/>
        <pt x="163" y="357" on="1"/>
        <pt x="187" y="382" on="0"/>
        <pt x="254" y="430" on="1"/>
        <pt x="195" y="472" on="0"/>
        <pt x="172" y="559" on="1"/>
        <pt x="162" y="601" on="0"/>
        <pt x="162" y="698" on="0"/>
        <pt x="174" y="752" on="1"/>
        <pt x="212" y="935" on="0"/>
        <pt x="447" y="1135" on="0"/>
        <pt x="626" y="1135" on="1"/>
        <pt x="657" y="1135" on="0"/>
        <pt x="746" y="1119" on="0"/>
        <pt x="766" y="1112" on="1"/>
        <pt x="1083" y="1112" on="1"/>
        <pt x="1050" y="956" on="1"/>
        <pt x="910" y="926" on="1"/>
        <pt x="923" y="891" on="0"/>
        <pt x="923" y="802" on="0"/>
        <pt x="912" y="750" on="1"/>
        <pt x="875" y="574" on="0"/>
        <pt x="641" y="373" on="0"/>
        <pt x="468" y="373" on="1"/>
        <pt x="420" y="373" on="0"/>
        <pt x="396" y="381" on="1"/>
        <pt x="375" y="365" on="0"/>
        <pt x="364" y="356" on="1"/>
        <pt x="331" y="325" on="0"/>
        <pt x="317" y="256" on="0"/>
        <pt x="369" y="221" on="0"/>
      </contour>
      <contour>
        <pt x="588" y="956" on="1"/>
        <pt x="477" y="956" on="0"/>
        <pt x="433" y="750" on="1"/>
        <pt x="421" y="696" on="0"/>
        <pt x="421" y="657" on="1"/>
        <pt x="421" y="553" on="0"/>
        <pt x="502" y="553" on="1"/>
        <pt x="610" y="553" on="0"/>
        <pt x="653" y="752" on="1"/>
        <pt x="665" y="810" on="0"/>
        <pt x="665" y="851" on="1"/>
        <pt x="665" y="956" on="0"/>
      </contour>
      <contour>
        <pt x="437" y="-12" on="1"/>
        <pt x="308" y="-12" on="1"/>
        <pt x="254" y="-12" on="0"/>
        <pt x="172" y="-93" on="0"/>
        <pt x="157" y="-162" on="1"/>
        <pt x="153" y="-181" on="0"/>
        <pt x="153" y="-198" on="1"/>
        <pt x="153" y="-238" on="0"/>
        <pt x="177" y="-264" on="1"/>
        <pt x="211" y="-299" on="0"/>
        <pt x="288" y="-299" on="1"/>
        <pt x="407" y="-299" on="0"/>
        <pt x="549" y="-209" on="0"/>
        <pt x="567" y="-127" on="1"/>
        <pt x="572" y="-106" on="0"/>
        <pt x="572" y="-55" on="0"/>
        <pt x="553" y="-38" on="1"/>
        <pt x="525" y="-12" on="0"/>
      </contour>
    </TTGlyph>
    <TTGlyph name="gereshhb" xMin="66" yMin="789" xMax="547" yMax="1290">
      <contour>
        <pt x="537" y="1290" on="1"/>
        <pt x="547" y="1268" on="1"/>
        <pt x="456" y="1072" on="0"/>
        <pt x="269" y="789" on="1"/>
        <pt x="66" y="789" on="1"/>
        <pt x="184" y="1046" on="0"/>
        <pt x="273" y="1290" on="1"/>
      </contour>
    </TTGlyph>
    <TTGlyph name="germandbls" xMin="-51" yMin="-20" xMax="1072" yMax="1567">
      <contour>
        <pt x="236" y="1352" on="0"/>
        <pt x="506" y="1567" on="0"/>
        <pt x="911" y="1567" on="0"/>
        <pt x="1003" y="1482" on="1"/>
        <pt x="1072" y="1418" on="0"/>
        <pt x="1072" y="1319" on="1"/>
        <pt x="1072" y="1284" on="0"/>
        <pt x="1063" y="1245" on="1"/>
        <pt x="1032" y="1095" on="0"/>
        <pt x="901" y="982" on="1"/>
        <pt x="839" y="929" on="1"/>
        <pt x="770" y="869" on="0"/>
        <pt x="763" y="836" on="1"/>
        <pt x="761" y="826" on="0"/>
        <pt x="761" y="791" on="0"/>
        <pt x="794" y="734" on="0"/>
        <pt x="956" y="577" on="0"/>
        <pt x="974" y="506" on="1"/>
        <pt x="983" y="473" on="0"/>
        <pt x="983" y="390" on="0"/>
        <pt x="972" y="338" on="1"/>
        <pt x="937" y="169" on="0"/>
        <pt x="696" y="-20" on="0"/>
        <pt x="513" y="-20" on="1"/>
        <pt x="374" y="-20" on="0"/>
        <pt x="294" y="33" on="1"/>
        <pt x="341" y="258" on="1"/>
        <pt x="430" y="188" on="0"/>
        <pt x="535" y="188" on="1"/>
        <pt x="669" y="188" on="0"/>
        <pt x="696" y="317" on="1"/>
        <pt x="701" y="338" on="0"/>
        <pt x="701" y="386" on="0"/>
        <pt x="689" y="412" on="1"/>
        <pt x="670" y="454" on="0"/>
        <pt x="598" y="522" on="1"/>
        <pt x="522" y="589" on="0"/>
        <pt x="497" y="651" on="1"/>
        <pt x="482" y="689" on="0"/>
        <pt x="482" y="727" on="1"/>
        <pt x="482" y="832" on="0"/>
        <pt x="539" y="912" on="1"/>
        <pt x="575" y="963" on="0"/>
        <pt x="710" y="1073" on="0"/>
        <pt x="772" y="1154" on="0"/>
        <pt x="787" y="1222" on="0"/>
        <pt x="787" y="1240" on="1"/>
        <pt x="787" y="1281" on="0"/>
        <pt x="766" y="1308" on="1"/>
        <pt x="736" y="1346" on="0"/>
        <pt x="663" y="1346" on="1"/>
        <pt x="500" y="1346" on="0"/>
        <pt x="458" y="1143" on="1"/>
        <pt x="215" y="0" on="1"/>
        <pt x="-51" y="0" on="1"/>
        <pt x="193" y="1151" on="1"/>
      </contour>
    </TTGlyph>
    <TTGlyph name="gershayimhb" xMin="72" yMin="789" xMax="988" yMax="1290">
      <contour>
        <pt x="543" y="1290" on="1"/>
        <pt x="553" y="1268" on="1"/>
        <pt x="462" y="1072" on="0"/>
        <pt x="275" y="789" on="1"/>
        <pt x="72" y="789" on="1"/>
        <pt x="190" y="1046" on="0"/>
        <pt x="279" y="1290" on="1"/>
      </contour>
      <contour>
        <pt x="977" y="1290" on="1"/>
        <pt x="988" y="1268" on="1"/>
        <pt x="896" y="1074" on="0"/>
        <pt x="709" y="789" on="1"/>
        <pt x="507" y="789" on="1"/>
        <pt x="623" y="1040" on="0"/>
        <pt x="713" y="1290" on="1"/>
      </contour>
    </TTGlyph>
    <TTGlyph name="gimeldageshhb" xMin="-102" yMin="-20" xMax="766" yMax="1310">
      <contour>
        <pt x="302" y="1287" on="1"/>
        <pt x="375" y="1310" on="0"/>
        <pt x="566" y="1310" on="0"/>
        <pt x="685" y="1272" on="0"/>
        <pt x="716" y="1240" on="1"/>
        <pt x="766" y="1190" on="0"/>
        <pt x="766" y="1085" on="1"/>
        <pt x="766" y="1028" on="0"/>
        <pt x="744" y="926" on="1"/>
        <pt x="547" y="0" on="1"/>
        <pt x="355" y="0" on="1"/>
        <pt x="350" y="188" on="1"/>
        <pt x="335" y="188" on="1"/>
        <pt x="320" y="158" on="0"/>
        <pt x="252" y="80" on="0"/>
        <pt x="181" y="25" on="0"/>
        <pt x="62" y="-20" on="0"/>
        <pt x="-3" y="-20" on="1"/>
        <pt x="-43" y="-20" on="0"/>
        <pt x="-102" y="-9" on="1"/>
        <pt x="-28" y="238" on="1"/>
        <pt x="-25" y="235" on="0"/>
        <pt x="29" y="229" on="0"/>
        <pt x="54" y="229" on="1"/>
        <pt x="167" y="229" on="0"/>
        <pt x="247" y="268" on="1"/>
        <pt x="310" y="298" on="0"/>
        <pt x="369" y="418" on="0"/>
        <pt x="393" y="526" on="1"/>
        <pt x="478" y="926" on="1"/>
        <pt x="486" y="962" on="0"/>
        <pt x="486" y="990" on="1"/>
        <pt x="486" y="1087" on="0"/>
        <pt x="394" y="1087" on="1"/>
        <pt x="332" y="1087" on="0"/>
        <pt x="275" y="1070" on="1"/>
        <pt x="255" y="1064" on="1"/>
      </contour>
      <contour>
        <pt x="162" y="699" on="1"/>
        <pt x="192" y="722" on="0"/>
        <pt x="279" y="722" on="0"/>
        <pt x="315" y="681" on="0"/>
        <pt x="315" y="663" on="1"/>
        <pt x="315" y="604" on="0"/>
        <pt x="274" y="572" on="1"/>
        <pt x="243" y="549" on="0"/>
        <pt x="155" y="549" on="0"/>
        <pt x="121" y="587" on="0"/>
        <pt x="121" y="605" on="1"/>
        <pt x="121" y="668" on="0"/>
      </contour>
    </TTGlyph>
    <TTGlyph name="grave" xMin="341" yMin="1241" xMax="772" yMax="1569">
      <contour>
        <pt x="346" y="1569" on="1"/>
        <pt x="664" y="1569" on="1"/>
        <pt x="677" y="1513" on="0"/>
        <pt x="743" y="1321" on="0"/>
        <pt x="772" y="1268" on="1"/>
        <pt x="766" y="1241" on="1"/>
        <pt x="579" y="1241" on="1"/>
        <pt x="511" y="1307" on="0"/>
        <pt x="358" y="1502" on="0"/>
        <pt x="341" y="1548" on="1"/>
      </contour>
    </TTGlyph>
    <TTGlyph name="greater" xMin="-3" yMin="209" xMax="828" yMax="1235">
      <contour>
        <pt x="828" y="801" on="1"/>
        <pt x="795" y="645" on="1"/>
        <pt x="-3" y="209" on="1"/>
        <pt x="45" y="434" on="1"/>
        <pt x="596" y="723" on="1"/>
        <pt x="167" y="1010" on="1"/>
        <pt x="215" y="1235" on="1"/>
      </contour>
    </TTGlyph>
    <TTGlyph name="guillemotleft" xMin="71" yMin="98" xMax="1141" yMax="1016">
      <contour>
        <pt x="654" y="905" on="1"/>
        <pt x="360" y="557" on="1"/>
        <pt x="506" y="209" on="1"/>
        <pt x="283" y="98" on="1"/>
        <pt x="71" y="543" on="1"/>
        <pt x="77" y="569" on="1"/>
        <pt x="479" y="1016" on="1"/>
      </contour>
      <contour>
        <pt x="1141" y="905" on="1"/>
        <pt x="848" y="557" on="1"/>
        <pt x="993" y="209" on="1"/>
        <pt x="770" y="98" on="1"/>
        <pt x="558" y="543" on="1"/>
        <pt x="564" y="569" on="1"/>
        <pt x="966" y="1016" on="1"/>
      </contour>
    </TTGlyph>
    <TTGlyph name="guillemotright" xMin="0" yMin="98" xMax="1070" yMax="1016">
      <contour>
        <pt x="583" y="569" on="1"/>
        <pt x="577" y="543" on="1"/>
        <pt x="174" y="98" on="1"/>
        <pt x="0" y="209" on="1"/>
        <pt x="293" y="557" on="1"/>
        <pt x="148" y="905" on="1"/>
        <pt x="370" y="1016" on="1"/>
      </contour>
      <contour>
        <pt x="1070" y="569" on="1"/>
        <pt x="1064" y="543" on="1"/>
        <pt x="662" y="98" on="1"/>
        <pt x="487" y="209" on="1"/>
        <pt x="780" y="557" on="1"/>
        <pt x="635" y="905" on="1"/>
        <pt x="858" y="1016" on="1"/>
      </contour>
    </TTGlyph>
    <TTGlyph name="guilsinglleft" xMin="71" yMin="98" xMax="654" yMax="1016">
      <contour>
        <pt x="654" y="905" on="1"/>
        <pt x="360" y="557" on="1"/>
        <pt x="506" y="209" on="1"/>
        <pt x="283" y="98" on="1"/>
        <pt x="71" y="543" on="1"/>
        <pt x="77" y="569" on="1"/>
        <pt x="479" y="1016" on="1"/>
      </contour>
    </TTGlyph>
    <TTGlyph name="guilsinglright" xMin="0" yMin="98" xMax="583" yMax="1016">
      <contour>
        <pt x="583" y="569" on="1"/>
        <pt x="577" y="543" on="1"/>
        <pt x="174" y="98" on="1"/>
        <pt x="0" y="209" on="1"/>
        <pt x="293" y="557" on="1"/>
        <pt x="148" y="905" on="1"/>
        <pt x="370" y="1016" on="1"/>
      </contour>
    </TTGlyph>
    <TTGlyph name="h" xMin="-52" yMin="0" xMax="944" yMax="1556">
      <contour>
        <pt x="703" y="1135" on="1"/>
        <pt x="944" y="1135" on="0"/>
        <pt x="944" y="883" on="1"/>
        <pt x="944" y="814" on="0"/>
        <pt x="925" y="727" on="1"/>
        <pt x="771" y="0" on="1"/>
        <pt x="503" y="0" on="1"/>
        <pt x="644" y="664" on="1"/>
        <pt x="659" y="736" on="0"/>
        <pt x="659" y="787" on="1"/>
        <pt x="659" y="909" on="0"/>
        <pt x="573" y="909" on="1"/>
        <pt x="484" y="909" on="0"/>
        <pt x="368" y="723" on="0"/>
        <pt x="327" y="535" on="1"/>
        <pt x="214" y="0" on="1"/>
        <pt x="-52" y="0" on="1"/>
        <pt x="278" y="1556" on="1"/>
        <pt x="544" y="1556" on="1"/>
        <pt x="471" y="1210" on="1"/>
        <pt x="457" y="1147" on="0"/>
        <pt x="408" y="971" on="1"/>
        <pt x="422" y="971" on="1"/>
        <pt x="536" y="1135" on="0"/>
      </contour>
    </TTGlyph>
    <TTGlyph name="hedageshhb" xMin="-26" yMin="0" xMax="1006" yMax="1310">
      <contour>
        <pt x="541" y="1310" on="0"/>
        <pt x="764" y="1310" on="0"/>
        <pt x="906" y="1271" on="0"/>
        <pt x="944" y="1236" on="1"/>
        <pt x="1006" y="1181" on="0"/>
        <pt x="1006" y="1055" on="1"/>
        <pt x="1006" y="985" on="0"/>
        <pt x="980" y="861" on="1"/>
        <pt x="797" y="0" on="1"/>
        <pt x="530" y="0" on="1"/>
        <pt x="713" y="862" on="1"/>
        <pt x="727" y="926" on="0"/>
        <pt x="727" y="1018" on="0"/>
        <pt x="711" y="1044" on="1"/>
        <pt x="681" y="1093" on="0"/>
        <pt x="573" y="1093" on="1"/>
        <pt x="500" y="1093" on="0"/>
        <pt x="312" y="1074" on="0"/>
        <pt x="255" y="1064" on="1"/>
        <pt x="198" y="1054" on="1"/>
        <pt x="243" y="1267" on="1"/>
        <pt x="297" y="1283" on="0"/>
      </contour>
      <contour>
        <pt x="-26" y="0" on="1"/>
        <pt x="149" y="823" on="1"/>
        <pt x="416" y="823" on="1"/>
        <pt x="241" y="0" on="1"/>
      </contour>
      <contour>
        <pt x="465" y="699" on="1"/>
        <pt x="495" y="722" on="0"/>
        <pt x="582" y="722" on="0"/>
        <pt x="618" y="681" on="0"/>
        <pt x="618" y="663" on="1"/>
        <pt x="618" y="604" on="0"/>
        <pt x="577" y="572" on="1"/>
        <pt x="546" y="549" on="0"/>
        <pt x="458" y="549" on="0"/>
        <pt x="424" y="587" on="0"/>
        <pt x="424" y="605" on="1"/>
        <pt x="424" y="668" on="0"/>
      </contour>
    </TTGlyph>
    <TTGlyph name="hungarumlaut" xMin="117" yMin="1241" xMax="1032" yMax="1569">
      <contour>
        <pt x="641" y="1569" on="1"/>
        <pt x="636" y="1548" on="1"/>
        <pt x="598" y="1501" on="0"/>
        <pt x="362" y="1306" on="0"/>
        <pt x="268" y="1241" on="1"/>
        <pt x="117" y="1241" on="1"/>
        <pt x="123" y="1268" on="1"/>
        <pt x="174" y="1322" on="0"/>
        <pt x="314" y="1500" on="0"/>
        <pt x="361" y="1569" on="1"/>
      </contour>
      <contour>
        <pt x="1032" y="1569" on="1"/>
        <pt x="1027" y="1548" on="1"/>
        <pt x="993" y="1505" on="0"/>
        <pt x="759" y="1313" on="0"/>
        <pt x="657" y="1241" on="1"/>
        <pt x="508" y="1241" on="1"/>
        <pt x="514" y="1268" on="1"/>
        <pt x="565" y="1322" on="0"/>
        <pt x="705" y="1500" on="0"/>
        <pt x="752" y="1569" on="1"/>
      </contour>
    </TTGlyph>
    <TTGlyph name="hyphen" xMin="47" yMin="432" xMax="600" yMax="666">
      <contour>
        <pt x="550" y="432" on="1"/>
        <pt x="47" y="432" on="1"/>
        <pt x="97" y="666" on="1"/>
        <pt x="600" y="666" on="1"/>
      </contour>
    </TTGlyph>
    <TTGlyph name="i" xMin="-50" yMin="0" xMax="531" yMax="1548">
      <contour>
        <pt x="252" y="1471" on="0"/>
        <pt x="346" y="1548" on="0"/>
        <pt x="480" y="1548" on="0"/>
        <pt x="510" y="1510" on="1"/>
        <pt x="531" y="1483" on="0"/>
        <pt x="531" y="1444" on="1"/>
        <pt x="531" y="1426" on="0"/>
        <pt x="527" y="1405" on="1"/>
        <pt x="513" y="1338" on="0"/>
        <pt x="418" y="1262" on="0"/>
        <pt x="287" y="1262" on="0"/>
        <pt x="256" y="1300" on="1"/>
        <pt x="234" y="1326" on="0"/>
        <pt x="234" y="1367" on="1"/>
        <pt x="234" y="1384" on="0"/>
        <pt x="238" y="1405" on="1"/>
      </contour>
      <contour>
        <pt x="216" y="0" on="1"/>
        <pt x="-50" y="0" on="1"/>
        <pt x="187" y="1114" on="1"/>
        <pt x="453" y="1114" on="1"/>
      </contour>
    </TTGlyph>
    <TTGlyph name="iacute" xMin="-52" yMin="0" xMax="770" yMax="1569">
      <contour>
        <pt x="770" y="1569" on="1"/>
        <pt x="765" y="1548" on="1"/>
        <pt x="735" y="1508" on="0"/>
        <pt x="617" y="1409" on="1"/>
        <pt x="508" y="1320" on="0"/>
        <pt x="397" y="1241" on="1"/>
        <pt x="210" y="1241" on="1"/>
        <pt x="216" y="1268" on="1"/>
        <pt x="268" y="1322" on="0"/>
        <pt x="415" y="1512" on="0"/>
        <pt x="452" y="1569" on="1"/>
      </contour>
      <contour>
        <pt x="214" y="0" on="1"/>
        <pt x="-52" y="0" on="1"/>
        <pt x="185" y="1114" on="1"/>
        <pt x="451" y="1114" on="1"/>
      </contour>
    </TTGlyph>
    <TTGlyph name="icircumflex" xMin="-52" yMin="0" xMax="704" yMax="1569">
      <contour>
        <pt x="274" y="1569" on="1"/>
        <pt x="551" y="1569" on="1"/>
        <pt x="576" y="1489" on="0"/>
        <pt x="704" y="1268" on="1"/>
        <pt x="698" y="1241" on="1"/>
        <pt x="530" y="1241" on="1"/>
        <pt x="449" y="1313" on="0"/>
        <pt x="379" y="1419" on="1"/>
        <pt x="273" y="1322" on="0"/>
        <pt x="155" y="1241" on="1"/>
        <pt x="-13" y="1241" on="1"/>
        <pt x="-7" y="1268" on="1"/>
        <pt x="220" y="1495" on="0"/>
      </contour>
      <contour>
        <pt x="214" y="0" on="1"/>
        <pt x="-52" y="0" on="1"/>
        <pt x="185" y="1114" on="1"/>
        <pt x="451" y="1114" on="1"/>
      </contour>
    </TTGlyph>
    <TTGlyph name="idieresis" xMin="-48" yMin="0" xMax="718" yMax="1532">
      <contour>
        <pt x="148" y="1532" on="0"/>
        <pt x="272" y="1532" on="0"/>
        <pt x="300" y="1496" on="1"/>
        <pt x="319" y="1472" on="0"/>
        <pt x="319" y="1447" on="1"/>
        <pt x="319" y="1358" on="0"/>
        <pt x="260" y="1310" on="1"/>
        <pt x="217" y="1276" on="0"/>
        <pt x="93" y="1276" on="0"/>
        <pt x="65" y="1310" on="1"/>
        <pt x="46" y="1332" on="0"/>
        <pt x="46" y="1358" on="1"/>
        <pt x="46" y="1449" on="0"/>
        <pt x="106" y="1498" on="1"/>
      </contour>
      <contour>
        <pt x="461" y="1463" on="0"/>
        <pt x="546" y="1532" on="0"/>
        <pt x="670" y="1532" on="0"/>
        <pt x="698" y="1498" on="1"/>
        <pt x="718" y="1474" on="0"/>
        <pt x="718" y="1448" on="1"/>
        <pt x="718" y="1357" on="0"/>
        <pt x="659" y="1310" on="1"/>
        <pt x="616" y="1276" on="0"/>
        <pt x="492" y="1276" on="0"/>
        <pt x="464" y="1310" on="1"/>
        <pt x="444" y="1335" on="0"/>
        <pt x="444" y="1370" on="1"/>
        <pt x="444" y="1386" on="0"/>
        <pt x="448" y="1403" on="1"/>
      </contour>
      <contour>
        <pt x="218" y="0" on="1"/>
        <pt x="-48" y="0" on="1"/>
        <pt x="189" y="1114" on="1"/>
        <pt x="455" y="1114" on="1"/>
      </contour>
    </TTGlyph>
    <TTGlyph name="igrave" xMin="-52" yMin="0" xMax="483" yMax="1569">
      <contour>
        <pt x="57" y="1569" on="1"/>
        <pt x="375" y="1569" on="1"/>
        <pt x="388" y="1513" on="0"/>
        <pt x="454" y="1321" on="0"/>
        <pt x="483" y="1268" on="1"/>
        <pt x="477" y="1241" on="1"/>
        <pt x="290" y="1241" on="1"/>
        <pt x="222" y="1307" on="0"/>
        <pt x="68" y="1502" on="0"/>
        <pt x="52" y="1548" on="1"/>
      </contour>
      <contour>
        <pt x="214" y="0" on="1"/>
        <pt x="-52" y="0" on="1"/>
        <pt x="185" y="1114" on="1"/>
        <pt x="451" y="1114" on="1"/>
      </contour>
    </TTGlyph>
    <TTGlyph name="j" xMin="-270" yMin="-492" xMax="589" yMax="1548">
      <contour>
        <pt x="311" y="1471" on="0"/>
        <pt x="405" y="1548" on="0"/>
        <pt x="539" y="1548" on="0"/>
        <pt x="569" y="1510" on="1"/>
        <pt x="589" y="1483" on="0"/>
        <pt x="589" y="1444" on="1"/>
        <pt x="589" y="1426" on="0"/>
        <pt x="585" y="1405" on="1"/>
        <pt x="571" y="1339" on="0"/>
        <pt x="478" y="1262" on="0"/>
        <pt x="346" y="1262" on="0"/>
        <pt x="314" y="1300" on="1"/>
        <pt x="293" y="1325" on="0"/>
        <pt x="293" y="1366" on="1"/>
        <pt x="293" y="1384" on="0"/>
        <pt x="297" y="1405" on="1"/>
      </contour>
      <contour>
        <pt x="-137" y="-492" on="1"/>
        <pt x="-221" y="-492" on="0"/>
        <pt x="-270" y="-467" on="1"/>
        <pt x="-224" y="-246" on="1"/>
        <pt x="-180" y="-264" on="0"/>
        <pt x="-141" y="-264" on="1"/>
        <pt x="-47" y="-264" on="0"/>
        <pt x="-11" y="-94" on="1"/>
        <pt x="246" y="1114" on="1"/>
        <pt x="512" y="1114" on="1"/>
        <pt x="247" y="-129" on="1"/>
        <pt x="210" y="-303" on="0"/>
        <pt x="10" y="-492" on="0"/>
      </contour>
    </TTGlyph>
    <TTGlyph name="k" xMin="-52" yMin="0" xMax="1015" yMax="1556">
      <contour>
        <pt x="389" y="823" on="1"/>
        <pt x="329" y="600" on="1"/>
        <pt x="337" y="600" on="1"/>
        <pt x="432" y="733" on="1"/>
        <pt x="733" y="1114" on="1"/>
        <pt x="1015" y="1114" on="1"/>
        <pt x="636" y="657" on="1"/>
        <pt x="798" y="0" on="1"/>
        <pt x="519" y="0" on="1"/>
        <pt x="418" y="471" on="1"/>
        <pt x="294" y="377" on="1"/>
        <pt x="214" y="0" on="1"/>
        <pt x="-52" y="0" on="1"/>
        <pt x="278" y="1556" on="1"/>
        <pt x="544" y="1556" on="1"/>
      </contour>
    </TTGlyph>
    <TTGlyph name="kafdageshhb" xMin="-80" yMin="-20" xMax="767" yMax="1310">
      <contour>
        <pt x="191" y="1283" on="1"/>
        <pt x="315" y="1310" on="0"/>
        <pt x="532" y="1310" on="0"/>
        <pt x="654" y="1267" on="0"/>
        <pt x="690" y="1226" on="1"/>
        <pt x="762" y="1143" on="0"/>
        <pt x="766" y="1014" on="1"/>
        <pt x="767" y="997" on="0"/>
        <pt x="767" y="963" on="1"/>
        <pt x="767" y="874" on="0"/>
        <pt x="739" y="737" on="1"/>
        <pt x="693" y="522" on="1"/>
        <pt x="658" y="351" on="0"/>
        <pt x="576" y="220" on="1"/>
        <pt x="532" y="148" on="0"/>
        <pt x="419" y="44" on="0"/>
        <pt x="260" y="-20" on="0"/>
        <pt x="105" y="-20" on="0"/>
        <pt x="-39" y="-2" on="0"/>
        <pt x="-80" y="11" on="1"/>
        <pt x="-31" y="241" on="1"/>
        <pt x="70" y="208" on="0"/>
        <pt x="194" y="208" on="1"/>
        <pt x="353" y="208" on="0"/>
        <pt x="420" y="522" on="1"/>
        <pt x="466" y="737" on="1"/>
        <pt x="489" y="846" on="0"/>
        <pt x="489" y="920" on="1"/>
        <pt x="489" y="1082" on="0"/>
        <pt x="380" y="1082" on="1"/>
        <pt x="301" y="1082" on="0"/>
        <pt x="144" y="1066" on="1"/>
      </contour>
      <contour>
        <pt x="155" y="699" on="1"/>
        <pt x="185" y="722" on="0"/>
        <pt x="272" y="722" on="0"/>
        <pt x="308" y="681" on="0"/>
        <pt x="308" y="663" on="1"/>
        <pt x="308" y="604" on="0"/>
        <pt x="267" y="572" on="1"/>
        <pt x="236" y="549" on="0"/>
        <pt x="148" y="549" on="0"/>
        <pt x="114" y="587" on="0"/>
        <pt x="114" y="605" on="1"/>
        <pt x="114" y="668" on="0"/>
      </contour>
    </TTGlyph>
    <TTGlyph name="l" xMin="-52" yMin="0" xMax="544" yMax="1556">
      <contour>
        <pt x="214" y="0" on="1"/>
        <pt x="-52" y="0" on="1"/>
        <pt x="278" y="1556" on="1"/>
        <pt x="544" y="1556" on="1"/>
      </contour>
    </TTGlyph>
    <TTGlyph name="lameddageshhb" xMin="57" yMin="0" xMax="921" yMax="1556">
      <contour>
        <pt x="921" y="1290" on="1"/>
        <pt x="883" y="1110" on="1"/>
        <pt x="583" y="497" on="1"/>
        <pt x="376" y="0" on="1"/>
        <pt x="118" y="0" on="1"/>
        <pt x="325" y="497" on="1"/>
        <pt x="607" y="1075" on="1"/>
        <pt x="138" y="1075" on="1"/>
        <pt x="240" y="1556" on="1"/>
        <pt x="506" y="1556" on="1"/>
        <pt x="450" y="1290" on="1"/>
      </contour>
      <contour>
        <pt x="98" y="699" on="1"/>
        <pt x="128" y="722" on="0"/>
        <pt x="215" y="722" on="0"/>
        <pt x="251" y="681" on="0"/>
        <pt x="251" y="663" on="1"/>
        <pt x="251" y="604" on="0"/>
        <pt x="210" y="572" on="1"/>
        <pt x="179" y="549" on="0"/>
        <pt x="91" y="549" on="0"/>
        <pt x="57" y="587" on="0"/>
        <pt x="57" y="605" on="1"/>
        <pt x="57" y="668" on="0"/>
      </contour>
    </TTGlyph>
    <TTGlyph name="less" xMin="90" yMin="209" xMax="920" yMax="1235">
      <contour>
        <pt x="872" y="1010" on="1"/>
        <pt x="324" y="723" on="1"/>
        <pt x="750" y="434" on="1"/>
        <pt x="702" y="209" on="1"/>
        <pt x="90" y="645" on="1"/>
        <pt x="123" y="801" on="1"/>
        <pt x="920" y="1235" on="1"/>
      </contour>
    </TTGlyph>
    <TTGlyph name="logicalnot" xMin="123" yMin="250" xMax="872" yMax="825">
      <contour>
        <pt x="750" y="250" on="1"/>
        <pt x="555" y="250" on="1"/>
        <pt x="633" y="618" on="1"/>
        <pt x="123" y="618" on="1"/>
        <pt x="167" y="825" on="1"/>
        <pt x="872" y="825" on="1"/>
      </contour>
    </TTGlyph>
    <TTGlyph name="m" xMin="-8" yMin="0" xMax="1540" yMax="1135">
      <contour>
        <pt x="1307" y="1135" on="1"/>
        <pt x="1455" y="1135" on="0"/>
        <pt x="1510" y="1031" on="1"/>
        <pt x="1540" y="973" on="0"/>
        <pt x="1540" y="815" on="0"/>
        <pt x="1521" y="727" on="1"/>
        <pt x="1366" y="0" on="1"/>
        <pt x="1098" y="0" on="1"/>
        <pt x="1240" y="664" on="1"/>
        <pt x="1255" y="737" on="0"/>
        <pt x="1255" y="788" on="1"/>
        <pt x="1255" y="909" on="0"/>
        <pt x="1171" y="909" on="1"/>
        <pt x="1084" y="909" on="0"/>
        <pt x="969" y="735" on="0"/>
        <pt x="928" y="541" on="1"/>
        <pt x="813" y="0" on="1"/>
        <pt x="545" y="0" on="1"/>
        <pt x="687" y="664" on="1"/>
        <pt x="702" y="736" on="0"/>
        <pt x="702" y="787" on="1"/>
        <pt x="702" y="909" on="0"/>
        <pt x="529" y="909" on="0"/>
        <pt x="414" y="733" on="0"/>
        <pt x="372" y="535" on="1"/>
        <pt x="258" y="0" on="1"/>
        <pt x="-8" y="0" on="1"/>
        <pt x="229" y="1114" on="1"/>
        <pt x="440" y="1114" on="1"/>
        <pt x="442" y="971" on="1"/>
        <pt x="459" y="971" on="1"/>
        <pt x="515" y="1053" on="0"/>
        <pt x="669" y="1135" on="0"/>
        <pt x="752" y="1135" on="1"/>
        <pt x="956" y="1135" on="0"/>
        <pt x="983" y="942" on="1"/>
        <pt x="993" y="942" on="1"/>
        <pt x="1119" y="1135" on="0"/>
      </contour>
    </TTGlyph>
    <TTGlyph name="memdageshhb" xMin="-96" yMin="0" xMax="1037" yMax="1310">
      <contour>
        <pt x="619" y="1267" on="0"/>
        <pt x="740" y="1310" on="0"/>
        <pt x="871" y="1310" on="0"/>
        <pt x="964" y="1268" on="0"/>
        <pt x="989" y="1228" on="1"/>
        <pt x="1037" y="1151" on="0"/>
        <pt x="1037" y="1044" on="1"/>
        <pt x="1037" y="920" on="0"/>
        <pt x="1000" y="748" on="1"/>
        <pt x="841" y="0" on="1"/>
        <pt x="335" y="0" on="1"/>
        <pt x="380" y="215" on="1"/>
        <pt x="620" y="215" on="1"/>
        <pt x="733" y="746" on="1"/>
        <pt x="759" y="864" on="0"/>
        <pt x="759" y="940" on="1"/>
        <pt x="759" y="1086" on="0"/>
        <pt x="667" y="1086" on="1"/>
        <pt x="628" y="1086" on="0"/>
        <pt x="551" y="1043" on="0"/>
        <pt x="524" y="1012" on="1"/>
        <pt x="469" y="952" on="0"/>
        <pt x="442" y="900" on="1"/>
        <pt x="431" y="878" on="1"/>
        <pt x="169" y="0" on="1"/>
        <pt x="-96" y="0" on="1"/>
        <pt x="152" y="837" on="1"/>
        <pt x="194" y="971" on="0"/>
        <pt x="194" y="1108" on="1"/>
        <pt x="194" y="1142" on="0"/>
        <pt x="191" y="1176" on="1"/>
        <pt x="179" y="1290" on="1"/>
        <pt x="432" y="1290" on="1"/>
        <pt x="439" y="1252" on="0"/>
        <pt x="443" y="1200" on="1"/>
        <pt x="445" y="1111" on="1"/>
        <pt x="459" y="1111" on="1"/>
        <pt x="464" y="1119" on="0"/>
        <pt x="481" y="1146" on="0"/>
        <pt x="545" y="1215" on="0"/>
      </contour>
      <contour>
        <pt x="481" y="699" on="1"/>
        <pt x="511" y="722" on="0"/>
        <pt x="598" y="722" on="0"/>
        <pt x="634" y="681" on="0"/>
        <pt x="634" y="663" on="1"/>
        <pt x="634" y="604" on="0"/>
        <pt x="593" y="572" on="1"/>
        <pt x="562" y="549" on="0"/>
        <pt x="474" y="549" on="0"/>
        <pt x="440" y="587" on="0"/>
        <pt x="440" y="605" on="1"/>
        <pt x="440" y="668" on="0"/>
      </contour>
    </TTGlyph>
    <TTGlyph name="multiply" xMin="22" yMin="276" xMax="894" yMax="1165">
      <contour>
        <pt x="894" y="1053" on="1"/>
        <pt x="579" y="723" on="1"/>
        <pt x="753" y="389" on="1"/>
        <pt x="578" y="276" on="1"/>
        <pt x="424" y="565" on="1"/>
        <pt x="150" y="276" on="1"/>
        <pt x="22" y="389" on="1"/>
        <pt x="339" y="723" on="1"/>
        <pt x="163" y="1053" on="1"/>
        <pt x="338" y="1165" on="1"/>
        <pt x="492" y="883" on="1"/>
        <pt x="766" y="1165" on="1"/>
      </contour>
    </TTGlyph>
    <TTGlyph name="n" xMin="-8" yMin="0" xMax="989" yMax="1135">
      <contour>
        <pt x="706" y="790" on="1"/>
        <pt x="706" y="909" on="0"/>
        <pt x="532" y="909" on="0"/>
        <pt x="416" y="740" on="0"/>
        <pt x="372" y="535" on="1"/>
        <pt x="258" y="0" on="1"/>
        <pt x="-8" y="0" on="1"/>
        <pt x="229" y="1114" on="1"/>
        <pt x="440" y="1114" on="1"/>
        <pt x="442" y="971" on="1"/>
        <pt x="459" y="971" on="1"/>
        <pt x="512" y="1049" on="0"/>
        <pt x="665" y="1135" on="0"/>
        <pt x="754" y="1135" on="1"/>
        <pt x="989" y="1135" on="0"/>
        <pt x="989" y="889" on="1"/>
        <pt x="989" y="818" on="0"/>
        <pt x="970" y="727" on="1"/>
        <pt x="815" y="0" on="1"/>
        <pt x="547" y="0" on="1"/>
        <pt x="689" y="664" on="1"/>
        <pt x="706" y="738" on="0"/>
      </contour>
    </TTGlyph>
    <TTGlyph name="nine" xMin="-9" yMin="-20" xMax="921" yMax="1481">
      <contour>
        <pt x="335" y="516" on="1"/>
        <pt x="187" y="516" on="0"/>
        <pt x="130" y="638" on="1"/>
        <pt x="99" y="706" on="0"/>
        <pt x="99" y="877" on="0"/>
        <pt x="120" y="973" on="1"/>
        <pt x="169" y="1207" on="0"/>
        <pt x="305" y="1344" on="1"/>
        <pt x="444" y="1481" on="0"/>
        <pt x="623" y="1481" on="1"/>
        <pt x="819" y="1481" on="0"/>
        <pt x="887" y="1312" on="1"/>
        <pt x="921" y="1227" on="0"/>
        <pt x="921" y="983" on="0"/>
        <pt x="888" y="825" on="1"/>
        <pt x="708" y="-20" on="0"/>
        <pt x="143" y="-20" on="1"/>
        <pt x="48" y="-20" on="0"/>
        <pt x="-9" y="-4" on="1"/>
        <pt x="40" y="225" on="1"/>
        <pt x="100" y="203" on="0"/>
        <pt x="162" y="203" on="1"/>
        <pt x="330" y="203" on="0"/>
        <pt x="552" y="437" on="0"/>
        <pt x="613" y="684" on="1"/>
        <pt x="604" y="684" on="1"/>
        <pt x="555" y="604" on="0"/>
        <pt x="416" y="516" on="0"/>
      </contour>
      <contour>
        <pt x="372" y="862" on="1"/>
        <pt x="372" y="735" on="0"/>
        <pt x="460" y="735" on="1"/>
        <pt x="517" y="735" on="0"/>
        <pt x="573" y="800" on="1"/>
        <pt x="629" y="867" on="0"/>
        <pt x="663" y="1027" on="0"/>
        <pt x="663" y="1078" on="1"/>
        <pt x="663" y="1249" on="0"/>
        <pt x="575" y="1249" on="1"/>
        <pt x="445" y="1249" on="0"/>
        <pt x="387" y="979" on="1"/>
        <pt x="372" y="912" on="0"/>
      </contour>
    </TTGlyph>
    <TTGlyph name="ntilde" xMin="-51" yMin="0" xMax="1041" yMax="1542">
      <contour>
        <pt x="758" y="1241" on="1"/>
        <pt x="697" y="1241" on="0"/>
        <pt x="648" y="1278" on="1"/>
        <pt x="627" y="1294" on="0"/>
        <pt x="608" y="1310" on="1"/>
        <pt x="563" y="1348" on="0"/>
        <pt x="493" y="1348" on="0"/>
        <pt x="446" y="1299" on="0"/>
        <pt x="423" y="1239" on="1"/>
        <pt x="282" y="1239" on="1"/>
        <pt x="326" y="1390" on="0"/>
        <pt x="470" y="1540" on="0"/>
        <pt x="565" y="1540" on="1"/>
        <pt x="604" y="1540" on="0"/>
        <pt x="674" y="1507" on="0"/>
        <pt x="696" y="1487" on="1"/>
        <pt x="754" y="1434" on="0"/>
        <pt x="801" y="1434" on="1"/>
        <pt x="833" y="1434" on="0"/>
        <pt x="875" y="1483" on="0"/>
        <pt x="900" y="1542" on="1"/>
        <pt x="1041" y="1542" on="1"/>
        <pt x="998" y="1393" on="0"/>
        <pt x="851" y="1241" on="0"/>
      </contour>
      <contour>
        <pt x="662" y="790" on="1"/>
        <pt x="662" y="909" on="0"/>
        <pt x="574" y="909" on="1"/>
        <pt x="489" y="909" on="0"/>
        <pt x="373" y="740" on="0"/>
        <pt x="329" y="535" on="1"/>
        <pt x="215" y="0" on="1"/>
        <pt x="-51" y="0" on="1"/>
        <pt x="186" y="1114" on="1"/>
        <pt x="397" y="1114" on="1"/>
        <pt x="399" y="971" on="1"/>
        <pt x="416" y="971" on="1"/>
        <pt x="468" y="1049" on="0"/>
        <pt x="621" y="1135" on="0"/>
        <pt x="710" y="1135" on="1"/>
        <pt x="946" y="1135" on="0"/>
        <pt x="946" y="887" on="1"/>
        <pt x="946" y="817" on="0"/>
        <pt x="927" y="727" on="1"/>
        <pt x="772" y="0" on="1"/>
        <pt x="504" y="0" on="1"/>
        <pt x="645" y="664" on="1"/>
        <pt x="662" y="738" on="0"/>
      </contour>
    </TTGlyph>
    <TTGlyph name="numbersign" xMin="-27" yMin="0" xMax="1143" yMax="1462">
      <contour>
        <pt x="953" y="1049" on="1"/>
        <pt x="1143" y="1049" on="1"/>
        <pt x="1102" y="856" on="1"/>
        <pt x="883" y="856" on="1"/>
        <pt x="792" y="604" on="1"/>
        <pt x="995" y="604" on="1"/>
        <pt x="954" y="410" on="1"/>
        <pt x="725" y="410" on="1"/>
        <pt x="578" y="0" on="1"/>
        <pt x="386" y="0" on="1"/>
        <pt x="534" y="410" on="1"/>
        <pt x="352" y="410" on="1"/>
        <pt x="207" y="0" on="1"/>
        <pt x="15" y="0" on="1"/>
        <pt x="161" y="410" on="1"/>
        <pt x="-27" y="410" on="1"/>
        <pt x="14" y="604" on="1"/>
        <pt x="231" y="604" on="1"/>
        <pt x="322" y="856" on="1"/>
        <pt x="121" y="856" on="1"/>
        <pt x="162" y="1049" on="1"/>
        <pt x="392" y="1049" on="1"/>
        <pt x="538" y="1462" on="1"/>
        <pt x="726" y="1462" on="1"/>
        <pt x="580" y="1049" on="1"/>
        <pt x="762" y="1049" on="1"/>
        <pt x="911" y="1462" on="1"/>
        <pt x="1099" y="1462" on="1"/>
      </contour>
      <contour>
        <pt x="510" y="856" on="1"/>
        <pt x="422" y="604" on="1"/>
        <pt x="602" y="604" on="1"/>
        <pt x="693" y="856" on="1"/>
      </contour>
    </TTGlyph>
</ttFont>
